<svg width="24" height="24" viewBox="0 0 24 24" fill="none" xmlns="http://www.w3.org/2000/svg">
<path d="M19.5415 21.8699C19.5415 23.0159 18.6831 23.944 17.623 23.944H5.39236C4.33336 23.944 3.47461 23.0155 3.47461 21.8699V3.16753C3.47461 2.02041 4.33373 1.09229 5.39236 1.09229H17.623C18.6831 1.09229 19.5415 2.02041 19.5415 3.16753V21.8699Z" fill="#F4AE7F"/>
<path d="M11.587 3.94088C11.587 4.15875 11.1527 4.335 10.6195 4.335H4.44286C3.90811 4.335 3.47461 4.15875 3.47461 3.94088V0.393375C3.47461 0.17625 3.90773 0 4.44286 0H10.6195C11.1527 0 11.587 0.17625 11.587 0.393375V3.94088Z" fill="#F4AE7F"/>
<path d="M20.4985 20.9999C20.4985 21.9723 19.6315 22.7586 18.5609 22.7586H6.2013C5.13217 22.7586 4.26367 21.9719 4.26367 20.9999V5.14864C4.26367 4.17702 5.13217 3.38989 6.2013 3.38989H18.5609C19.6315 3.38989 20.4985 4.17739 20.4985 5.14864V20.9999Z" fill="#D0D2D3"/>
<path d="M20.4985 19.7601C20.4985 20.7325 19.6315 21.5189 18.5609 21.5189H6.2013C5.13217 21.5189 4.26367 20.7321 4.26367 19.7601V3.90888C4.26367 2.93725 5.13217 2.15088 6.2013 2.15088H18.5609C19.6315 2.15088 20.4985 2.93763 20.4985 3.90888V19.7601Z" fill="white"/>
<path d="M16.1635 3.10505C16.1635 3.22205 15.5867 3.3173 14.8772 3.3173H6.6647C5.9537 3.3173 5.37695 3.22205 5.37695 3.10505V1.19443C5.37695 1.0763 5.9537 0.982178 6.6647 0.982178H14.8772C15.5867 0.982178 16.1635 1.0763 16.1635 1.19443V3.10505Z" fill="#D0D2D3"/>
<path d="M7.52688 6.76128H18.2376C18.9584 6.76128 18.9584 5.74878 18.2376 5.74878H7.52688C6.80875 5.74878 6.80875 6.76128 7.52688 6.76128ZM7.52688 8.81815H18.2376C18.9584 8.81815 18.9584 7.8064 18.2376 7.8064H7.52688C6.80875 7.8064 6.80875 8.81815 7.52688 8.81815ZM7.52688 10.92H18.2376C18.9584 10.92 18.9584 9.90753 18.2376 9.90753H7.52688C6.80875 9.90753 6.80875 10.92 7.52688 10.92ZM7.52688 12.975H18.2376C18.9584 12.975 18.9584 11.9633 18.2376 11.9633H7.52688C6.80875 11.9633 6.80875 12.975 7.52688 12.975ZM7.52688 16.9425H12.4574C13.1759 16.9425 13.1759 15.9304 12.4574 15.9304H7.52688C6.80875 15.93 6.80875 16.9425 7.52688 16.9425Z" fill="#35494D"/>
</svg>
