<svg width="60" height="60" viewBox="0 0 60 60" fill="none" xmlns="http://www.w3.org/2000/svg">
<path fill-rule="evenodd" clip-rule="evenodd" d="M7.5 30C7.5 41.125 15.625 50.375 26.25 52.25L26.3754 52.1497C26.3336 52.1416 26.2918 52.1334 26.25 52.125V36.25H20.625V30H26.25V25C26.25 19.375 29.875 16.25 35 16.25C36.625 16.25 38.375 16.5 40 16.75V22.5H37.125C34.375 22.5 33.75 23.875 33.75 25.625V30H39.75L38.75 36.25H33.75V52.125C33.7082 52.1334 33.6664 52.1416 33.6246 52.1497L33.75 52.25C44.375 50.375 52.5 41.125 52.5 30C52.5 17.625 42.375 7.5 30 7.5C17.625 7.5 7.5 17.625 7.5 30Z" fill="#0D2C58"/>
</svg>
