<svg width="60" height="60" viewBox="0 0 60 60" fill="none" xmlns="http://www.w3.org/2000/svg">
<path d="M30.001 8.18182C24.0757 8.18182 23.3321 8.20773 21.0049 8.31364C18.6822 8.42001 17.0968 8.78773 15.7096 9.32728C14.2746 9.88455 13.0574 10.63 11.8447 11.8432C10.6311 13.0559 9.88568 14.2732 9.32661 15.7077C8.78571 17.0955 8.41754 18.6814 8.313 21.0032C8.20891 23.3305 8.18164 24.0745 8.18164 30C8.18164 35.9255 8.208 36.6668 8.31346 38.9941C8.42027 41.3168 8.78799 42.9023 9.32706 44.2895C9.88477 45.7245 10.6302 46.9418 11.8433 48.1545C13.0556 49.3682 14.2728 50.1155 15.7069 50.6727C17.095 51.2123 18.6809 51.58 21.0031 51.6864C23.3303 51.7923 24.0734 51.8182 29.9983 51.8182C35.924 51.8182 36.6653 51.7923 38.9925 51.6864C41.3152 51.58 42.9024 51.2123 44.2905 50.6727C45.725 50.1155 46.9405 49.3682 48.1527 48.1545C49.3663 46.9418 50.1117 45.7245 50.6708 44.29C51.2072 42.9023 51.5753 41.3164 51.6844 38.9945C51.789 36.6673 51.8162 35.9255 51.8162 30C51.8162 24.0745 51.789 23.3309 51.6844 21.0036C51.5753 18.6809 51.2072 17.0955 50.6708 15.7082C50.1117 14.2732 49.3663 13.0559 48.1527 11.8432C46.9391 10.6296 45.7255 9.8841 44.2892 9.32728C42.8983 8.78773 41.312 8.42001 38.9893 8.31364C36.6621 8.20773 35.9213 8.18182 29.9942 8.18182H30.001ZM28.0438 12.1136C28.6247 12.1127 29.2728 12.1136 30.001 12.1136C35.8263 12.1136 36.5167 12.1346 38.8171 12.2391C40.9443 12.3364 42.0988 12.6918 42.8679 12.9905C43.886 13.3859 44.6119 13.8586 45.3751 14.6223C46.1387 15.3859 46.6114 16.1132 47.0077 17.1314C47.3064 17.8995 47.6623 19.0541 47.7591 21.1814C47.8636 23.4814 47.8863 24.1723 47.8863 29.995C47.8863 35.8177 47.8636 36.5086 47.7591 38.8086C47.6618 40.9359 47.3064 42.0905 47.0077 42.8586C46.6123 43.8768 46.1387 44.6018 45.3751 45.365C44.6114 46.1286 43.8865 46.6014 42.8679 46.9968C42.0997 47.2968 40.9443 47.6514 38.8171 47.7486C36.5171 47.8532 35.8263 47.8759 30.001 47.8759C24.1752 47.8759 23.4848 47.8532 21.1849 47.7486C19.0577 47.6505 17.9032 47.295 17.1336 46.9964C16.1155 46.6009 15.3882 46.1282 14.6246 45.3645C13.861 44.6009 13.3883 43.8755 12.9919 42.8568C12.6933 42.0886 12.3374 40.9341 12.2406 38.8068C12.1361 36.5068 12.1152 35.8159 12.1152 29.9895C12.1152 24.1632 12.1361 23.4759 12.2406 21.1759C12.3379 19.0486 12.6933 17.8941 12.9919 17.125C13.3874 16.1068 13.861 15.3795 14.6246 14.6159C15.3882 13.8523 16.1155 13.3796 17.1336 12.9832C17.9027 12.6832 19.0577 12.3286 21.1849 12.2309C23.1975 12.14 23.9775 12.1127 28.0438 12.1082V12.1136ZM41.647 15.7364C40.2016 15.7364 39.0289 16.9077 39.0289 18.3536C39.0289 19.7991 40.2016 20.9718 41.647 20.9718C43.0924 20.9718 44.2651 19.7991 44.2651 18.3536C44.2651 16.9082 43.0924 15.7355 41.647 15.7355V15.7364ZM30.001 18.7955C23.8134 18.7955 18.7968 23.8123 18.7968 30C18.7968 36.1877 23.8134 41.2023 30.001 41.2023C36.1885 41.2023 41.2034 36.1877 41.2034 30C41.2034 23.8123 36.1881 18.7955 30.0005 18.7955H30.001ZM30.001 22.7273C34.0172 22.7273 37.2735 25.9832 37.2735 30C37.2735 34.0164 34.0172 37.2727 30.001 37.2727C25.9843 37.2727 22.7285 34.0164 22.7285 30C22.7285 25.9832 25.9843 22.7273 30.001 22.7273V22.7273Z" fill="#0D2C58"/>
</svg>
