<svg width="60" height="60" viewBox="0 0 60 60" fill="none" xmlns="http://www.w3.org/2000/svg">
<path fill-rule="evenodd" clip-rule="evenodd" d="M11.7667 8.75006C10.1006 8.75006 8.75 10.1007 8.75 11.7667V48.2333C8.75 49.8993 10.1006 51.2499 11.7667 51.2499H48.2333C49.8994 51.2499 51.25 49.8993 51.25 48.2333V11.7667C51.25 10.1007 49.8994 8.75006 48.2333 8.75006H11.7667ZM18.2893 21.9485C20.3255 21.9485 21.9762 20.2978 21.9762 18.2616C21.9762 16.2254 20.3255 14.5747 18.2893 14.5747C16.2531 14.5747 14.6024 16.2254 14.6024 18.2616C14.6024 20.2978 16.2531 21.9485 18.2893 21.9485ZM25.3527 24.6732H31.463V27.4723C31.463 27.4723 33.1211 24.1561 37.6327 24.1561C41.6571 24.1561 44.9909 26.1386 44.9909 32.1816V44.9245H38.6589V33.7257C38.6589 30.1609 36.7558 29.7688 35.3055 29.7688C32.2958 29.7688 31.7806 32.3649 31.7806 34.1907V44.9245H25.3527V24.6732ZM21.5032 24.6732H15.0754V44.9245H21.5032V24.6732Z" fill="#0D2C58"/>
</svg>
