<svg width="60" height="60" viewBox="0 0 60 60" fill="none" xmlns="http://www.w3.org/2000/svg">
<path fill-rule="evenodd" clip-rule="evenodd" d="M49.4293 20.2219C49.4463 20.6592 49.4519 21.0962 49.4519 21.5334C49.4519 34.7889 40.1273 50.0916 23.0758 50.0916C17.8379 50.0916 12.9674 48.4222 8.86377 45.5803C9.58916 45.6598 10.3259 45.7196 11.0739 45.7196C15.4168 45.7196 19.4168 44.1095 22.5897 41.4067C18.5332 41.3471 15.1078 38.4257 13.9265 34.4511C14.4936 34.5703 15.0776 34.6301 15.6749 34.6301C16.5171 34.6301 17.3348 34.511 18.1186 34.2725C13.8737 33.3583 10.6763 29.3043 10.6763 24.4353C10.6763 24.3757 10.6763 24.3557 10.6763 24.316C11.9274 25.0513 13.3593 25.5081 14.8798 25.5678C12.389 23.7593 10.7516 20.679 10.7516 17.2012C10.7516 15.3728 11.2076 13.6438 12.0103 12.1533C16.5812 18.2345 23.415 22.2291 31.1193 22.6464C30.961 21.9111 30.8799 21.1363 30.8799 20.3612C30.8799 14.8165 35.0307 10.3251 40.1518 10.3251C42.8178 10.3251 45.2258 11.5375 46.9158 13.4851C49.0317 13.0479 51.0139 12.2133 52.8076 11.0606C52.1123 13.4057 50.6445 15.3727 48.7265 16.6049C50.6031 16.3664 52.3931 15.8302 54.053 15.0353C52.8076 17.0425 51.24 18.8109 49.4293 20.2219Z" fill="#0D2C58"/>
</svg>
