<svg width="60" height="60" viewBox="0 0 60 60" fill="none" xmlns="http://www.w3.org/2000/svg">
<path fill-rule="evenodd" clip-rule="evenodd" d="M49.8078 12.803C51.9762 13.3868 53.686 15.0965 54.2698 17.265C55.354 21.2265 55.3123 29.4833 55.3123 29.4833C55.3123 29.4833 55.3123 37.6984 54.2698 41.6599C53.686 43.8284 51.9762 45.5381 49.8078 46.1219C45.8462 47.1644 29.9999 47.1644 29.9999 47.1644C29.9999 47.1644 14.1953 47.1644 10.192 46.0802C8.02357 45.4964 6.31383 43.7867 5.73002 41.6182C4.6875 37.6984 4.6875 29.4416 4.6875 29.4416C4.6875 29.4416 4.6875 21.2265 5.73002 17.265C6.31383 15.0965 8.06527 13.3451 10.192 12.7613C14.1536 11.7188 29.9999 11.7188 29.9999 11.7188C29.9999 11.7188 45.8462 11.7188 49.8078 12.803ZM38.1315 29.152L24.9541 36.7416V21.5625L38.1315 29.152Z" fill="#0D2C58"/>
</svg>
