<svg width="20" height="22" viewBox="0 0 20 22" fill="none" xmlns="http://www.w3.org/2000/svg">
<path d="M19.3199 19.9577L19.3225 19.9603C19.3427 19.9802 19.3623 20.0081 19.3769 20.0442L19.8404 19.8566L19.3769 20.0442C19.3915 20.0802 19.3998 20.1214 19.3999 20.1645V21.1795C19.3999 21.2621 19.3701 21.3315 19.3316 21.3746C19.2948 21.4158 19.2579 21.4263 19.2332 21.4263H0.69987C0.675151 21.4263 0.638235 21.4158 0.601453 21.3746C0.563011 21.3315 0.533203 21.2621 0.533203 21.1795V20.1643C0.53328 20.1213 0.541586 20.0802 0.556162 20.0442C0.570748 20.0081 0.590351 19.9802 0.610566 19.9603L0.610612 19.9603L0.616297 19.9546C1.28112 19.2788 1.86097 18.5079 2.34122 17.663L2.35217 17.6438L2.36138 17.6236C2.89754 16.4492 3.218 15.1688 3.30543 13.8574L3.30654 13.8407V13.8241L3.30654 10.1352L3.30654 10.1343C3.30321 8.28775 3.89785 6.50971 4.96985 5.12876C6.04097 3.74895 7.5118 2.86305 9.10303 2.61671L9.52654 2.55115V2.1226V1.14437C9.52654 0.995423 9.57987 0.862408 9.6602 0.772436C9.73886 0.684321 9.83259 0.647461 9.91654 0.647461C10.0005 0.647461 10.0942 0.684321 10.1729 0.772436C10.2532 0.862408 10.3065 0.995423 10.3065 1.14437V2.10767V2.54121L10.7357 2.60262C12.3411 2.83237 13.8296 3.71267 14.9149 5.09695C16.001 6.48241 16.604 8.27335 16.5999 10.1341V10.1352V13.8241V13.8407L16.601 13.8574C16.6884 15.1688 17.0089 16.4492 17.545 17.6236L17.5549 17.6453L17.5668 17.6659C18.0557 18.5128 18.6451 19.2839 19.3199 19.9577Z" stroke="white"/>
</svg>
