<svg width="368" height="273" viewBox="0 0 368 273" fill="none" xmlns="http://www.w3.org/2000/svg">
<g style="mix-blend-mode:multiply">
<path d="M183.637 271.965C285.025 271.718 367.204 266.22 367.188 259.687C367.172 253.153 284.968 248.058 183.579 248.305C82.1913 248.553 0.0129417 254.05 0.0289062 260.584C0.0448706 267.117 82.2491 272.213 183.637 271.965Z" fill="#E6E6E6"/>
</g>
<path d="M91.5052 216.306L166.375 216.126C166.375 216.126 173.645 214.226 173.795 200.746C173.795 190.516 166.795 187.426 166.795 187.426L91.0352 187.616L91.5052 216.306Z" fill="#138891"/>
<path d="M100.333 198.966L98.2734 194.256L96.5734 192.256L94.6334 190.496L91.0834 189.196L51.7734 189.296C53.6474 190.872 55.1772 192.815 56.2679 195.007C57.3586 197.199 57.9868 199.591 58.1134 202.036L100.333 201.936V198.966Z" fill="#F9F6EF"/>
<path d="M58.1148 202.036C58.3648 208.916 51.9648 215.176 51.9648 215.176H69.4948L89.0148 215.126L94.7549 213.376L98.5848 209.236L100.345 204.656V201.976L58.1148 202.036Z" fill="#EBE9DC"/>
<path d="M86.2336 214.036C86.2336 214.036 96.1836 212.496 96.3336 201.946C96.4836 191.396 86.1836 189.726 86.1836 189.726H93.8936L96.8036 192.536L99.1736 196.316L100.754 199.796V204.996L98.5836 209.216L93.5036 214.036L87.6236 215.106L86.2336 214.036Z" fill="#BEBAAD"/>
<path d="M50.9727 187.706L91.0727 187.616C91.0727 187.616 101.373 189.616 101.753 201.566C101.966 204.821 101.068 208.051 99.206 210.729C97.3439 213.407 94.6279 215.373 91.5027 216.306L51.0427 216.406V213.406L91.3127 213.306C93.6679 212.452 95.7073 210.9 97.1595 208.859C98.6118 206.817 99.4081 204.382 99.4426 201.876C99.5727 193.696 93.2127 190.476 91.0826 190.486C88.9526 190.496 50.9827 190.796 50.9827 190.796L50.9727 187.706Z" fill="#22B4B7"/>
<path d="M151.644 216.166C151.644 216.166 159.454 214.996 159.594 201.796C159.734 188.596 151.594 187.466 151.594 187.466H156.594C156.594 187.466 164.404 188.466 164.594 201.576C164.784 214.686 156.694 216.166 156.694 216.166H151.644Z" fill="#FFA632"/>
<path d="M125.634 129.286L57.2441 129.456C57.2441 129.456 50.5941 128.186 50.4141 118.996C50.4117 117.016 51.0137 115.084 52.1395 113.456C53.2653 111.828 54.8613 110.582 56.7141 109.886L125.914 109.716L125.634 129.286Z" fill="#FFA632"/>
<path d="M95.7617 117.546L97.6217 114.336L99.1717 112.956L100.942 111.756L104.182 110.876L161.812 110.736C161.812 110.736 156.232 113.976 156.072 119.446L95.7717 119.596L95.7617 117.546Z" fill="#F9F6EF"/>
<path d="M156.073 119.426C155.863 124.116 161.743 128.366 161.743 128.366H145.743L106.183 128.456L100.943 127.286L97.423 124.476L95.793 121.366L97.653 119.536L156.073 119.426Z" fill="#EBE9DC"/>
<path d="M109.763 127.966C109.763 127.966 100.663 126.966 100.483 119.766C100.303 112.566 109.723 111.386 109.723 111.386H102.723L100.073 113.316L97.8831 115.876L96.4531 118.256V121.876L98.4531 124.736L103.103 128.006L108.483 128.716L109.763 127.966Z" fill="#BEBAAD"/>
<path d="M162.534 109.626L104.984 109.766C104.984 109.766 95.5841 111.176 95.2841 119.326C94.9841 127.476 104.704 129.326 104.704 129.326L162.584 129.186V127.186L104.874 127.326C104.874 127.326 97.7541 125.716 97.4041 119.556C97.2541 113.976 103.054 111.756 105.004 111.756C106.954 111.756 162.554 111.756 162.554 111.756L162.534 109.626Z" fill="#FFC43B"/>
<path d="M97.6432 129.356C97.6432 129.356 90.5132 128.586 90.3232 119.586C90.1332 110.586 97.5932 109.786 97.5932 109.786H93.0532C93.0532 109.786 85.9232 110.496 85.7832 119.446C85.6432 128.396 93.0632 129.356 93.0632 129.356H97.6432Z" fill="#D23536"/>
<path d="M176.482 160.146L51.8219 160.236L49.0719 159.286L46.0719 161.556L43.6119 164.356L41.9219 169.816L42.1119 172.706L170.682 172.596C170.702 163.876 176.482 160.146 176.482 160.146Z" fill="#F9F6EF"/>
<path d="M170.724 172.596L42.1836 172.706L42.3936 175.866L44.3936 181.786L48.3936 185.356H52.0236L176.624 184.846C176.624 184.846 170.744 181.316 170.724 172.596Z" fill="#EBE9DC"/>
<path d="M54.0541 160.236C51.6217 161.253 49.5615 162.995 48.1535 165.224C46.7454 167.454 46.0578 170.062 46.1841 172.696C46.3241 182.276 53.8741 185.346 53.8741 185.346L51.7241 186.286L48.2741 185.356L44.2741 181.786L41.9141 174.426L42.2441 168.736L43.4541 166.106L44.7541 163.036L47.9341 159.296L51.6341 158.606L54.0541 160.236Z" fill="#BAB9A8"/>
<path d="M177.515 157.266L51.8254 157.576C51.8254 157.576 40.9154 158.516 40.9454 171.816C40.9454 186.646 50.9454 187.706 50.9454 187.706L177.555 187.396V184.876L51.9154 185.396C51.9154 185.396 43.6354 184.946 42.9854 172.516C44.1954 159.646 51.7954 160.286 51.7954 160.286L177.495 160.196L177.515 157.266Z" fill="#283F48"/>
<path d="M57.1836 132.166L149.824 131.736L151.824 130.846L154.034 132.946L155.874 135.546L157.154 140.626L157.024 143.316L61.4836 143.736C61.5036 135.606 57.1836 132.166 57.1836 132.166Z" fill="#F9F6EF"/>
<path d="M61.5253 143.736L157.065 143.316L156.925 146.266L155.485 151.786L152.485 155.136H149.785H57.1953C57.1953 155.136 61.5453 151.876 61.5253 143.736Z" fill="#EBE9DC"/>
<path d="M148.184 131.746C148.184 131.746 154.124 134.386 154.054 143.316C153.984 152.246 148.394 155.146 148.394 155.146L149.994 156.016L152.554 155.136L155.554 151.786L157.274 144.926L157.004 139.616L156.094 137.166L155.094 134.316L152.664 130.876L149.914 130.246L148.184 131.746Z" fill="#BAB9A8"/>
<path d="M56.4141 129.486L149.814 129.256C149.814 129.256 157.924 130.086 157.954 142.486C157.954 156.306 150.564 157.336 150.564 157.336L56.4841 157.566V155.166H149.844C149.844 155.166 155.994 154.706 156.434 143.166C155.434 131.166 149.834 131.806 149.834 131.806L56.4241 132.236L56.4141 129.486Z" fill="#49272F"/>
<path d="M77.1836 87.506L156.814 87.136L158.604 86.356L160.534 88.196L162.144 90.466L163.264 94.906L163.154 97.266L82.4836 97.626C82.5255 95.629 82.0615 93.6539 81.1349 91.8845C80.2082 90.115 78.8489 88.6088 77.1836 87.506Z" fill="#F9F6EF"/>
<path d="M82.4644 97.6261L163.134 97.2661L163.014 99.8461L161.744 104.676L159.184 107.606H156.824H77.2344C78.8919 106.534 80.2443 105.052 81.1606 103.303C82.0769 101.555 82.526 99.5992 82.4644 97.6261Z" fill="#EBE9DC"/>
<path d="M155.344 87.1459C155.344 87.1459 160.544 89.4559 160.484 97.2659C160.424 105.076 155.484 107.606 155.484 107.606L156.884 108.376L159.124 107.606L161.704 104.676L163.214 98.6759L162.984 94.0259L162.184 91.8759L161.324 89.3859L159.244 86.3859L156.834 85.8359L155.344 87.1459Z" fill="#BAB9A8"/>
<path d="M74.9922 85.1658L156.782 84.9658C156.782 84.9658 163.892 85.6958 163.912 96.5358C163.912 108.626 157.442 109.536 157.442 109.536L75.0422 109.736V107.646H156.802C156.802 107.646 162.192 107.246 162.572 97.1158C161.732 86.6358 156.792 87.1758 156.792 87.1758L74.9922 87.5558V85.1658Z" fill="#CF2E2B"/>
<path d="M175.649 215.155L41.8594 215.482L41.952 253.382L175.742 253.055L175.649 215.155Z" fill="#802E26"/>
<path d="M163.089 215.186L152.719 215.211L152.811 253.111L163.181 253.085L163.089 215.186Z" fill="#FFC33E"/>
<g style="mix-blend-mode:overlay" opacity="0.5">
<path d="M175.692 234.115L41.9023 234.442L41.9486 253.392L175.738 253.065L175.692 234.115Z" fill="black"/>
</g>
<path d="M216.522 252.966L302.432 252.756C302.432 252.756 310.772 250.576 310.942 235.096C310.942 223.376 302.942 219.826 302.942 219.826L216.012 220.036L216.522 252.966Z" fill="#BA5652"/>
<path d="M226.655 233.066L224.295 227.666L222.345 225.366L220.125 223.366L216.045 221.876L170.945 221.986C170.945 221.986 177.945 227.396 178.215 236.606L226.665 236.496L226.655 233.066Z" fill="#F3F6FB"/>
<path d="M178.185 236.586C178.485 244.476 171.125 251.666 171.125 251.666L191.255 251.616L213.645 251.556L220.225 249.556L224.625 244.806L226.625 239.556V236.476L178.185 236.586Z" fill="#E6E8F2"/>
<path d="M210.484 250.346C210.484 250.346 221.904 248.586 222.074 236.486C222.244 224.386 210.414 222.486 210.414 222.486H219.254L222.594 225.706L225.314 230.046L227.134 234.046V240.046L224.644 244.886L218.814 250.416L212.064 251.656L210.484 250.346Z" fill="#C5C9D2"/>
<path d="M170.035 220.146L216.035 220.036C216.035 220.036 227.855 222.326 228.295 236.036C228.536 239.772 227.503 243.479 225.366 246.552C223.228 249.625 220.111 251.883 216.525 252.956L170.115 253.066V249.656L216.325 249.546C219.03 248.565 221.372 246.783 223.039 244.437C224.706 242.091 225.618 239.293 225.655 236.416C225.795 227.026 218.505 223.336 216.055 223.346C213.605 223.356 170.055 223.706 170.055 223.706L170.035 220.146Z" fill="#D65C5D"/>
<path d="M285.533 252.796C285.533 252.796 294.533 251.446 294.663 236.306C294.793 221.166 285.453 219.876 285.453 219.876H291.183C291.183 219.876 300.183 221.006 300.383 236.066C300.583 251.126 291.313 252.806 291.313 252.806L285.533 252.796Z" fill="#70B2FF"/>
<path d="M255.683 153.116L177.213 153.306C177.213 153.306 169.593 151.856 169.383 141.306C169.383 133.306 176.603 130.856 176.603 130.856L256.003 130.666L255.683 153.116Z" fill="#534741"/>
<path d="M221.422 139.646L223.552 135.956L225.332 134.376L227.332 132.996L231.052 131.996L297.182 131.836C297.182 131.836 290.772 135.556 290.592 141.836L221.402 142.006L221.422 139.646Z" fill="#F7FAEF"/>
<path d="M290.614 141.806C290.384 147.186 297.124 152.056 297.124 152.056H278.744L233.354 152.166L227.354 150.826L223.354 147.596L221.484 144.026L223.614 141.926L290.614 141.806Z" fill="#E5EDDC"/>
<path d="M237.474 151.596C237.474 151.596 227.034 150.436 226.834 142.186C226.634 133.936 237.434 132.576 237.434 132.576H229.354L226.354 134.786L223.884 137.786L222.184 140.506V144.576L224.484 147.866L229.824 151.616L235.994 152.426L237.474 151.596Z" fill="#BBC1AE"/>
<path d="M298.033 130.556L232.033 130.726C232.033 130.726 221.253 132.326 220.903 141.726C220.553 151.126 231.683 153.176 231.683 153.176L298.083 153.016V150.686L231.873 150.856C231.873 150.856 223.703 149.006 223.293 141.936C223.123 135.536 229.783 132.986 232.013 132.986C234.243 132.986 298.013 132.986 298.013 132.986L298.033 130.556Z" fill="#38302C"/>
<path d="M223.575 153.196C223.575 153.196 215.385 152.316 215.175 141.986C214.965 131.656 223.515 130.746 223.515 130.746H218.315C218.315 130.746 210.135 131.556 209.975 141.826C209.815 152.096 218.325 153.196 218.325 153.196H223.575Z" fill="#E1952E"/>
<path d="M314.033 188.526L171.033 188.626L167.873 187.536L164.473 190.146L161.663 193.356L159.723 199.616L159.933 202.926L307.453 202.806C307.393 192.796 314.033 188.526 314.033 188.526Z" fill="#F7FAEF"/>
<path d="M307.422 202.806L159.902 202.926L160.142 206.556L162.402 213.346L166.972 217.446H171.182L314.182 216.856C314.182 216.856 307.442 212.806 307.422 202.806Z" fill="#E5EDDC"/>
<path d="M173.562 188.626C170.778 189.798 168.421 191.797 166.811 194.353C165.201 196.909 164.416 199.899 164.562 202.916C164.722 213.916 173.382 217.426 173.382 217.426L170.922 218.516L166.922 217.446L162.352 213.346L159.652 204.916L160.022 198.376L161.422 195.376L162.912 191.856L166.562 187.566L170.802 186.766L173.562 188.626Z" fill="#B3BEA9"/>
<path d="M315.182 185.226L170.962 185.576C170.962 185.576 158.482 186.656 158.512 201.876C158.512 218.876 170.032 220.106 170.032 220.106L315.302 219.756V216.756L171.152 217.356C171.152 217.356 161.652 216.836 160.902 202.576C162.292 187.816 171.012 188.576 171.012 188.576L315.232 188.476L315.182 185.226Z" fill="#2C3150"/>
<path d="M177.184 156.416L283.474 155.926L285.814 154.926L288.354 157.336L290.454 160.336L291.924 166.156L291.774 169.246L182.154 169.736C182.104 160.366 177.184 156.416 177.184 156.416Z" fill="#F7FAEF"/>
<path d="M182.123 169.696L291.743 169.206L291.583 172.596L289.933 178.926L286.553 182.776H283.453H177.223C177.223 182.776 182.183 179.016 182.123 169.696Z" fill="#E5EDDC"/>
<path d="M281.543 155.936C281.543 155.936 288.353 158.936 288.273 169.216C288.193 179.496 281.783 182.786 281.783 182.786L283.613 183.786L286.553 182.786L289.933 178.936L291.933 171.066L291.633 164.976L290.583 162.166L289.433 158.876L286.703 154.876L283.543 154.156L281.543 155.936Z" fill="#B3BEA9"/>
<path d="M176.264 153.336L283.434 153.076C283.434 153.076 292.744 154.076 292.774 168.256C292.774 184.116 284.294 185.256 284.294 185.256L176.294 185.516V182.766H283.414C283.414 182.766 290.474 182.246 290.974 168.956C289.884 155.196 283.404 155.956 283.404 155.956L176.234 156.446L176.264 153.336Z" fill="#51382B"/>
<path d="M200.082 105.176L291.442 104.756L293.492 103.856L295.712 105.966L297.552 108.576L298.842 113.676L298.712 116.376L206.152 116.786C206.201 114.496 205.67 112.231 204.608 110.201C203.547 108.171 201.99 106.443 200.082 105.176Z" fill="#F7FAEF"/>
<path d="M206.184 116.786L298.744 116.376L298.604 119.376L297.124 124.876L294.124 128.236H291.414H200.094C202.013 127.017 203.582 125.322 204.65 123.315C205.717 121.308 206.246 119.058 206.184 116.786Z" fill="#E5EDDC"/>
<path d="M289.773 104.756C289.773 104.756 295.773 107.416 295.673 116.376C295.573 125.336 289.983 128.246 289.983 128.246L291.593 129.116L294.163 128.236L297.163 124.876L298.893 117.986L298.623 112.666L297.703 110.206L296.703 107.346L294.293 103.876L291.533 103.246L289.773 104.756Z" fill="#B3BEA9"/>
<path d="M197.582 102.496L291.432 102.266C291.432 102.266 299.582 103.106 299.612 115.536C299.612 129.406 292.182 130.446 292.182 130.446L197.642 130.676V128.266H291.452C291.452 128.266 297.632 127.796 298.072 116.176C297.072 104.176 291.442 104.776 291.442 104.776L197.582 105.206V102.496Z" fill="#DE9423"/>
<g style="mix-blend-mode:multiply">
<path d="M299.764 216.796L282.374 106.056L274.374 107.316C273.121 106.461 272.067 105.345 271.284 104.046C229.624 99.3658 197.334 119.716 196.014 120.556H195.954C195.954 120.556 161.274 107.556 122.244 125.136C121.805 127.529 120.774 129.774 119.244 131.666L109.624 133.176L109.094 133.896L126.474 244.636L206.864 232.016C209.031 232.819 211.383 232.989 213.644 232.506C215.957 232.265 218.157 231.382 219.994 229.956L299.184 217.536L299.764 216.796Z" fill="#CCCCCC"/>
</g>
<path d="M95.7623 244.736L188.662 230.146L168.652 103.676L76.5223 117.396L75.9023 118.236L95.7623 244.736Z" fill="#5D2D2D"/>
<path d="M200.223 228.336L293.113 213.756L293.733 212.906L273.113 87.2759L180.983 100.996L180.363 101.836L200.223 228.336Z" fill="#5D2D2D"/>
<path d="M273.859 86.4258L183.535 100.603L203.39 227.104L293.714 212.927L273.859 86.4258Z" fill="#785C52"/>
<path d="M166.82 103.228L76.4961 117.405L96.3509 243.906L186.675 229.729L166.82 103.228Z" fill="#492014"/>
<path d="M90.932 108.216L110.032 229.876C110.032 229.876 110.082 235.316 101.582 240.246L82.582 119.516C82.582 119.516 89.182 116.926 90.932 108.216Z" fill="#CABEAE"/>
<path d="M186.555 229.736C186.555 229.736 189.015 231.866 195.335 230.866C201.655 229.866 203.415 227.086 203.415 227.086L183.545 100.586C183.545 100.586 181.545 103.176 175.435 104.136C169.325 105.096 166.695 103.236 166.695 103.236L186.555 229.736Z" fill="#5D2D2D"/>
<path d="M186.414 228.876C186.414 228.876 189.004 230.666 195.334 229.666C201.664 228.666 203.414 227.086 203.414 227.086L183.544 99.396C183.544 99.396 181.544 101.986 175.434 102.936C169.324 103.886 166.684 102.036 166.684 102.036L186.414 228.876Z" fill="#492014"/>
<path d="M194.242 224.716C193.637 225.791 192.791 226.712 191.771 227.405C190.751 228.099 189.584 228.548 188.362 228.716C184.232 229.206 118.682 232.616 101.582 240.236C109.162 235.236 110.032 229.866 110.032 229.866C110.032 229.866 110.592 227.866 126.442 225.386C166.312 219.126 194.242 224.716 194.242 224.716Z" fill="#B8A892"/>
<path d="M110.034 229.876C110.034 229.876 138.034 219.026 194.244 224.726L175.124 102.976C175.124 102.976 135.514 88.1263 90.9336 108.216L110.034 229.876Z" fill="white"/>
<path d="M280.272 205.756C281.026 207.006 282.089 208.041 283.359 208.76C284.628 209.48 286.062 209.861 287.522 209.866L268.572 89.186C268.572 89.186 264.502 89.386 261.172 84.106L280.272 205.756Z" fill="#CABEAE"/>
<path d="M194.242 224.716C194.242 224.716 195.602 227.016 203.172 225.786C210.742 224.556 266.502 210.286 287.522 209.866C282.232 208.636 280.272 205.756 280.272 205.756C280.272 205.756 249.582 200.136 194.242 224.716Z" fill="#B09E87"/>
<path d="M280.274 205.756C280.274 205.756 246.054 202.086 194.274 224.756L175.184 103.006C175.184 103.006 212.634 78.6462 261.184 84.1062L280.274 205.756Z" fill="#F2F2F2"/>
<path d="M183.655 115.506C193.903 109.285 205.138 104.858 216.875 102.416C228.695 100.024 240.79 99.2803 252.815 100.206L252.635 98.8162C240.534 97.6709 228.329 98.4335 216.465 101.076C204.85 103.648 193.713 108.035 183.465 114.076L183.655 115.506Z" fill="#CCCCCC"/>
<path d="M184.463 120.246C194.714 114.031 205.948 109.608 217.683 107.166C229.504 104.774 241.599 104.03 253.623 104.956L253.443 103.566C241.34 102.431 229.134 103.211 217.273 105.876C205.659 108.448 194.522 112.835 184.273 118.876L184.463 120.246Z" fill="#CCCCCC"/>
<path d="M185.273 124.996C195.52 118.767 206.755 114.33 218.493 111.876C230.313 109.478 242.408 108.734 254.433 109.666L254.253 108.276C242.156 107.125 229.953 107.887 218.093 110.536C206.46 113.1 195.306 117.488 185.043 123.536L185.273 124.996Z" fill="#CCCCCC"/>
<path d="M186.085 129.746C196.336 123.531 207.57 119.108 219.305 116.666C231.125 114.268 243.221 113.524 255.245 114.456L255.065 113.066C242.969 111.914 230.766 112.673 218.905 115.316C207.272 117.88 196.118 122.268 185.855 128.316L186.085 129.746Z" fill="#CCCCCC"/>
<path d="M186.895 134.496C197.148 128.28 208.386 123.857 220.125 121.416C231.941 119.018 244.034 118.274 256.055 119.206L255.875 117.816C243.778 116.664 231.575 117.423 219.715 120.066C208.1 122.638 196.963 127.025 186.715 133.066L186.895 134.496Z" fill="#CCCCCC"/>
<path d="M187.713 139.246C197.96 133.024 209.195 128.6 220.933 126.166C232.75 123.768 244.842 123.021 256.863 123.946L256.683 122.566C244.587 121.414 232.384 122.173 220.523 124.816C208.909 127.388 197.772 131.775 187.523 137.816L187.713 139.246Z" fill="#CCCCCC"/>
<path d="M235.872 127.306C230.982 127.747 226.125 128.502 221.332 129.566C209.717 132.138 198.58 136.525 188.332 142.566L188.572 143.986C198.804 137.764 210.021 133.33 221.742 130.876C226.487 129.94 231.282 129.272 236.102 128.876C235.957 128.365 235.88 127.837 235.872 127.306Z" fill="#CCCCCC"/>
<path d="M189.335 148.746C199.583 142.525 210.818 138.098 222.555 135.656C234.376 133.264 246.47 132.52 258.495 133.446L258.315 132.056C246.228 130.914 234.036 131.676 222.185 134.316C210.549 136.882 199.392 141.269 189.125 147.316L189.335 148.746Z" fill="#CCCCCC"/>
<path d="M190.184 153.496C200.432 147.275 211.667 142.848 223.404 140.406C235.224 138.014 247.319 137.27 259.344 138.196L259.164 136.806C247.067 135.654 234.864 136.417 223.004 139.066C211.388 141.635 200.251 146.022 190.004 152.066L190.184 153.496Z" fill="#CCCCCC"/>
<path d="M190.953 158.236C201.207 152.02 212.444 147.596 224.183 145.156C236.001 142.764 248.092 142.02 260.113 142.946L259.933 141.556C247.837 140.404 235.634 141.163 223.773 143.806C212.159 146.38 201.023 150.767 190.773 156.806L190.953 158.236Z" fill="#CCCCCC"/>
<path d="M191.772 162.986C202.019 156.758 213.254 152.324 224.992 149.876C236.808 147.478 248.901 146.734 260.922 147.666L260.742 146.276C248.645 145.124 236.443 145.883 224.582 148.526C212.969 151.103 201.833 155.49 191.582 161.526L191.772 162.986Z" fill="#CCCCCC"/>
<path d="M250.383 150.536C241.975 150.572 233.595 151.501 225.383 153.306C213.768 155.878 202.631 160.265 192.383 166.306L192.623 167.726C202.873 161.511 214.107 157.088 225.843 154.646C233.937 153.018 242.167 152.151 250.423 152.056L250.383 150.536Z" fill="#CCCCCC"/>
<path d="M193.394 172.486C203.644 166.271 214.878 161.848 226.614 159.406C238.433 157.008 250.529 156.261 262.554 157.186L262.374 155.806C250.267 154.652 238.054 155.411 226.184 158.056C214.568 160.625 203.431 165.013 193.184 171.056L193.394 172.486Z" fill="#CCCCCC"/>
<path d="M194.184 177.236C204.432 171.015 215.667 166.588 227.404 164.146C239.224 161.754 251.319 161.01 263.344 161.936L263.164 160.556C251.067 159.404 238.865 160.163 227.004 162.806C215.388 165.375 204.251 169.762 194.004 175.806L194.184 177.236Z" fill="#CCCCCC"/>
<path d="M195.014 181.986C205.261 175.758 216.495 171.325 228.234 168.876C240.058 166.49 252.157 165.753 264.184 166.686L264.004 165.296C251.906 164.151 239.704 164.914 227.844 167.556C216.229 170.128 205.092 174.515 194.844 180.556L195.014 181.986Z" fill="#CCCCCC"/>
<path d="M195.825 186.726C206.079 180.512 217.316 176.089 229.055 173.646C240.872 171.254 252.963 170.51 264.985 171.436L264.805 170.046C252.707 168.901 240.505 169.664 228.645 172.306C217.03 174.878 205.893 179.265 195.645 185.306L195.825 186.726Z" fill="#CCCCCC"/>
<path d="M235.402 175.876C233.402 176.196 231.482 176.556 229.402 177.016C217.787 179.588 206.651 183.975 196.402 190.016L196.632 191.426C206.887 185.212 218.124 180.789 229.862 178.346C231.922 177.926 233.932 177.586 235.912 177.286L235.402 175.876Z" fill="#CCCCCC"/>
<path d="M197.455 196.226C207.705 190.011 218.939 185.588 230.675 183.146C242.495 180.748 254.59 180.004 266.615 180.936L266.435 179.546C254.334 178.395 242.128 179.157 230.265 181.806C218.633 184.373 207.479 188.76 197.215 194.806L197.455 196.226Z" fill="#CCCCCC"/>
<path d="M198.262 200.976C208.511 194.754 219.745 190.324 231.482 187.876C243.302 185.478 255.397 184.734 267.422 185.666L267.242 184.276C255.145 183.124 242.943 183.883 231.082 186.526C219.466 189.093 208.328 193.48 198.082 199.526L198.262 200.976Z" fill="#CCCCCC"/>
<path d="M199.075 205.726C209.322 199.506 220.557 195.082 232.295 192.646C244.114 190.248 256.21 189.504 268.235 190.436L268.055 189.046C255.958 187.894 243.755 188.653 231.895 191.296C220.279 193.865 209.142 198.253 198.895 204.296L199.075 205.726Z" fill="#CCCCCC"/>
<path d="M172.874 140.586C172.874 140.586 139.034 128.316 103.184 144.876L103.374 146.036C103.374 146.036 117.884 138.376 138.694 137.426C150.31 136.984 161.922 138.433 173.074 141.716L172.874 140.586Z" fill="#CCCCCC"/>
<path d="M155.312 114.346C142.324 112.386 129.079 112.966 116.312 116.056L116.783 118.906C122.939 117.325 129.236 116.354 135.582 116.006C142.238 115.702 148.906 116.054 155.492 117.056L155.312 114.346Z" fill="#CCCCCC"/>
<path d="M156.672 122.466C143.684 120.505 130.439 121.086 117.672 124.176L118.142 127.026C124.298 125.445 130.595 124.473 136.942 124.126C143.594 123.822 150.259 124.174 156.842 125.176L156.672 122.466Z" fill="#CCCCCC"/>
<path d="M173.604 145.126C173.604 145.126 139.764 132.856 103.934 149.436L104.114 150.606C104.114 150.606 118.624 142.946 139.444 141.996C151.06 141.555 162.672 143.004 173.824 146.286L173.604 145.126Z" fill="#CCCCCC"/>
<path d="M174.344 149.676C174.344 149.676 140.504 137.406 104.664 153.986L104.854 155.146C104.854 155.146 119.364 147.486 140.174 146.536C151.794 146.11 163.405 147.576 174.554 150.876L174.344 149.676Z" fill="#CCCCCC"/>
<path d="M161.185 151.016C148.015 149.016 127.075 148.496 105.395 158.526L105.575 159.696C105.575 159.696 120.095 152.026 140.905 151.086C147.686 150.807 154.478 151.192 161.185 152.236V151.016Z" fill="#CCCCCC"/>
<path d="M175.824 158.766C175.824 158.766 141.974 146.496 106.184 163.076L106.364 164.236C106.364 164.236 120.874 156.576 141.694 155.626C153.295 155.176 164.892 156.612 176.034 159.876L175.824 158.766Z" fill="#CCCCCC"/>
<path d="M176.553 163.306C176.553 163.306 142.713 151.036 106.883 167.616L107.063 168.786C107.063 168.786 121.573 161.116 142.393 160.166C154.006 159.724 165.614 161.173 176.763 164.456L176.553 163.306Z" fill="#CCCCCC"/>
<path d="M177.293 167.876C177.293 167.876 143.453 155.616 107.613 172.186L107.793 173.356C107.793 173.356 122.313 165.686 143.123 164.746C154.74 164.304 166.351 165.753 177.503 169.036L177.293 167.876Z" fill="#CCCCCC"/>
<path d="M178.035 172.396C178.035 172.396 144.185 160.126 108.355 176.706L108.535 177.866C108.535 177.866 123.045 170.206 143.865 169.256C155.482 168.815 167.093 170.264 178.245 173.546L178.035 172.396Z" fill="#CCCCCC"/>
<path d="M178.764 176.936C178.764 176.936 144.924 164.666 109.094 181.246L109.274 182.416C109.274 182.416 123.784 174.746 144.604 173.796C156.22 173.355 167.832 174.804 178.984 178.086L178.764 176.936Z" fill="#CCCCCC"/>
<path d="M179.504 181.486C179.504 181.486 145.664 169.216 109.824 185.796L110.004 186.956C110.004 186.956 124.524 179.296 145.334 178.346C156.951 177.904 168.562 179.353 179.714 182.636L179.504 181.486Z" fill="#CCCCCC"/>
<path d="M164.312 182.536C151.083 180.816 131.163 180.806 110.562 190.336L110.742 191.506C110.742 191.506 125.252 183.876 146.072 182.876C152.166 182.628 158.27 182.92 164.312 183.746V182.536Z" fill="#CCCCCC"/>
<path d="M180.983 190.566C180.983 190.566 147.183 178.306 111.293 194.876L111.483 196.046C111.483 196.046 125.993 188.386 146.803 187.436C158.42 186.989 170.032 188.438 181.183 191.726L180.983 190.566Z" fill="#CCCCCC"/>
<path d="M181.715 195.116C181.715 195.116 147.875 182.846 112.035 199.426L112.215 200.586C112.215 200.586 126.735 192.926 147.545 191.976C159.162 191.534 170.773 192.983 181.925 196.266L181.715 195.116Z" fill="#CCCCCC"/>
<path d="M182.453 199.656C182.453 199.656 148.603 187.386 112.773 203.966L112.953 205.136C112.953 205.136 127.473 197.476 148.283 196.516C159.901 196.081 171.511 197.533 182.663 200.816L182.453 199.656Z" fill="#CCCCCC"/>
<path d="M183.184 204.606C183.184 204.606 149.324 192.336 113.484 208.876L113.664 210.036C113.664 210.036 128.184 202.376 148.994 201.426C160.611 200.985 172.222 202.434 183.374 205.716L183.184 204.606Z" fill="#CCCCCC"/>
<path fill-rule="evenodd" clip-rule="evenodd" d="M101.585 55.3663C99.505 51.4663 106.495 43.6763 117.205 37.9663C127.915 32.2563 138.275 30.7963 140.355 34.7063C142.435 38.6163 135.445 46.3963 124.735 52.1063C114.025 57.8163 103.665 59.2763 101.585 55.3663ZM103.035 54.5963C104.685 57.7063 114.035 55.9363 123.965 50.6563C133.895 45.3763 140.565 38.5763 138.915 35.4763C137.265 32.3763 127.915 34.1263 117.975 39.4163C108.035 44.7063 101.375 51.4963 103.035 54.5963Z" fill="#F2F2F2"/>
<path fill-rule="evenodd" clip-rule="evenodd" d="M99.9531 38.6358C101.243 34.4058 111.693 33.8358 123.303 37.3758C134.913 40.9158 143.303 47.2058 141.983 51.4358C140.663 55.6658 130.243 56.2358 118.633 52.6958C107.023 49.1558 98.6331 42.8658 99.9531 38.6358ZM101.523 39.1158C100.523 42.4758 108.373 47.8558 119.113 51.1158C129.853 54.3758 139.393 54.3158 140.423 50.9458C141.453 47.5758 133.573 42.2058 122.823 38.9458C112.073 35.6858 102.543 35.7458 101.523 39.1158Z" fill="#F1A024"/>
<path fill-rule="evenodd" clip-rule="evenodd" d="M127.372 24.0262C131.602 25.3062 132.162 35.7662 128.632 47.3662C125.102 58.9662 118.802 67.3662 114.572 66.0462C110.342 64.7262 109.772 54.3062 113.312 42.7062C116.852 31.1062 123.142 22.7062 127.372 24.0262ZM126.892 25.5862C123.522 24.5862 118.142 32.4362 114.892 43.1762C111.642 53.9162 111.702 63.4562 115.062 64.4862C118.422 65.5162 123.812 57.6362 127.062 46.8962C130.312 36.1562 130.262 26.6162 126.892 25.5862Z" fill="#E95553"/>
<path fill-rule="evenodd" clip-rule="evenodd" d="M110.634 25.6462C114.544 23.5662 122.334 30.5662 128.034 41.2662C133.734 51.9662 135.204 62.3361 131.304 64.4161C127.404 66.4961 119.614 59.5061 113.904 48.8061C108.194 38.1061 106.734 27.7362 110.634 25.6462ZM111.404 27.0962C108.304 28.7462 110.064 38.0962 115.344 48.0362C120.624 57.9762 127.434 64.6362 130.534 62.9762C133.634 61.3162 131.874 51.9762 126.594 42.0362C121.314 32.0962 114.514 25.4362 111.404 27.0962Z" fill="#93278F"/>
<path fill-rule="evenodd" clip-rule="evenodd" d="M109.514 23.5462C109.931 23.3279 110.403 23.238 110.871 23.2878C111.338 23.3376 111.781 23.5249 112.142 23.826C112.504 24.1271 112.768 24.5285 112.901 24.9796C113.034 25.4306 113.031 25.9111 112.892 26.3603C112.752 26.8095 112.483 27.2073 112.117 27.5034C111.752 27.7996 111.307 27.9808 110.838 28.0242C110.37 28.0677 109.899 27.9714 109.486 27.7474C109.072 27.5235 108.734 27.1821 108.514 26.7662C108.222 26.2063 108.162 25.5532 108.35 24.9498C108.537 24.3463 108.956 23.8417 109.514 23.5462Z" fill="#93278F"/>
<path fill-rule="evenodd" clip-rule="evenodd" d="M113.104 62.4661C113.52 62.2478 113.992 62.1579 114.46 62.2077C114.928 62.2575 115.37 62.4448 115.732 62.7459C116.093 63.047 116.357 63.4484 116.49 63.8995C116.624 64.3505 116.621 64.831 116.481 65.2802C116.342 65.7294 116.072 66.1272 115.707 66.4234C115.341 66.7195 114.896 66.9007 114.428 66.9442C113.96 66.9876 113.489 66.8913 113.075 66.6674C112.661 66.4434 112.323 66.102 112.104 65.6861C111.957 65.4091 111.867 65.106 111.838 64.7941C111.809 64.4822 111.842 64.1676 111.935 63.8685C112.028 63.5693 112.179 63.2914 112.38 63.0508C112.58 62.8101 112.826 62.6114 113.104 62.4661Z" fill="#E95553"/>
<path fill-rule="evenodd" clip-rule="evenodd" d="M138.264 32.8059C138.681 32.5877 139.153 32.4978 139.62 32.5476C140.088 32.5974 140.53 32.7846 140.892 33.0857C141.253 33.3868 141.517 33.7883 141.651 34.2393C141.784 34.6904 141.781 35.1709 141.641 35.6201C141.502 36.0693 141.232 36.4671 140.867 36.7632C140.501 37.0594 140.056 37.2406 139.588 37.284C139.12 37.3275 138.649 37.2311 138.235 37.0072C137.822 36.7833 137.484 36.4418 137.264 36.0259C137.118 35.749 137.027 35.4458 136.998 35.1339C136.97 34.822 137.002 34.5075 137.095 34.2083C137.188 33.9092 137.339 33.6313 137.54 33.3906C137.74 33.15 137.986 32.9513 138.264 32.8059Z" fill="#F2F2F2"/>
<path fill-rule="evenodd" clip-rule="evenodd" d="M140.865 49.3362C141.282 49.1179 141.754 49.028 142.222 49.0778C142.69 49.1276 143.132 49.3149 143.493 49.616C143.855 49.9171 144.119 50.3185 144.252 50.7696C144.386 51.2207 144.382 51.7011 144.243 52.1503C144.103 52.5995 143.834 52.9973 143.468 53.2935C143.103 53.5896 142.658 53.7709 142.19 53.8143C141.721 53.8577 141.25 53.7614 140.837 53.5375C140.423 53.3136 140.085 52.9721 139.865 52.5562C139.719 52.2792 139.629 51.9761 139.6 51.6642C139.571 51.3523 139.604 51.0377 139.697 50.7386C139.79 50.4394 139.941 50.1616 140.141 49.9209C140.342 49.6803 140.588 49.4816 140.865 49.3362Z" fill="#F1A024"/>
<path d="M236.935 0.642854L234.598 5.2766C234.419 5.63163 234.561 6.06463 234.916 6.24373L235.854 6.71666C236.209 6.89576 236.642 6.75315 236.821 6.39812L239.158 1.76438C239.338 1.40935 239.195 0.976352 238.84 0.797249L237.902 0.324317C237.547 0.145213 237.114 0.287827 236.935 0.642854Z" fill="#001D2E"/>
<path fill-rule="evenodd" clip-rule="evenodd" d="M224.055 51.936C224.147 51.9601 224.243 51.9656 224.337 51.9525C224.431 51.9393 224.522 51.9076 224.604 51.8593C224.686 51.8109 224.757 51.7469 224.814 51.6708C224.871 51.5947 224.912 51.5081 224.935 51.416L236.045 8.69604C236.114 8.39346 236.222 8.10103 236.365 7.82603C236.445 7.72603 236.465 7.62604 236.425 7.59604C236.387 7.48604 236.387 7.36604 236.425 7.25604C236.425 7.10604 236.235 6.91603 235.895 6.82603C235.506 6.71151 235.141 6.52867 234.815 6.28604C234.545 6.06604 234.255 5.98603 234.155 6.10603C234.055 6.22603 233.935 6.31603 233.885 6.30603C233.835 6.29603 233.765 6.37604 233.735 6.48604C233.601 6.76791 233.43 7.0303 233.225 7.26604L205.465 41.596C205.35 41.7441 205.296 41.9316 205.317 42.1184C205.337 42.3053 205.43 42.4767 205.575 42.596L206.635 43.456C206.784 43.5695 206.971 43.6213 207.157 43.6008C207.344 43.5803 207.515 43.4891 207.635 43.346L231.505 13.876C231.755 13.566 231.875 13.626 231.775 14.016L222.185 50.716C222.139 50.9002 222.167 51.0952 222.262 51.2595C222.357 51.4238 222.513 51.5445 222.695 51.596L224.055 51.936Z" fill="#123349"/>
<path fill-rule="evenodd" clip-rule="evenodd" d="M206.473 42.506L207.593 43.386L204.913 45.636L202.223 47.876L203.793 44.746L205.413 41.646L206.473 42.506Z" fill="#50606F"/>
<path fill-rule="evenodd" clip-rule="evenodd" d="M223.583 51.1358L222.213 50.7559L222.003 54.2559L221.793 57.7458L223.373 54.6259L224.913 51.4859L223.583 51.1358Z" fill="#50606F"/>
<path fill-rule="evenodd" clip-rule="evenodd" d="M236.613 8.8762C236.424 9.26089 236.125 9.58092 235.754 9.79591C235.384 10.0109 234.957 10.1112 234.529 10.0842C234.102 10.0572 233.691 9.9041 233.35 9.64418C233.009 9.38426 232.753 9.02918 232.614 8.62376C232.475 8.21834 232.458 7.78073 232.568 7.36616C232.677 6.95159 232.906 6.57863 233.227 6.29434C233.548 6.01005 233.946 5.82717 234.37 5.76877C234.795 5.71037 235.228 5.77907 235.613 5.9662C236.131 6.22033 236.527 6.66925 236.714 7.21466C236.902 7.76007 236.865 8.35752 236.613 8.8762Z" fill="#50606F"/>
<path fill-rule="evenodd" clip-rule="evenodd" d="M235.404 8.24606C235.332 8.38888 235.219 8.50708 235.079 8.58574C234.94 8.6644 234.78 8.7 234.621 8.68805C234.461 8.6761 234.309 8.61713 234.182 8.51859C234.056 8.42004 233.962 8.28632 233.912 8.13434C233.862 7.98236 233.858 7.81891 233.9 7.66463C233.943 7.51035 234.03 7.37215 234.151 7.26749C234.273 7.16282 234.422 7.09639 234.581 7.07655C234.74 7.05672 234.901 7.08439 235.044 7.15607C235.139 7.20383 235.224 7.26995 235.294 7.35065C235.364 7.43134 235.417 7.52501 235.45 7.62628C235.484 7.72756 235.497 7.83445 235.489 7.94081C235.481 8.04717 235.452 8.1509 235.404 8.24606Z" fill="#123349"/>
<path fill-rule="evenodd" clip-rule="evenodd" d="M225.934 49.3761C225.774 49.6938 225.523 49.9568 225.213 50.132C224.904 50.3071 224.549 50.3865 224.194 50.3602C223.839 50.3339 223.5 50.203 223.22 49.984C222.939 49.7651 222.73 49.4679 222.618 49.1301C222.507 48.7923 222.498 48.4289 222.592 48.086C222.687 47.743 222.881 47.4358 223.15 47.2031C223.42 46.9705 223.752 46.8229 224.105 46.7789C224.458 46.735 224.816 46.7966 225.134 46.9561C225.346 47.0623 225.535 47.2091 225.689 47.3883C225.844 47.5674 225.962 47.7754 226.036 48.0002C226.111 48.225 226.14 48.4622 226.122 48.6983C226.105 48.9344 226.041 49.1648 225.934 49.3761Z" fill="#EBF0F2"/>
<path fill-rule="evenodd" clip-rule="evenodd" d="M209.735 41.2059C209.575 41.527 209.324 41.7933 209.012 41.9712C208.701 42.149 208.343 42.2303 207.986 42.2048C207.628 42.1792 207.286 42.048 207.003 41.8277C206.72 41.6074 206.509 41.308 206.396 40.9675C206.284 40.627 206.275 40.2607 206.371 39.9151C206.467 39.5695 206.663 39.2603 206.935 39.0265C207.207 38.7928 207.542 38.6451 207.899 38.6023C208.255 38.5595 208.615 38.6234 208.935 38.7859C209.359 39.0042 209.68 39.38 209.829 39.8325C209.979 40.285 209.945 40.7781 209.735 41.2059Z" fill="#EBF0F2"/>
<path fill-rule="evenodd" clip-rule="evenodd" d="M208.604 40.6358C208.539 40.7684 208.424 40.8698 208.284 40.9176C208.144 40.9654 207.991 40.9558 207.859 40.8908C207.726 40.8258 207.625 40.7108 207.577 40.5711C207.529 40.4314 207.539 40.2784 207.604 40.1458C207.669 40.0132 207.784 39.9118 207.923 39.864C208.063 39.8162 208.216 39.8258 208.349 39.8908C208.481 39.9558 208.583 40.0708 208.63 40.2105C208.678 40.3502 208.669 40.5032 208.604 40.6358Z" fill="#123349"/>
<path fill-rule="evenodd" clip-rule="evenodd" d="M224.804 48.8058C224.74 48.9325 224.628 49.0287 224.493 49.0736C224.359 49.1185 224.212 49.1085 224.084 49.0458C224.02 49.015 223.964 48.9717 223.917 48.9186C223.87 48.8654 223.835 48.8035 223.812 48.7364C223.79 48.6693 223.781 48.5984 223.787 48.5279C223.792 48.4574 223.812 48.3886 223.844 48.3258C223.908 48.1991 224.02 48.1029 224.155 48.058C224.29 48.0131 224.437 48.0231 224.564 48.0858C224.689 48.152 224.784 48.2637 224.828 48.3978C224.873 48.5318 224.864 48.6779 224.804 48.8058Z" fill="#123349"/>
<path fill-rule="evenodd" clip-rule="evenodd" d="M178.525 82.5762L174.275 82.5862L170.035 82.5962L172.575 84.4862L174.285 84.4762H175.985L178.525 82.5762Z" fill="#EEEEEF"/>
<path fill-rule="evenodd" clip-rule="evenodd" d="M187.624 56.336C187.627 54.5693 187.281 52.8195 186.607 51.1866C185.933 49.5536 184.943 48.0697 183.695 46.8195C182.447 45.5694 180.964 44.5776 179.332 43.9009C177.7 43.2243 175.951 42.876 174.184 42.876C170.628 42.8998 167.225 44.3314 164.721 46.8577C162.217 49.384 160.816 52.7992 160.824 56.356C160.824 61.636 165.024 67.356 168.324 71.926C169.764 73.926 169.994 77.766 170.024 79.416C170.019 79.4725 170.019 79.5294 170.024 79.586V81.376C170.024 81.4688 170.043 81.5606 170.078 81.6462C170.114 81.7318 170.167 81.8094 170.233 81.8745C170.299 81.9397 170.377 81.991 170.463 82.0256C170.549 82.0602 170.641 82.0773 170.734 82.076H177.924C178.111 82.0733 178.289 81.9974 178.42 81.8645C178.551 81.7317 178.624 81.5526 178.624 81.366V79.576C178.629 79.5161 178.629 79.4559 178.624 79.396C178.624 77.746 178.854 73.916 180.284 71.916C183.484 67.346 187.644 61.616 187.624 56.336Z" fill="#F5AB15"/>
<path d="M179.743 74.9557L168.793 74.9824L168.812 82.8324L179.762 82.8056L179.743 74.9557Z" fill="#EEEEEF"/>
<path fill-rule="evenodd" clip-rule="evenodd" d="M180.435 77.8758C180.425 78.0836 180.333 78.279 180.179 78.4194C180.026 78.5598 179.823 78.634 179.615 78.6258H168.855C168.647 78.634 168.445 78.5598 168.291 78.4194C168.137 78.279 168.046 78.0836 168.035 77.8758V77.3658C168.046 77.158 168.137 76.9627 168.291 76.8223C168.445 76.6819 168.647 76.6077 168.855 76.6158H179.615C179.823 76.6077 180.026 76.6819 180.179 76.8223C180.333 76.9627 180.425 77.158 180.435 77.3658V77.8758Z" fill="#C8C9CA"/>
<path fill-rule="evenodd" clip-rule="evenodd" d="M180.443 80.1258C180.433 80.3336 180.341 80.529 180.187 80.6694C180.034 80.8098 179.831 80.884 179.623 80.8758H168.863C168.655 80.884 168.452 80.8098 168.299 80.6694C168.145 80.529 168.053 80.3336 168.043 80.1258V79.6158C168.053 79.408 168.145 79.2127 168.299 79.0723C168.452 78.9319 168.655 78.8577 168.863 78.8658H179.623C179.831 78.8601 180.034 78.9349 180.188 79.0746C180.343 79.2142 180.438 79.4081 180.453 79.6158L180.443 80.1258Z" fill="#C8C9CA"/>
<path fill-rule="evenodd" clip-rule="evenodd" d="M180.433 75.5262C180.423 75.734 180.331 75.9294 180.178 76.0698C180.024 76.2102 179.821 76.2844 179.613 76.2762H168.853C168.645 76.2819 168.443 76.2072 168.288 76.0675C168.134 75.9278 168.039 75.734 168.023 75.5262V75.0162C168.034 74.8084 168.126 74.6131 168.279 74.4727C168.433 74.3323 168.636 74.2581 168.843 74.2662H179.603C179.811 74.2581 180.014 74.3323 180.168 74.4727C180.321 74.6131 180.413 74.8084 180.423 75.0162L180.433 75.5262Z" fill="#C8C9CA"/>
<path fill-rule="evenodd" clip-rule="evenodd" d="M175.295 40.5457C175.295 41.6257 174.795 42.5457 174.175 42.5457C173.555 42.5457 173.055 41.6657 173.055 40.5457V37.3857C173.055 36.3057 173.555 35.3857 174.175 35.3857C174.795 35.3857 175.295 36.2657 175.295 37.3857V40.5457Z" fill="#F8BC50"/>
<path fill-rule="evenodd" clip-rule="evenodd" d="M162.973 44.7561C163.733 45.5161 163.973 46.4961 163.573 46.9361C163.173 47.3761 162.163 47.1061 161.393 46.3461L159.183 44.1161C158.413 43.3461 158.183 42.3661 158.573 41.9261C158.963 41.4861 159.993 41.7561 160.763 42.5261L162.973 44.7561Z" fill="#F8BC50"/>
<path fill-rule="evenodd" clip-rule="evenodd" d="M157.232 56.4463C158.322 56.4463 159.232 56.9463 159.232 57.5563C159.232 58.1663 158.352 58.6763 157.232 58.6863H154.082C152.992 58.6863 152.082 58.1963 152.082 57.5763C152.082 56.9563 152.962 56.4563 154.082 56.4563L157.232 56.4463Z" fill="#F8BC50"/>
<path fill-rule="evenodd" clip-rule="evenodd" d="M161.442 68.7663C162.212 67.9963 163.192 67.7663 163.632 68.1563C164.072 68.5463 163.792 69.5763 163.032 70.3463L160.802 72.5863C160.042 73.3563 159.062 73.5863 158.622 73.1963C158.182 72.8063 158.452 71.7763 159.212 71.0063L161.442 68.7663Z" fill="#F8BC50"/>
<path fill-rule="evenodd" clip-rule="evenodd" d="M185.455 70.2858C184.695 69.5258 184.455 68.5458 184.855 68.1058C185.255 67.6658 186.275 67.9358 187.035 68.7058L189.285 70.9358C190.045 71.6958 190.285 72.6758 189.885 73.1158C189.485 73.5558 188.465 73.2858 187.705 72.5258L185.455 70.2858Z" fill="#F8BC50"/>
<path fill-rule="evenodd" clip-rule="evenodd" d="M191.184 58.596C190.104 58.596 189.184 58.106 189.184 57.486C189.184 56.866 190.064 56.366 191.184 56.356H194.354C195.434 56.356 196.354 56.856 196.354 57.466C196.354 58.076 195.464 58.586 194.354 58.596H191.184Z" fill="#F8BC50"/>
<path fill-rule="evenodd" clip-rule="evenodd" d="M186.985 46.2761C186.225 47.0461 185.235 47.2761 184.805 46.8861C184.375 46.4961 184.635 45.4661 185.395 44.6961L187.625 42.4561C188.395 41.6861 189.375 41.4561 189.805 41.8561C190.235 42.2561 189.975 43.2661 189.215 44.0361L186.985 46.2761Z" fill="#F8BC50"/>
<path fill-rule="evenodd" clip-rule="evenodd" d="M167.253 57.5161C167.245 54.4269 168.461 51.4605 170.635 49.2658C172.809 47.0712 175.764 45.8272 178.853 45.806H178.993C177.448 45.0872 175.766 44.7119 174.063 44.7061C170.976 44.7272 168.024 45.9702 165.852 48.1629C163.68 50.3556 162.465 53.3196 162.473 56.4061C162.473 60.9861 166.113 65.9461 168.973 69.9261C169.385 70.5374 169.693 71.2134 169.883 71.9261H174.323C174.181 71.6077 174.01 71.303 173.813 71.0161C170.953 67.0161 167.313 62.0861 167.303 57.5061L167.253 57.5161Z" fill="#F7BE51"/>
<path fill-rule="evenodd" clip-rule="evenodd" d="M180.443 82.4261C180.433 82.6339 180.341 82.8293 180.187 82.9697C180.034 83.1101 179.831 83.1843 179.623 83.1761H168.863C168.655 83.1843 168.452 83.1101 168.299 82.9697C168.145 82.8293 168.053 82.6339 168.043 82.4261V81.9161C168.053 81.7083 168.145 81.513 168.299 81.3726C168.452 81.2322 168.655 81.158 168.863 81.1661H179.623C179.831 81.158 180.034 81.2322 180.187 81.3726C180.341 81.513 180.433 81.7083 180.443 81.9161V82.4261Z" fill="#C8C9CA"/>
<path fill-rule="evenodd" clip-rule="evenodd" d="M59.3622 248.966L180.142 249.566L180.102 261.396L59.3122 260.796L56.9922 254.866L59.3622 248.966Z" fill="#44535B"/>
<path fill-rule="evenodd" clip-rule="evenodd" d="M59.3639 248.966L180.144 249.566L180.124 255.476L55.7539 254.866L59.3639 248.966Z" fill="#38454E"/>
<path fill-rule="evenodd" clip-rule="evenodd" d="M59.3117 260.796L30.5117 254.736L59.2417 248.996C60.2417 249.526 62.1317 250.126 62.1517 251.096C62.2017 252.956 57.7317 252.096 57.7017 254.736C57.6717 257.376 62.2317 256.666 62.2217 258.436C62.2117 260.206 59.3117 260.796 59.3117 260.796Z" fill="#FBD2C0"/>
<path fill-rule="evenodd" clip-rule="evenodd" d="M30.5117 254.736L59.2417 248.996C60.2417 249.526 62.1317 250.126 62.1517 251.096C62.2017 252.956 57.7317 252.096 57.7017 254.736V254.876L30.5117 254.736Z" fill="#DBB4A5"/>
<path fill-rule="evenodd" clip-rule="evenodd" d="M39.2617 256.586L30.5117 254.736L39.2817 252.986L39.2617 256.586Z" fill="#414142"/>
<path d="M331.53 223.085L178.29 227.365C177.39 227.39 176.681 228.14 176.706 229.04L177.573 260.078C177.598 260.978 178.348 261.687 179.248 261.662L332.488 257.381C333.388 257.356 334.097 256.606 334.072 255.707L333.205 224.669C333.179 223.769 332.43 223.06 331.53 223.085Z" fill="#FFCA05"/>
<path fill-rule="evenodd" clip-rule="evenodd" d="M333.442 233.776L334.052 255.776C334.06 256.208 333.898 256.627 333.601 256.941C333.304 257.255 332.895 257.44 332.462 257.456L179.182 261.676C178.751 261.684 178.333 261.522 178.021 261.224C177.708 260.926 177.525 260.517 177.512 260.086L176.902 238.136L333.442 233.776Z" fill="#FFD440"/>
<path d="M179.388 228.183L179.168 228.189L179.31 233.338L179.53 233.331L179.388 228.183Z" fill="#231F20"/>
<path d="M180.407 228.157L180.188 228.163L180.27 231.171L180.49 231.165L180.407 228.157Z" fill="#231F20"/>
<path d="M181.446 228.111L181.227 228.117L181.311 231.126L181.531 231.12L181.446 228.111Z" fill="#231F20"/>
<path d="M182.443 228.09L182.223 228.096L182.306 231.105L182.526 231.099L182.443 228.09Z" fill="#231F20"/>
<path d="M183.493 228.044L183.273 228.05L183.358 231.059L183.578 231.052L183.493 228.044Z" fill="#231F20"/>
<path d="M184.513 228.014L184.293 228.021L184.408 232.129L184.628 232.123L184.513 228.014Z" fill="#231F20"/>
<path d="M185.54 227.996L185.32 228.002L185.405 231.011L185.625 231.005L185.54 227.996Z" fill="#231F20"/>
<path d="M186.54 227.977L186.32 227.983L186.403 230.992L186.623 230.986L186.54 227.977Z" fill="#231F20"/>
<path d="M187.591 227.929L187.371 227.935L187.456 230.944L187.676 230.938L187.591 227.929Z" fill="#231F20"/>
<path d="M188.575 227.921L188.355 227.927L188.438 230.936L188.658 230.93L188.575 227.921Z" fill="#231F20"/>
<path d="M189.595 227.892L189.375 227.898L189.517 233.046L189.737 233.04L189.595 227.892Z" fill="#231F20"/>
<path d="M190.497 227.878L190.277 227.884L190.36 230.893L190.58 230.887L190.497 227.878Z" fill="#231F20"/>
<path d="M191.536 227.828L191.316 227.834L191.401 230.843L191.621 230.837L191.536 227.828Z" fill="#231F20"/>
<path d="M192.564 227.799L192.344 227.805L192.428 230.814L192.648 230.808L192.564 227.799Z" fill="#231F20"/>
<path d="M193.583 227.77L193.363 227.776L193.448 230.785L193.668 230.779L193.583 227.77Z" fill="#231F20"/>
<path d="M194.579 227.755L194.359 227.761L194.473 231.87L194.693 231.864L194.579 227.755Z" fill="#231F20"/>
<path d="M195.599 227.718L195.379 227.724L195.462 230.732L195.682 230.726L195.599 227.718Z" fill="#231F20"/>
<path d="M196.657 227.684L196.438 227.69L196.522 230.699L196.742 230.693L196.657 227.684Z" fill="#231F20"/>
<path d="M197.646 227.671L197.426 227.677L197.509 230.686L197.729 230.68L197.646 227.671Z" fill="#231F20"/>
<path d="M198.685 227.627L198.465 227.633L198.549 230.642L198.769 230.635L198.685 227.627Z" fill="#231F20"/>
<path d="M199.704 227.597L199.484 227.604L199.629 232.751L199.849 232.745L199.704 227.597Z" fill="#231F20"/>
<path d="M200.614 227.573L200.395 227.579L200.479 230.588L200.699 230.582L200.614 227.573Z" fill="#231F20"/>
<path d="M201.603 227.562L201.383 227.568L201.466 230.577L201.686 230.571L201.603 227.562Z" fill="#231F20"/>
<path d="M202.654 227.516L202.434 227.522L202.518 230.531L202.738 230.525L202.654 227.516Z" fill="#231F20"/>
<path d="M203.65 227.506L203.43 227.512L203.513 230.521L203.733 230.515L203.65 227.506Z" fill="#231F20"/>
<path d="M204.669 227.477L204.449 227.483L204.563 231.592L204.782 231.586L204.669 227.477Z" fill="#231F20"/>
<path d="M205.689 227.44L205.469 227.446L205.552 230.455L205.772 230.449L205.689 227.44Z" fill="#231F20"/>
<path d="M206.736 227.391L206.516 227.397L206.6 230.406L206.82 230.4L206.736 227.391Z" fill="#231F20"/>
<path d="M207.736 227.393L207.516 227.399L207.599 230.408L207.819 230.402L207.736 227.393Z" fill="#231F20"/>
<path d="M208.786 227.343L208.566 227.35L208.651 230.358L208.871 230.352L208.786 227.343Z" fill="#231F20"/>
<path d="M209.775 227.336L209.555 227.342L209.697 232.49L209.917 232.484L209.775 227.336Z" fill="#231F20"/>
<path d="M210.673 227.302L210.453 227.308L210.536 230.317L210.756 230.311L210.673 227.302Z" fill="#231F20"/>
<path d="M211.72 227.261L211.5 227.267L211.585 230.276L211.804 230.27L211.72 227.261Z" fill="#231F20"/>
<path d="M212.72 227.256L212.5 227.262L212.583 230.271L212.803 230.265L212.72 227.256Z" fill="#231F20"/>
<path d="M213.771 227.204L213.551 227.21L213.635 230.219L213.855 230.213L213.771 227.204Z" fill="#231F20"/>
<path d="M214.786 227.174L214.566 227.181L214.682 231.289L214.902 231.283L214.786 227.174Z" fill="#231F20"/>
<path d="M215.806 227.146L215.586 227.152L215.671 230.161L215.89 230.155L215.806 227.146Z" fill="#231F20"/>
<path d="M216.794 227.134L216.574 227.14L216.657 230.149L216.877 230.142L216.794 227.134Z" fill="#231F20"/>
<path d="M217.845 227.099L217.625 227.105L217.71 230.114L217.929 230.108L217.845 227.099Z" fill="#231F20"/>
<path d="M218.833 227.087L218.613 227.093L218.696 230.102L218.916 230.096L218.833 227.087Z" fill="#231F20"/>
<path d="M219.892 227.041L219.672 227.047L219.817 232.195L220.036 232.189L219.892 227.041Z" fill="#231F20"/>
<path d="M220.79 227.006L220.57 227.012L220.655 230.021L220.875 230.015L220.79 227.006Z" fill="#231F20"/>
<path d="M221.79 226.996L221.57 227.002L221.653 230.011L221.873 230.005L221.79 226.996Z" fill="#231F20"/>
<path d="M222.837 226.949L222.617 226.955L222.702 229.964L222.922 229.958L222.837 226.949Z" fill="#231F20"/>
<path d="M223.825 226.94L223.605 226.946L223.688 229.955L223.908 229.949L223.825 226.94Z" fill="#231F20"/>
<path d="M224.857 226.911L224.637 226.917L224.75 231.025L224.97 231.019L224.857 226.911Z" fill="#231F20"/>
<path d="M225.876 226.884L225.656 226.89L225.739 229.899L225.959 229.892L225.876 226.884Z" fill="#231F20"/>
<path d="M226.911 226.834L226.691 226.84L226.776 229.849L226.996 229.843L226.911 226.834Z" fill="#231F20"/>
<path d="M227.904 226.827L227.684 226.833L227.767 229.842L227.987 229.836L227.904 226.827Z" fill="#231F20"/>
<path d="M228.95 226.787L228.73 226.793L228.815 229.802L229.035 229.796L228.95 226.787Z" fill="#231F20"/>
<path d="M229.982 226.757L229.762 226.764L229.906 231.912L230.126 231.905L229.982 226.757Z" fill="#231F20"/>
<path d="M230.888 226.723L230.668 226.729L230.753 229.738L230.972 229.732L230.888 226.723Z" fill="#231F20"/>
<path d="M231.876 226.708L231.656 226.714L231.739 229.723L231.959 229.717L231.876 226.708Z" fill="#231F20"/>
<path d="M232.927 226.675L232.707 226.682L232.792 229.69L233.012 229.684L232.927 226.675Z" fill="#231F20"/>
<path d="M233.946 226.647L233.727 226.653L233.811 229.662L234.031 229.655L233.946 226.647Z" fill="#231F20"/>
<path d="M234.974 226.608L234.754 226.614L234.869 230.722L235.089 230.716L234.974 226.608Z" fill="#231F20"/>
<path d="M235.982 226.59L235.762 226.596L235.846 229.605L236.066 229.598L235.982 226.59Z" fill="#231F20"/>
<path d="M236.97 226.577L236.75 226.583L236.833 229.592L237.053 229.586L236.97 226.577Z" fill="#231F20"/>
<path d="M238.021 226.522L237.801 226.528L237.885 229.537L238.105 229.531L238.021 226.522Z" fill="#231F20"/>
<path d="M239.021 226.511L238.801 226.517L238.884 229.526L239.104 229.52L239.021 226.511Z" fill="#231F20"/>
<path d="M240.04 226.492L239.82 226.498L239.962 231.646L240.182 231.64L240.04 226.492Z" fill="#231F20"/>
<path d="M240.946 226.458L240.727 226.464L240.81 229.473L241.029 229.467L240.946 226.458Z" fill="#231F20"/>
<path d="M241.997 226.411L241.777 226.417L241.862 229.426L242.082 229.42L241.997 226.411Z" fill="#231F20"/>
<path d="M242.993 226.402L242.773 226.408L242.856 229.417L243.076 229.411L242.993 226.402Z" fill="#231F20"/>
<path d="M244.032 226.363L243.812 226.37L243.897 229.378L244.117 229.372L244.032 226.363Z" fill="#231F20"/>
<path d="M245.052 226.335L244.832 226.341L244.948 230.449L245.167 230.443L245.052 226.335Z" fill="#231F20"/>
<path d="M246.071 226.306L245.852 226.312L245.936 229.321L246.156 229.315L246.071 226.306Z" fill="#231F20"/>
<path d="M247.071 226.299L246.852 226.305L246.935 229.314L247.154 229.308L247.071 226.299Z" fill="#231F20"/>
<path d="M248.118 226.239L247.898 226.245L247.983 229.254L248.203 229.248L248.118 226.239Z" fill="#231F20"/>
<path d="M249.107 226.233L248.887 226.239L248.97 229.248L249.19 229.242L249.107 226.233Z" fill="#231F20"/>
<path d="M250.157 226.181L249.938 226.187L250.082 231.335L250.302 231.329L250.157 226.181Z" fill="#231F20"/>
<path d="M251.056 226.166L250.836 226.172L250.921 229.181L251.14 229.175L251.056 226.166Z" fill="#231F20"/>
<path d="M252.064 226.152L251.844 226.158L251.927 229.167L252.147 229.161L252.064 226.152Z" fill="#231F20"/>
<path d="M253.103 226.109L252.883 226.115L252.967 229.124L253.187 229.117L253.103 226.109Z" fill="#231F20"/>
<path d="M254.091 226.095L253.871 226.102L253.954 229.11L254.174 229.104L254.091 226.095Z" fill="#231F20"/>
<path d="M255.122 226.077L254.902 226.083L255.016 230.191L255.236 230.185L255.122 226.077Z" fill="#231F20"/>
<path d="M256.138 226.049L255.918 226.055L256.001 229.064L256.221 229.058L256.138 226.049Z" fill="#231F20"/>
<path d="M257.177 225.994L256.957 226L257.042 229.009L257.262 229.003L257.177 225.994Z" fill="#231F20"/>
<path d="M258.177 225.983L257.957 225.989L258.04 228.998L258.26 228.992L258.177 225.983Z" fill="#231F20"/>
<path d="M259.224 225.927L259.004 225.933L259.088 228.942L259.308 228.936L259.224 225.927Z" fill="#231F20"/>
<path d="M260.216 225.926L259.996 225.932L260.138 231.08L260.358 231.074L260.216 225.926Z" fill="#231F20"/>
<path d="M261.114 225.912L260.895 225.918L260.978 228.927L261.197 228.921L261.114 225.912Z" fill="#231F20"/>
<path d="M262.161 225.854L261.941 225.86L262.026 228.869L262.246 228.863L262.161 225.854Z" fill="#231F20"/>
<path d="M263.161 225.845L262.941 225.852L263.024 228.86L263.244 228.854L263.161 225.845Z" fill="#231F20"/>
<path d="M264.208 225.797L263.988 225.803L264.073 228.812L264.293 228.805L264.208 225.797Z" fill="#231F20"/>
<path d="M265.228 225.757L265.008 225.764L265.123 229.872L265.343 229.866L265.228 225.757Z" fill="#231F20"/>
<path d="M266.247 225.75L266.027 225.756L266.112 228.765L266.332 228.758L266.247 225.75Z" fill="#231F20"/>
<path d="M267.247 225.733L267.027 225.739L267.11 228.748L267.33 228.742L267.247 225.733Z" fill="#231F20"/>
<path d="M268.294 225.682L268.074 225.688L268.159 228.697L268.379 228.691L268.294 225.682Z" fill="#231F20"/>
<path d="M269.294 225.677L269.074 225.683L269.157 228.691L269.377 228.685L269.294 225.677Z" fill="#231F20"/>
<path d="M270.302 225.648L270.082 225.654L270.224 230.802L270.444 230.796L270.302 225.648Z" fill="#231F20"/>
<path d="M271.212 225.624L270.992 225.63L271.075 228.639L271.295 228.633L271.212 225.624Z" fill="#231F20"/>
<path d="M272.251 225.571L272.031 225.577L272.116 228.586L272.336 228.58L272.251 225.571Z" fill="#231F20"/>
<path d="M273.251 225.568L273.031 225.574L273.114 228.583L273.334 228.577L273.251 225.568Z" fill="#231F20"/>
<path d="M274.298 225.513L274.078 225.52L274.163 228.528L274.383 228.522L274.298 225.513Z" fill="#231F20"/>
<path d="M275.286 225.511L275.066 225.517L275.18 229.625L275.4 229.619L275.286 225.511Z" fill="#231F20"/>
<path d="M276.318 225.483L276.098 225.489L276.181 228.498L276.401 228.492L276.318 225.483Z" fill="#231F20"/>
<path d="M277.364 225.427L277.145 225.434L277.229 228.442L277.449 228.436L277.364 225.427Z" fill="#231F20"/>
<path d="M278.364 225.427L278.145 225.433L278.228 228.441L278.447 228.435L278.364 225.427Z" fill="#231F20"/>
<path d="M279.4 225.37L279.18 225.376L279.264 228.385L279.484 228.379L279.4 225.37Z" fill="#231F20"/>
<path d="M280.419 225.351L280.199 225.357L280.344 230.505L280.564 230.499L280.419 225.351Z" fill="#231F20"/>
<path d="M281.318 225.326L281.098 225.332L281.182 228.341L281.402 228.335L281.318 225.326Z" fill="#231F20"/>
<path d="M282.321 225.318L282.102 225.324L282.185 228.333L282.404 228.327L282.321 225.318Z" fill="#231F20"/>
<path d="M283.357 225.269L283.137 225.275L283.221 228.284L283.441 228.278L283.357 225.269Z" fill="#231F20"/>
<path d="M284.357 225.251L284.137 225.257L284.22 228.266L284.44 228.26L284.357 225.251Z" fill="#231F20"/>
<path d="M285.376 225.233L285.156 225.239L285.27 229.347L285.489 229.341L285.376 225.233Z" fill="#231F20"/>
<path d="M286.415 225.195L286.195 225.201L286.278 228.21L286.498 228.203L286.415 225.195Z" fill="#231F20"/>
<path d="M287.45 225.154L287.23 225.16L287.315 228.169L287.535 228.163L287.45 225.154Z" fill="#231F20"/>
<path d="M288.443 225.149L288.223 225.155L288.306 228.164L288.526 228.158L288.443 225.149Z" fill="#231F20"/>
<path d="M289.489 225.097L289.27 225.103L289.354 228.112L289.574 228.106L289.489 225.097Z" fill="#231F20"/>
<path d="M290.489 225.092L290.27 225.098L290.412 230.246L290.631 230.24L290.489 225.092Z" fill="#231F20"/>
<path d="M291.388 225.068L291.168 225.074L291.251 228.083L291.471 228.077L291.388 225.068Z" fill="#231F20"/>
<path d="M292.427 225.014L292.207 225.021L292.292 228.029L292.512 228.023L292.427 225.014Z" fill="#231F20"/>
<path d="M293.427 225.001L293.207 225.007L293.29 228.016L293.51 228.01L293.427 225.001Z" fill="#231F20"/>
<path d="M294.474 224.947L294.254 224.953L294.338 227.962L294.558 227.956L294.474 224.947Z" fill="#231F20"/>
<path d="M295.493 224.927L295.273 224.934L295.389 229.042L295.609 229.036L295.493 224.927Z" fill="#231F20"/>
<path d="M296.521 224.889L296.301 224.896L296.385 227.904L296.605 227.898L296.521 224.889Z" fill="#231F20"/>
<path d="M297.513 224.888L297.293 224.895L297.376 227.903L297.596 227.897L297.513 224.888Z" fill="#231F20"/>
<path d="M298.568 224.842L298.348 224.848L298.432 227.857L298.652 227.851L298.568 224.842Z" fill="#231F20"/>
<path d="M299.56 224.843L299.34 224.849L299.423 227.857L299.643 227.851L299.56 224.843Z" fill="#231F20"/>
<path d="M300.595 224.784L300.375 224.79L300.52 229.938L300.74 229.932L300.595 224.784Z" fill="#231F20"/>
<path d="M301.497 224.759L301.277 224.766L301.362 227.774L301.582 227.768L301.497 224.759Z" fill="#231F20"/>
<path d="M302.497 224.762L302.277 224.768L302.36 227.776L302.58 227.77L302.497 224.762Z" fill="#231F20"/>
<path d="M303.544 224.702L303.324 224.708L303.409 227.717L303.629 227.711L303.544 224.702Z" fill="#231F20"/>
<path d="M304.544 224.695L304.324 224.701L304.407 227.71L304.627 227.704L304.544 224.695Z" fill="#231F20"/>
<path d="M305.564 224.666L305.344 224.672L305.457 228.781L305.677 228.775L305.564 224.666Z" fill="#231F20"/>
<path d="M306.583 224.639L306.363 224.645L306.446 227.654L306.666 227.648L306.583 224.639Z" fill="#231F20"/>
<path d="M307.626 224.587L307.406 224.593L307.491 227.602L307.711 227.596L307.626 224.587Z" fill="#231F20"/>
<path d="M308.63 224.582L308.41 224.588L308.493 227.597L308.713 227.591L308.63 224.582Z" fill="#231F20"/>
<path d="M309.665 224.53L309.445 224.536L309.53 227.545L309.75 227.539L309.665 224.53Z" fill="#231F20"/>
<path d="M310.693 224.501L310.473 224.507L310.617 229.655L310.837 229.649L310.693 224.501Z" fill="#231F20"/>
<path d="M311.595 224.476L311.375 224.482L311.46 227.491L311.679 227.485L311.595 224.476Z" fill="#231F20"/>
<path d="M312.595 224.463L312.375 224.469L312.458 227.478L312.678 227.472L312.595 224.463Z" fill="#231F20"/>
<path d="M313.63 224.419L313.41 224.425L313.495 227.434L313.715 227.427L313.63 224.419Z" fill="#231F20"/>
<path d="M314.634 224.417L314.414 224.423L314.497 227.432L314.717 227.426L314.634 224.417Z" fill="#231F20"/>
<path d="M315.677 224.361L315.457 224.367L315.573 228.476L315.792 228.469L315.677 224.361Z" fill="#231F20"/>
<path d="M316.689 224.333L316.469 224.339L316.553 227.348L316.773 227.342L316.689 224.333Z" fill="#231F20"/>
<path d="M317.689 224.333L317.469 224.339L317.552 227.348L317.772 227.342L317.689 224.333Z" fill="#231F20"/>
<path d="M318.736 224.275L318.516 224.281L318.6 227.29L318.82 227.284L318.736 224.275Z" fill="#231F20"/>
<path d="M319.736 224.276L319.516 224.282L319.599 227.291L319.819 227.285L319.736 224.276Z" fill="#231F20"/>
<path d="M320.767 224.247L320.547 224.253L320.689 229.401L320.909 229.395L320.767 224.247Z" fill="#231F20"/>
<path d="M321.665 224.213L321.445 224.219L321.528 227.228L321.748 227.222L321.665 224.213Z" fill="#231F20"/>
<path d="M322.7 224.164L322.48 224.17L322.565 227.179L322.785 227.173L322.7 224.164Z" fill="#231F20"/>
<path d="M323.7 224.157L323.48 224.163L323.563 227.172L323.783 227.166L323.7 224.157Z" fill="#231F20"/>
<path d="M324.747 224.107L324.527 224.113L324.612 227.122L324.832 227.115L324.747 224.107Z" fill="#231F20"/>
<path d="M325.767 224.077L325.547 224.083L325.662 228.192L325.882 228.186L325.767 224.077Z" fill="#231F20"/>
<path d="M326.775 224.059L326.555 224.065L326.639 227.074L326.859 227.068L326.775 224.059Z" fill="#231F20"/>
<path d="M327.779 224.054L327.559 224.061L327.642 227.069L327.862 227.063L327.779 224.054Z" fill="#231F20"/>
<path d="M328.821 223.992L328.602 223.998L328.686 227.007L328.906 227.001L328.821 223.992Z" fill="#231F20"/>
<path d="M329.825 223.988L329.605 223.994L329.688 227.003L329.908 226.997L329.825 223.988Z" fill="#231F20"/>
<path d="M330.872 223.944L330.652 223.95L330.797 229.098L331.017 229.092L330.872 223.944Z" fill="#231F20"/>
<path d="M180.236 235.926C180.241 236.085 180.184 236.239 180.076 236.356C179.965 236.47 179.815 236.538 179.656 236.546C179.576 236.549 179.497 236.536 179.423 236.506C179.349 236.477 179.281 236.433 179.226 236.376C179.165 236.324 179.117 236.259 179.085 236.187C179.052 236.114 179.035 236.035 179.036 235.956V234.586C179.032 234.506 179.046 234.427 179.075 234.353C179.104 234.279 179.149 234.212 179.206 234.156C179.261 234.099 179.327 234.053 179.4 234.022C179.473 233.991 179.551 233.975 179.631 233.975C179.71 233.975 179.789 233.991 179.862 234.022C179.935 234.053 180.001 234.099 180.056 234.156C180.115 234.208 180.161 234.273 180.192 234.346C180.223 234.418 180.238 234.497 180.236 234.576V235.926ZM179.806 234.556C179.805 234.527 179.798 234.499 179.786 234.474C179.774 234.448 179.757 234.425 179.736 234.406C179.692 234.366 179.635 234.345 179.576 234.346C179.547 234.345 179.518 234.35 179.492 234.363C179.466 234.375 179.443 234.393 179.426 234.416C179.406 234.435 179.39 234.459 179.38 234.485C179.369 234.51 179.365 234.538 179.366 234.566V235.946C179.367 235.974 179.373 236.002 179.385 236.028C179.397 236.054 179.414 236.077 179.436 236.096C179.455 236.116 179.478 236.131 179.504 236.142C179.53 236.152 179.558 236.157 179.586 236.156C179.616 236.157 179.646 236.151 179.674 236.139C179.701 236.127 179.726 236.109 179.746 236.086C179.766 236.066 179.781 236.043 179.791 236.017C179.802 235.991 179.807 235.964 179.806 235.936V234.556Z" fill="#231F20"/>
<path d="M189.825 236.226L189.765 234.296H189.445V234.026C189.54 234.013 189.63 233.975 189.705 233.916C189.781 233.864 189.84 233.791 189.875 233.706H190.135L190.205 236.216L189.825 236.226Z" fill="#231F20"/>
<path d="M199.273 234.156C199.263 234.057 199.274 233.956 199.305 233.862C199.336 233.767 199.386 233.68 199.453 233.606C199.568 233.493 199.722 233.429 199.883 233.426C199.964 233.424 200.043 233.44 200.117 233.471C200.191 233.502 200.258 233.548 200.313 233.606C200.43 233.719 200.498 233.873 200.503 234.036C200.505 234.208 200.471 234.378 200.403 234.536C200.318 234.694 200.225 234.848 200.123 234.996L199.943 235.276L199.883 235.386C199.844 235.435 199.81 235.489 199.783 235.546H200.523V235.916H199.313V235.566L199.393 235.426L199.483 235.296L199.573 235.146L199.833 234.766C199.931 234.624 200.015 234.474 200.083 234.316C200.122 234.217 200.142 234.112 200.143 234.006C200.145 233.971 200.14 233.936 200.128 233.904C200.116 233.871 200.097 233.841 200.073 233.816C200.052 233.789 200.024 233.768 199.993 233.755C199.962 233.741 199.927 233.734 199.893 233.736C199.783 233.736 199.713 233.806 199.673 233.926C199.668 233.972 199.668 234.019 199.673 234.066V234.166H199.293L199.273 234.156Z" fill="#231F20"/>
<path d="M209.992 235.306C210.162 235.306 210.252 235.216 210.242 235.056V234.876C210.246 234.822 210.238 234.767 210.217 234.717C210.197 234.667 210.165 234.622 210.124 234.586C210.084 234.55 210.035 234.524 209.983 234.51C209.93 234.496 209.875 234.495 209.822 234.506V234.176C209.882 234.182 209.942 234.173 209.998 234.15C210.054 234.128 210.103 234.092 210.142 234.046C210.207 233.956 210.239 233.846 210.232 233.736V233.676C210.232 233.516 210.152 233.436 210.002 233.436C209.967 233.435 209.933 233.444 209.903 233.462C209.873 233.48 209.848 233.505 209.832 233.536C209.816 233.595 209.816 233.657 209.832 233.716V233.786H209.462V233.726C209.453 233.569 209.499 233.413 209.592 233.286C209.643 233.22 209.708 233.167 209.782 233.131C209.857 233.094 209.939 233.075 210.022 233.076C210.102 233.072 210.181 233.085 210.255 233.114C210.329 233.144 210.396 233.189 210.452 233.246C210.552 233.355 210.606 233.498 210.602 233.646V233.756C210.606 233.903 210.56 234.048 210.472 234.166C210.43 234.214 210.383 234.258 210.332 234.296C210.449 234.353 210.544 234.448 210.602 234.566C210.635 234.642 210.652 234.723 210.652 234.806V235.006C210.66 235.091 210.648 235.177 210.616 235.257C210.585 235.337 210.536 235.409 210.472 235.466C210.358 235.582 210.204 235.65 210.042 235.656C209.962 235.659 209.883 235.646 209.809 235.616C209.735 235.587 209.668 235.543 209.612 235.486C209.555 235.433 209.509 235.37 209.476 235.3C209.443 235.229 209.425 235.153 209.422 235.076V235.006H209.782V235.096C209.786 235.156 209.811 235.212 209.852 235.256C209.892 235.286 209.941 235.304 209.992 235.306Z" fill="#231F20"/>
<path d="M219.445 234.476L220.065 232.866H220.445L220.495 234.456H220.735V234.876H220.495V235.416H220.185V234.876H219.515L219.445 234.476ZM220.115 234.476V233.686L219.825 234.476H220.115Z" fill="#231F20"/>
<path d="M229.974 232.976V233.516C230.004 233.468 230.045 233.429 230.094 233.401C230.143 233.373 230.198 233.357 230.254 233.356C230.326 233.35 230.397 233.362 230.462 233.392C230.527 233.422 230.583 233.468 230.624 233.526C230.703 233.652 230.744 233.798 230.744 233.946V234.486C230.751 234.57 230.741 234.654 230.713 234.733C230.686 234.812 230.642 234.885 230.584 234.946C230.531 235.004 230.466 235.051 230.394 235.084C230.322 235.116 230.244 235.134 230.164 235.136C230.086 235.14 230.008 235.127 229.936 235.097C229.863 235.068 229.798 235.023 229.744 234.966C229.689 234.911 229.645 234.846 229.616 234.774C229.587 234.701 229.573 234.624 229.574 234.546V234.486H229.934V234.576C229.933 234.619 229.945 234.661 229.968 234.696C229.991 234.732 230.025 234.76 230.064 234.776H230.184C230.334 234.776 230.414 234.686 230.404 234.526V233.916C230.406 233.882 230.4 233.848 230.386 233.817C230.372 233.785 230.351 233.758 230.324 233.736C230.307 233.729 230.288 233.725 230.269 233.725C230.25 233.725 230.232 233.729 230.214 233.736C230.184 233.736 230.153 233.744 230.127 233.76C230.1 233.776 230.079 233.799 230.064 233.826C230.054 233.872 230.054 233.92 230.064 233.966V234.036H229.684V232.666H230.794V233.046L229.974 232.976Z" fill="#231F20"/>
<path d="M240.413 232.926V232.876C240.413 232.822 240.395 232.77 240.363 232.726C240.349 232.703 240.328 232.684 240.302 232.674C240.277 232.663 240.249 232.66 240.223 232.666C240.196 232.665 240.17 232.669 240.146 232.68C240.121 232.69 240.1 232.706 240.083 232.726C240.068 232.779 240.068 232.834 240.083 232.886V233.386C240.119 233.349 240.162 233.318 240.21 233.298C240.259 233.277 240.31 233.267 240.363 233.266C240.434 233.258 240.507 233.268 240.574 233.296C240.64 233.324 240.698 233.369 240.743 233.426C240.829 233.549 240.871 233.697 240.863 233.846V234.276C240.865 234.352 240.852 234.427 240.825 234.498C240.797 234.568 240.756 234.632 240.703 234.686C240.654 234.741 240.594 234.785 240.526 234.814C240.459 234.843 240.386 234.858 240.313 234.856C240.235 234.862 240.157 234.851 240.085 234.823C240.012 234.795 239.947 234.752 239.893 234.696C239.785 234.583 239.724 234.433 239.723 234.276V232.906C239.722 232.788 239.749 232.672 239.803 232.566C239.861 232.468 239.948 232.391 240.053 232.346C240.123 232.306 240.202 232.286 240.283 232.286C240.361 232.284 240.438 232.299 240.51 232.328C240.583 232.357 240.648 232.401 240.703 232.456C240.81 232.57 240.871 232.72 240.873 232.876L240.413 232.926ZM240.073 234.246C240.07 234.304 240.088 234.36 240.123 234.406C240.142 234.426 240.166 234.442 240.191 234.452C240.217 234.462 240.245 234.467 240.273 234.466C240.3 234.465 240.326 234.458 240.35 234.446C240.374 234.434 240.396 234.417 240.413 234.396C240.429 234.344 240.429 234.288 240.413 234.236V233.776C240.41 233.742 240.401 233.708 240.386 233.677C240.37 233.646 240.349 233.619 240.323 233.596C240.287 233.585 240.248 233.585 240.213 233.596C240.184 233.596 240.156 233.603 240.132 233.617C240.107 233.631 240.087 233.652 240.073 233.676C240.058 233.722 240.058 233.771 240.073 233.816V234.246Z" fill="#231F20"/>
<path d="M250.882 232.006V232.386L250.412 234.536H250.032L250.512 232.386H249.742V232.006H250.882Z" fill="#231F20"/>
<path d="M261.073 233.676C261.075 233.756 261.061 233.835 261.032 233.908C261.002 233.982 260.958 234.05 260.903 234.106C260.848 234.163 260.783 234.208 260.711 234.239C260.639 234.27 260.561 234.286 260.483 234.286C260.404 234.291 260.325 234.28 260.251 234.252C260.176 234.225 260.109 234.182 260.053 234.126C259.996 234.072 259.95 234.007 259.92 233.935C259.889 233.862 259.873 233.785 259.873 233.706V233.476C259.864 233.326 259.914 233.179 260.013 233.066C260.058 233.02 260.108 232.98 260.163 232.946C260.057 232.888 259.972 232.796 259.923 232.686C259.889 232.614 259.871 232.536 259.873 232.456V232.316C259.862 232.168 259.908 232.021 260.003 231.906C260.053 231.844 260.118 231.795 260.19 231.762C260.263 231.729 260.343 231.713 260.423 231.716C260.503 231.709 260.583 231.72 260.658 231.75C260.733 231.779 260.799 231.826 260.853 231.886C260.954 231.995 261.011 232.138 261.013 232.286V232.416C261.024 232.561 260.977 232.705 260.883 232.816C260.844 232.858 260.8 232.895 260.753 232.926C260.868 232.991 260.962 233.088 261.023 233.206C261.057 233.281 261.075 233.363 261.073 233.446V233.676ZM260.683 233.506C260.689 233.451 260.683 233.395 260.664 233.343C260.645 233.291 260.613 233.244 260.573 233.206C260.531 233.19 260.484 233.19 260.443 233.206C260.399 233.202 260.356 233.212 260.32 233.236C260.283 233.259 260.256 233.295 260.243 233.336C260.23 233.406 260.23 233.477 260.243 233.546V233.666C260.246 233.74 260.274 233.81 260.323 233.866C260.37 233.907 260.43 233.928 260.493 233.926C260.539 233.923 260.584 233.906 260.622 233.878C260.659 233.849 260.687 233.81 260.703 233.766C260.708 233.73 260.708 233.693 260.703 233.656L260.683 233.506ZM260.683 232.396C260.683 232.226 260.623 232.116 260.513 232.076H260.433C260.403 232.074 260.374 232.079 260.346 232.089C260.319 232.099 260.294 232.115 260.273 232.136C260.254 232.149 260.238 232.165 260.226 232.184C260.214 232.203 260.206 232.224 260.203 232.246C260.192 232.302 260.192 232.36 260.203 232.416C260.195 232.501 260.216 232.585 260.263 232.656C260.285 232.687 260.314 232.712 260.348 232.73C260.382 232.747 260.42 232.756 260.458 232.756C260.496 232.756 260.533 232.747 260.567 232.73C260.601 232.712 260.63 232.687 260.653 232.656C260.685 232.573 260.688 232.481 260.663 232.396H260.683Z" fill="#231F20"/>
<path d="M270.492 231.436C270.569 231.431 270.646 231.444 270.717 231.473C270.788 231.503 270.852 231.548 270.902 231.606C270.957 231.66 271 231.724 271.029 231.794C271.058 231.864 271.073 231.94 271.072 232.016V233.386C271.079 233.466 271.069 233.546 271.043 233.622C271.017 233.698 270.976 233.767 270.922 233.826C270.871 233.882 270.81 233.927 270.741 233.958C270.672 233.989 270.598 234.005 270.522 234.006C270.397 234.006 270.276 233.96 270.182 233.876C270.128 233.823 270.085 233.759 270.056 233.688C270.026 233.618 270.012 233.542 270.012 233.466V233.406H270.402V233.466C270.4 233.496 270.405 233.525 270.415 233.553C270.426 233.58 270.442 233.605 270.462 233.626C270.479 233.646 270.501 233.662 270.525 233.673C270.549 233.683 270.576 233.688 270.602 233.686C270.627 233.684 270.652 233.676 270.674 233.664C270.697 233.652 270.716 233.636 270.732 233.616C270.769 233.572 270.787 233.514 270.782 233.456V232.876C270.702 232.949 270.6 232.995 270.492 233.006C270.42 233.011 270.347 232.999 270.281 232.969C270.215 232.939 270.157 232.894 270.112 232.836C270.034 232.71 269.992 232.565 269.992 232.416V231.986C269.991 231.873 270.022 231.762 270.082 231.666C270.142 231.576 270.225 231.504 270.322 231.456C270.378 231.441 270.435 231.435 270.492 231.436ZM270.702 232.036C270.718 231.984 270.718 231.928 270.702 231.876C270.685 231.857 270.663 231.841 270.639 231.831C270.615 231.82 270.589 231.815 270.562 231.816C270.508 231.821 270.458 231.846 270.422 231.886C270.39 231.933 270.372 231.989 270.372 232.046V232.506C270.371 232.54 270.377 232.574 270.391 232.606C270.405 232.637 270.426 232.664 270.452 232.686C270.469 232.696 270.488 232.701 270.507 232.701C270.527 232.701 270.546 232.696 270.562 232.686C270.662 232.686 270.712 232.686 270.742 232.536V232.006L270.702 232.036Z" fill="#231F20"/>
<path d="M279.853 233.726L279.803 231.786H279.473V231.516C279.564 231.503 279.651 231.465 279.723 231.406C279.798 231.351 279.86 231.279 279.903 231.196H280.183L280.253 233.716L279.853 233.726Z" fill="#231F20"/>
<path d="M281.752 233.096C281.755 233.176 281.742 233.255 281.713 233.329C281.683 233.403 281.639 233.47 281.582 233.526C281.529 233.583 281.466 233.629 281.396 233.662C281.326 233.695 281.249 233.713 281.172 233.716C281.091 233.719 281.01 233.705 280.935 233.676C280.859 233.647 280.79 233.603 280.732 233.546C280.673 233.494 280.626 233.429 280.595 233.356C280.564 233.284 280.549 233.205 280.552 233.126V231.756C280.547 231.677 280.558 231.598 280.586 231.524C280.614 231.45 280.656 231.383 280.712 231.326C280.823 231.212 280.973 231.144 281.132 231.136C281.212 231.133 281.291 231.146 281.365 231.176C281.439 231.205 281.506 231.249 281.562 231.306C281.622 231.358 281.67 231.423 281.703 231.495C281.736 231.568 281.753 231.647 281.752 231.726V233.096ZM281.322 231.726C281.321 231.698 281.314 231.67 281.302 231.644C281.29 231.618 281.273 231.595 281.252 231.576C281.207 231.538 281.151 231.517 281.092 231.516C281.063 231.515 281.035 231.521 281.008 231.533C280.982 231.545 280.96 231.563 280.942 231.586C280.922 231.606 280.907 231.629 280.896 231.655C280.886 231.681 280.881 231.708 280.882 231.736V233.116C280.881 233.145 280.887 233.174 280.899 233.2C280.911 233.226 280.929 233.249 280.952 233.266C280.971 233.286 280.995 233.302 281.021 233.312C281.047 233.322 281.074 233.327 281.102 233.326C281.162 233.322 281.218 233.297 281.262 233.256C281.302 233.213 281.323 233.155 281.322 233.096V231.726Z" fill="#231F20"/>
<path d="M290.185 233.436V231.496H289.855V231.236C289.948 231.219 290.034 231.178 290.105 231.116C290.181 231.064 290.24 230.991 290.275 230.906H290.545L290.615 233.426L290.185 233.436Z" fill="#231F20"/>
<path d="M291.183 233.406V231.466H290.863V231.206C290.956 231.187 291.045 231.149 291.123 231.096C291.196 231.037 291.255 230.962 291.293 230.876H291.553L291.623 233.396L291.183 233.406Z" fill="#231F20"/>
<path d="M300.025 233.156V231.226H299.695V230.956C299.787 230.943 299.874 230.905 299.945 230.846C300.024 230.79 300.086 230.714 300.125 230.626H300.385L300.455 233.136L300.025 233.156Z" fill="#231F20"/>
<path d="M300.672 231.336C300.662 231.237 300.671 231.138 300.701 231.043C300.73 230.949 300.778 230.861 300.842 230.786C300.898 230.726 300.966 230.679 301.042 230.648C301.118 230.617 301.2 230.602 301.282 230.606C301.362 230.601 301.442 230.614 301.516 230.643C301.59 230.673 301.657 230.718 301.712 230.776C301.769 230.832 301.815 230.899 301.845 230.973C301.876 231.047 301.892 231.126 301.892 231.206C301.902 231.378 301.868 231.551 301.792 231.706C301.716 231.87 301.626 232.028 301.522 232.176L301.342 232.456L301.272 232.556L301.182 232.716H301.932V233.086H300.722V232.736L300.802 232.596L300.882 232.466L300.982 232.326L301.242 231.936C301.338 231.793 301.422 231.643 301.492 231.486C301.529 231.39 301.549 231.289 301.552 231.186C301.55 231.114 301.525 231.044 301.482 230.986C301.459 230.961 301.431 230.941 301.4 230.927C301.369 230.914 301.336 230.906 301.302 230.906C301.25 230.909 301.2 230.929 301.16 230.964C301.12 230.998 301.093 231.045 301.082 231.096C301.071 231.145 301.071 231.196 301.082 231.246V231.336H300.712H300.672Z" fill="#231F20"/>
<path d="M310.122 232.876L310.072 230.946H309.742V230.676C309.834 230.663 309.92 230.625 309.992 230.566C310.07 230.512 310.13 230.435 310.162 230.346H310.432L310.502 232.856L310.122 232.876Z" fill="#231F20"/>
<path d="M311.384 232.486C311.554 232.486 311.644 232.396 311.634 232.236V232.086C311.638 232.032 311.629 231.977 311.609 231.926C311.589 231.876 311.557 231.831 311.517 231.794C311.476 231.757 311.428 231.73 311.376 231.715C311.323 231.7 311.268 231.697 311.214 231.706V231.386C311.274 231.388 311.333 231.378 311.388 231.355C311.443 231.333 311.493 231.299 311.534 231.256C311.571 231.212 311.598 231.161 311.613 231.106C311.629 231.05 311.632 230.993 311.624 230.936V230.876C311.624 230.706 311.544 230.626 311.404 230.636C311.369 230.634 311.334 230.641 311.302 230.657C311.27 230.673 311.244 230.697 311.224 230.726C311.207 230.788 311.207 230.854 311.224 230.916V230.976H310.854V230.916C310.839 230.76 310.882 230.603 310.974 230.476C311.029 230.417 311.096 230.371 311.17 230.339C311.244 230.307 311.324 230.29 311.404 230.29C311.485 230.29 311.565 230.307 311.638 230.339C311.712 230.371 311.779 230.417 311.834 230.476C311.935 230.585 311.992 230.728 311.994 230.876V230.976C312 231.124 311.954 231.269 311.864 231.386C311.825 231.437 311.778 231.481 311.724 231.516C311.844 231.575 311.94 231.674 311.994 231.796C312.037 231.868 312.058 231.952 312.054 232.036V232.236C312.061 232.32 312.049 232.405 312.019 232.485C311.99 232.564 311.944 232.636 311.884 232.696C311.827 232.754 311.758 232.801 311.683 232.832C311.607 232.862 311.526 232.878 311.444 232.876C311.365 232.881 311.286 232.87 311.212 232.842C311.138 232.815 311.071 232.772 311.014 232.716C310.9 232.605 310.832 232.455 310.824 232.296V232.236H311.184V232.326C311.187 232.355 311.195 232.383 311.209 232.409C311.223 232.435 311.242 232.458 311.264 232.476C311.302 232.492 311.344 232.495 311.384 232.486Z" fill="#231F20"/>
<path d="M320.185 232.596L320.125 230.666H319.805V230.406C319.9 230.393 319.989 230.355 320.065 230.296C320.143 230.242 320.202 230.165 320.235 230.076H320.505L320.575 232.586L320.185 232.596Z" fill="#231F20"/>
<path d="M320.832 231.656L321.462 230.046H321.842V231.636H322.182V232.016H321.932V232.556H321.552V232.016H320.882L320.832 231.656ZM321.502 231.656V230.866L321.212 231.666L321.502 231.656Z" fill="#231F20"/>
<path d="M330.325 232.316L330.265 230.376H329.945V230.116C330.039 230.099 330.128 230.061 330.205 230.006C330.281 229.95 330.34 229.874 330.375 229.786H330.645L330.715 232.306L330.325 232.316Z" fill="#231F20"/>
<path d="M331.373 230.146V230.686C331.414 230.63 331.469 230.585 331.533 230.556H331.653C331.723 230.547 331.794 230.558 331.859 230.586C331.924 230.614 331.981 230.659 332.023 230.716C332.101 230.842 332.142 230.987 332.143 231.136V231.686C332.148 231.769 332.137 231.853 332.11 231.932C332.082 232.011 332.039 232.084 331.983 232.146C331.93 232.205 331.865 232.251 331.793 232.283C331.72 232.314 331.642 232.328 331.563 232.326C331.484 232.332 331.406 232.32 331.333 232.29C331.26 232.261 331.195 232.215 331.143 232.156C331.036 232.045 330.976 231.899 330.973 231.746V231.686H331.333V231.766C331.334 231.808 331.347 231.849 331.37 231.884C331.393 231.919 331.425 231.948 331.463 231.966H331.533C331.565 231.968 331.597 231.963 331.627 231.95C331.656 231.938 331.683 231.919 331.704 231.895C331.725 231.871 331.741 231.842 331.749 231.811C331.758 231.78 331.759 231.747 331.753 231.716V231.096C331.752 231.061 331.744 231.027 331.728 230.996C331.713 230.964 331.69 230.937 331.663 230.916C331.643 230.903 331.621 230.894 331.598 230.889C331.574 230.884 331.551 230.884 331.527 230.889C331.504 230.894 331.482 230.903 331.462 230.916C331.443 230.929 331.426 230.946 331.413 230.966C331.399 231.015 331.399 231.067 331.413 231.116V231.176H331.033V229.796H332.143V230.176L331.373 230.146Z" fill="#231F20"/>
<path d="M324.912 251.436L330.332 247.966L348.502 255.446L330.072 262.246L323.422 259.446L324.912 251.436Z" fill="#E6E6E6"/>
<path d="M330.073 262.246L324.133 259.746C325.813 258.376 329.853 255.096 330.203 255.106L345.383 255.296L346.013 256.366L330.073 262.246Z" fill="#B3B3B3"/>
<path d="M345.403 254.166L348.503 255.446L345.363 256.606L345.403 254.166Z" fill="#4D4D4D"/>
<path fill-rule="evenodd" clip-rule="evenodd" d="M203.555 257.436L203.685 251.926L189.085 251.876C188.657 251.861 188.239 251.999 187.905 252.266L187.395 253.266V256.046C187.41 256.242 187.463 256.433 187.553 256.608C187.642 256.783 187.765 256.939 187.914 257.066C188.064 257.193 188.237 257.29 188.425 257.35C188.612 257.41 188.809 257.433 189.005 257.416L203.555 257.436Z" fill="#BBBDBF"/>
<path fill-rule="evenodd" clip-rule="evenodd" d="M211.452 261.876L211.752 247.546L198.752 247.486C198.199 247.471 197.66 247.656 197.232 248.006C197.036 248.155 196.875 248.345 196.761 248.562C196.647 248.78 196.583 249.021 196.572 249.266L196.332 260.026C196.334 260.27 196.389 260.51 196.495 260.73C196.6 260.949 196.753 261.143 196.942 261.296C197.366 261.641 197.896 261.828 198.442 261.826L211.452 261.876Z" fill="#58595B"/>
<path fill-rule="evenodd" clip-rule="evenodd" d="M196.505 254.036L196.375 260.036C196.377 260.28 196.432 260.52 196.538 260.74C196.643 260.959 196.796 261.153 196.985 261.306C197.409 261.651 197.939 261.838 198.485 261.836L211.065 261.886L208.265 254.076H196.505V254.036Z" fill="#404041"/>
<path fill-rule="evenodd" clip-rule="evenodd" d="M330.484 248.006L203.074 247.516L202.754 261.856L330.094 262.346L330.484 248.006Z" fill="#58595B"/>
<path fill-rule="evenodd" clip-rule="evenodd" d="M330.284 255.016L202.934 254.036L202.754 261.856L330.094 262.346L330.284 255.016Z" fill="#404041"/>
<path fill-rule="evenodd" clip-rule="evenodd" d="M203.524 261.856L201.574 261.846L201.904 246.006L201.914 245.706L202.374 244.836L203.424 244.476L237.414 244.616L237.384 246.156L236.974 247.636L229.124 247.616L226.994 246.106L205.334 246.016L204.284 246.376L203.834 247.236L203.524 261.856Z" fill="#ABACAE"/>
</svg>
