<svg width="64" height="44" viewBox="0 0 64 44" fill="none" xmlns="http://www.w3.org/2000/svg">
<path d="M63.2211 4.63184H0V44.0003H63.2211V4.63184Z" fill="#E6E6E6"/>
<path d="M15.8192 12.2158H4.24023V19.7421H15.8192V12.2158Z" fill="white"/>
<path d="M30.2059 12.2158H18.627V19.7421H30.2059V12.2158Z" fill="white"/>
<path d="M44.5926 12.2158H33.0137V19.7421H44.5926V12.2158Z" fill="white"/>
<path d="M58.9813 12.2158H47.4023V19.7421H58.9813V12.2158Z" fill="white"/>
<path d="M15.8192 22.8682H4.24023V30.3945H15.8192V22.8682Z" fill="white"/>
<path d="M30.2059 22.8682H18.627V30.3945H30.2059V22.8682Z" fill="white"/>
<path d="M44.5926 22.8682H33.0137V30.3945H44.5926V22.8682Z" fill="white"/>
<path d="M58.9813 22.8682H47.4023V30.3945H58.9813V22.8682Z" fill="white"/>
<path d="M15.8192 33.521H4.24023V41.0473H15.8192V33.521Z" fill="white"/>
<path d="M30.2059 33.521H18.627V41.0473H30.2059V33.521Z" fill="white"/>
<path d="M44.5926 33.521H33.0137V41.0473H44.5926V33.521Z" fill="white"/>
<path d="M58.9813 33.521H47.4023V41.0473H58.9813V33.521Z" fill="white"/>
<path d="M16.5572 9.26323C17.5164 9.26323 18.294 8.48562 18.294 7.52639C18.294 6.56716 17.5164 5.78955 16.5572 5.78955C15.5979 5.78955 14.8203 6.56716 14.8203 7.52639C14.8203 8.48562 15.5979 9.26323 16.5572 9.26323Z" fill="white"/>
<path d="M45.2739 9.26323C46.2332 9.26323 47.0108 8.48562 47.0108 7.52639C47.0108 6.56716 46.2332 5.78955 45.2739 5.78955C44.3147 5.78955 43.5371 6.56716 43.5371 7.52639C43.5371 8.48562 44.3147 9.26323 45.2739 9.26323Z" fill="white"/>
<path d="M17.2528 0H15.8633V7.98947H17.2528V0Z" fill="#E6E6E6"/>
<path d="M45.9676 0H44.5781V7.98947H45.9676V0Z" fill="#E6E6E6"/>
<path d="M55.81 15.9788C55.8094 16.6076 55.5819 17.215 55.1693 17.6895C54.7568 18.1641 54.1868 18.4737 53.5642 18.5617C52.9416 18.6496 52.3081 18.51 51.7802 18.1683C51.2524 17.8267 50.8655 17.306 50.6908 16.702C50.516 16.0979 50.5651 15.4511 50.829 14.8804C51.0929 14.3097 51.5539 13.8533 52.1273 13.5953C52.7007 13.3372 53.348 13.2947 53.9502 13.4756C54.5524 13.6566 55.0691 14.0487 55.4053 14.5801C55.6701 14.9985 55.8105 15.4836 55.81 15.9788Z" fill="#6C63FF"/>
<path d="M55.4057 14.5803L52.8282 17.1573C52.6662 16.9065 51.7637 15.741 51.7637 15.741C51.8793 15.6241 52.0028 15.5152 52.1331 15.4149L52.8815 16.4128L55.1038 14.1904C55.2165 14.3106 55.3176 14.4411 55.4057 14.5803Z" fill="white"/>
<path d="M27.0346 26.6316C27.034 27.2604 26.8065 27.8679 26.3939 28.3424C25.9814 28.8169 25.4114 29.1266 24.7888 29.2145C24.1662 29.3025 23.5327 29.1628 23.0048 28.8211C22.477 28.4795 22.0901 27.9588 21.9154 27.3548C21.7406 26.7508 21.7897 26.104 22.0536 25.5332C22.3175 24.9625 22.7785 24.5062 23.3519 24.2481C23.9253 23.99 24.5726 23.9476 25.1748 24.1285C25.777 24.3094 26.2937 24.7015 26.63 25.2329C26.8947 25.6513 27.0351 26.1364 27.0346 26.6316Z" fill="#6C63FF"/>
<path d="M26.6303 25.2327L24.0528 27.8097C23.8908 27.5589 22.9883 26.3934 22.9883 26.3934C23.1039 26.2765 23.2274 26.1675 23.3577 26.0672L24.1061 27.0651L26.3284 24.8428C26.4411 24.9629 26.5422 25.0935 26.6303 25.2327Z" fill="white"/>
<path d="M12.6479 26.6316C12.6473 27.2604 12.4198 27.8679 12.0073 28.3424C11.5947 28.8169 11.0247 29.1266 10.4021 29.2145C9.77947 29.3025 9.14602 29.1628 8.61814 28.8212C8.09026 28.4795 7.7034 27.9588 7.52864 27.3548C7.35389 26.7508 7.40298 26.104 7.6669 25.5332C7.93082 24.9625 8.39183 24.5062 8.96523 24.2481C9.53863 23.99 10.1859 23.9476 10.7881 24.1285C11.3903 24.3094 11.907 24.7016 12.2433 25.2329C12.508 25.6513 12.6484 26.1364 12.6479 26.6316Z" fill="#6C63FF"/>
<path d="M12.2435 25.2327L9.66607 27.8097C9.50407 27.5589 8.60156 26.3934 8.60156 26.3934C8.71722 26.2765 8.84065 26.1675 8.971 26.0672L9.71939 27.0651L11.9417 24.8428C12.0544 24.9629 12.1555 25.0935 12.2435 25.2327Z" fill="white"/>
</svg>
