<svg width="16" height="16" viewBox="0 0 16 16" fill="none" xmlns="http://www.w3.org/2000/svg">
<path d="M12 6.5H11C10.9996 6.1023 10.8414 5.721 10.5602 5.43978C10.279 5.15856 9.8977 5.0004 9.5 5V4C10.1628 4.00079 10.7982 4.26444 11.2669 4.73311C11.7356 5.20178 11.9992 5.8372 12 6.5Z" fill="#A7A9AC"/>
<path d="M14.0005 6.5H13.0005C12.9994 5.57207 12.6304 4.68244 11.9742 4.0263C11.3181 3.37015 10.4284 3.00106 9.50051 3V2C10.6936 2.00132 11.8374 2.47585 12.681 3.31948C13.5247 4.16311 13.9992 5.30693 14.0005 6.5ZM13.0005 14.5H12.9155C3.09051 13.935 1.69551 5.645 1.50051 3.115C1.47003 2.71837 1.59835 2.32588 1.85724 2.02386C2.11613 1.72184 2.48438 1.53502 2.88101 1.5045C2.92067 1.5015 2.96051 1.5 3.00051 1.5H5.63551C5.83578 1.49981 6.03151 1.55976 6.19732 1.67208C6.36314 1.78441 6.4914 1.94394 6.56551 2.13L7.32551 4C7.39868 4.18177 7.41684 4.38104 7.37773 4.57305C7.33862 4.76505 7.24396 4.94134 7.10551 5.08L6.04051 6.155C6.20619 7.10066 6.6587 7.97249 7.33667 8.65226C8.01465 9.33202 8.88528 9.78683 9.83051 9.955L10.9155 8.88C11.0563 8.74308 11.2342 8.65063 11.4271 8.61417C11.6201 8.57771 11.8195 8.59887 12.0005 8.675L13.8855 9.43C14.0688 9.50644 14.2251 9.63571 14.3346 9.80134C14.4442 9.96696 14.5019 10.1614 14.5005 10.36V13C14.5005 13.3978 14.3425 13.7794 14.0612 14.0607C13.7799 14.342 13.3983 14.5 13.0005 14.5ZM3.00051 2.5C2.93484 2.4998 2.86979 2.51254 2.80905 2.53749C2.74831 2.56243 2.69308 2.5991 2.64651 2.64539C2.59994 2.69168 2.56295 2.74669 2.53764 2.80727C2.51233 2.86786 2.4992 2.93284 2.49901 2.9985C2.49901 3.0125 2.49951 3.02633 2.50051 3.04C2.73051 6 4.20551 13 12.9705 13.5C13.1028 13.5079 13.2329 13.463 13.3321 13.375C13.4313 13.2871 13.4915 13.1633 13.4995 13.031L13.5005 13V10.36L11.6155 9.605L10.1805 11.03L9.94051 11C5.59051 10.455 5.00051 6.105 5.00051 6.06L4.97051 5.82L6.39051 4.385L5.64051 2.5H3.00051Z" fill="#A7A9AC"/>
</svg>
