<svg width="76" height="76" viewBox="0 0 76 76" fill="none" xmlns="http://www.w3.org/2000/svg">
<g filter="url(#filter0_d_941_8066)">
<circle cx="38" cy="38" r="35" fill="white"/>
</g>
<path d="M48.1247 31.25H43.9434L43.1821 29.0586C43.0797 28.7643 42.8883 28.5092 42.6344 28.3286C42.3805 28.148 42.0767 28.0509 41.7651 28.0508H34.2144C33.9012 28.0507 33.5958 28.1487 33.3411 28.3311C33.0864 28.5135 32.8952 28.771 32.7944 29.0675L32.0516 31.25H27.875C27.5767 31.2503 27.2908 31.369 27.0799 31.5799C26.869 31.7908 26.7503 32.0767 26.75 32.375V47C26.7503 47.2983 26.869 47.5842 27.0799 47.7951C27.2908 48.006 27.5767 48.1247 27.875 48.125H48.1247C48.4229 48.1247 48.7089 48.006 48.9198 47.7951C49.1307 47.5842 49.2493 47.2983 49.2497 47V32.375C49.2493 32.0767 49.1307 31.7908 48.9198 31.5799C48.7089 31.369 48.4229 31.2503 48.1247 31.25ZM47.7497 46.625H28.2503V32.75H33.1258L34.2144 29.5508H41.7651L42.8765 32.75H47.7497V46.625Z" fill="#89969F"/>
<path d="M38 33.875C36.9431 33.875 35.9099 34.1884 35.0312 34.7756C34.1524 35.3628 33.4675 36.1973 33.063 37.1738C32.6586 38.1502 32.5527 39.2247 32.7589 40.2613C32.9651 41.2978 33.4741 42.25 34.2214 42.9974C34.9687 43.7447 35.9209 44.2536 36.9575 44.4598C37.9941 44.666 39.0685 44.5602 40.045 44.1557C41.0214 43.7513 41.856 43.0664 42.4432 42.1876C43.0303 41.3088 43.3438 40.2756 43.3438 39.2188C43.3421 37.802 42.7786 36.4437 41.7768 35.4419C40.775 34.4401 39.4168 33.8766 38 33.875ZM38 43.0625C37.2398 43.0625 36.4966 42.8371 35.8645 42.4147C35.2324 41.9924 34.7398 41.392 34.4488 40.6897C34.1579 39.9873 34.0818 39.2145 34.2301 38.4689C34.3784 37.7233 34.7445 37.0384 35.2821 36.5008C35.8196 35.9633 36.5045 35.5972 37.2501 35.4489C37.9957 35.3005 38.7686 35.3767 39.4709 35.6676C40.1733 35.9585 40.7736 36.4512 41.196 37.0833C41.6183 37.7154 41.8438 38.4585 41.8438 39.2188C41.8426 40.2378 41.4373 41.2148 40.7167 41.9354C39.9961 42.656 39.0191 43.0613 38 43.0625Z" fill="#89969F"/>
<defs>
<filter id="filter0_d_941_8066" x="0.625" y="0.625" width="74.75" height="74.75" filterUnits="userSpaceOnUse" color-interpolation-filters="sRGB">
<feFlood flood-opacity="0" result="BackgroundImageFix"/>
<feColorMatrix in="SourceAlpha" type="matrix" values="0 0 0 0 0 0 0 0 0 0 0 0 0 0 0 0 0 0 127 0" result="hardAlpha"/>
<feOffset/>
<feGaussianBlur stdDeviation="1.1875"/>
<feComposite in2="hardAlpha" operator="out"/>
<feColorMatrix type="matrix" values="0 0 0 0 0 0 0 0 0 0 0 0 0 0 0 0 0 0 0.25 0"/>
<feBlend mode="normal" in2="BackgroundImageFix" result="effect1_dropShadow_941_8066"/>
<feBlend mode="normal" in="SourceGraphic" in2="effect1_dropShadow_941_8066" result="shape"/>
</filter>
</defs>
</svg>
