<svg width="10" height="10" viewBox="0 0 10 10" fill="none" xmlns="http://www.w3.org/2000/svg">
<path d="M5 0C2.235 0 0 2.235 0 5C0 7.765 2.235 10 5 10C7.765 10 10 7.765 10 5C10 2.235 7.765 0 5 0ZM7.15 7.15C7.10374 7.19635 7.0488 7.23313 6.98831 7.25822C6.92783 7.28331 6.86298 7.29622 6.7975 7.29622C6.73202 7.29622 6.66717 7.28331 6.60669 7.25822C6.5462 7.23313 6.49126 7.19635 6.445 7.15L5 5.705L3.555 7.15C3.46151 7.24349 3.33471 7.29601 3.2025 7.29601C3.07029 7.29601 2.94349 7.24349 2.85 7.15C2.75651 7.05651 2.70399 6.92971 2.70399 6.7975C2.70399 6.73203 2.71688 6.66721 2.74194 6.60673C2.76699 6.54625 2.80371 6.49129 2.85 6.445L4.295 5L2.85 3.555C2.75651 3.46151 2.70399 3.33471 2.70399 3.2025C2.70399 3.07029 2.75651 2.94349 2.85 2.85C2.94349 2.75651 3.07029 2.70399 3.2025 2.70399C3.33471 2.70399 3.46151 2.75651 3.555 2.85L5 4.295L6.445 2.85C6.49129 2.80371 6.54625 2.76699 6.60673 2.74194C6.66721 2.71688 6.73203 2.70399 6.7975 2.70399C6.86297 2.70399 6.92779 2.71688 6.98827 2.74194C7.04875 2.76699 7.10371 2.80371 7.15 2.85C7.19629 2.89629 7.23301 2.95125 7.25806 3.01173C7.28312 3.07221 7.29601 3.13703 7.29601 3.2025C7.29601 3.26797 7.28312 3.33279 7.25806 3.39327C7.23301 3.45375 7.19629 3.50871 7.15 3.555L5.705 5L7.15 6.445C7.34 6.635 7.34 6.955 7.15 7.15Z" fill="#89969F"/>
</svg>
