<svg width="18" height="18" viewBox="0 0 18 18" fill="none" xmlns="http://www.w3.org/2000/svg">
<path d="M16 6.54V13.355L12.32 9.675L11.615 10.38L15.23 14H2.83L6.33 10.38L5.61 9.685L2 13.42V4.76L8.215 10.945C8.40236 11.1313 8.65581 11.2358 8.92 11.2358C9.18419 11.2358 9.43764 11.1313 9.625 10.945L14.04 6.555C13.6877 6.46304 13.3507 6.31985 13.04 6.13L8.91 10.235L2.655 4H11.405C11.3083 3.67521 11.2562 3.33881 11.25 3H2C1.73478 3 1.48043 3.10536 1.29289 3.29289C1.10536 3.48043 1 3.73478 1 4V14C1 14.2652 1.10536 14.5196 1.29289 14.7071C1.48043 14.8946 1.73478 15 2 15H16C16.2652 15 16.5196 14.8946 16.7071 14.7071C16.8946 14.5196 17 14.2652 17 14V6.1C16.6901 6.29502 16.3531 6.44328 16 6.54Z" fill="#A7A9AC"/>
<path d="M15 5.43018C16.3807 5.43018 17.5 4.31089 17.5 2.93018C17.5 1.54946 16.3807 0.430176 15 0.430176C13.6193 0.430176 12.5 1.54946 12.5 2.93018C12.5 4.31089 13.6193 5.43018 15 5.43018Z" fill="#A7A9AC"/>
</svg>
