<svg width="200" height="200" viewBox="0 0 200 200" fill="none" xmlns="http://www.w3.org/2000/svg">
<g clip-path="url(#clip0_540_20157)">
<path d="M200.001 150C200.001 155.894 197.659 161.546 193.492 165.714C189.324 169.881 183.672 172.222 177.778 172.222H133.334V27.7778H177.778C183.672 27.7778 189.324 30.1191 193.492 34.2866C197.659 38.454 200.001 44.1064 200.001 50.0001V150Z" fill="#ED2939"/>
<path d="M22.2222 27.7778C16.3285 27.7778 10.6762 30.1191 6.50874 34.2866C2.34126 38.454 0 44.1064 0 50.0001L0 150C0 155.894 2.34126 161.546 6.50874 165.714C10.6762 169.881 16.3285 172.222 22.2222 172.222H66.6667V27.7778H22.2222Z" fill="#002495"/>
<path d="M66.666 27.7778H133.333V172.222H66.666V27.7778Z" fill="#EEEEEE"/>
</g>
<defs>
<clipPath id="clip0_540_20157">
<rect width="200" height="200" fill="white"/>
</clipPath>
</defs>
</svg>
