<svg width="24" height="24" viewBox="0 0 24 24" fill="none" xmlns="http://www.w3.org/2000/svg">
<path d="M13.508 21.7101L13.5051 21.7115L10.8384 22.9608L10.8383 22.9609C10.7097 23.0211 10.5727 23.0081 10.4665 22.9466C10.3624 22.8863 10.3333 22.8116 10.3333 22.7497V14.7791L10.3333 14.7785C10.3332 14.4738 10.269 14.1735 10.1463 13.8957C10.0237 13.6184 9.84594 13.3704 9.62604 13.1648C9.62583 13.1646 9.62563 13.1644 9.62542 13.1642L1.46519 5.51804C1.46515 5.518 1.46512 5.51797 1.46508 5.51794C1.15919 5.23119 1 4.85556 1 4.47922V1.25056C1 1.17039 1.08657 1.00002 1.33333 1.00002L22.6667 1.00004L22.6724 1.00001C22.7225 0.99972 22.771 1.00886 22.8147 1.02576C22.8584 1.04263 22.8948 1.06622 22.923 1.09269C22.9511 1.11906 22.9704 1.14746 22.9825 1.17476C22.9943 1.20152 22.9997 1.22818 23 1.25371V4.47818C22.9998 4.66721 22.9601 4.85577 22.8816 5.03345C22.803 5.21128 22.6864 5.37627 22.5356 5.5173L22.5349 5.51794L14.3736 13.1652L14.3735 13.1653C13.9283 13.5826 13.6667 14.162 13.6667 14.7791V21.4975C13.6665 21.532 13.6564 21.5699 13.6317 21.6073C13.6066 21.6454 13.5657 21.6834 13.508 21.7101Z" stroke="#0D2C58" stroke-width="2"/>
</svg>
