<svg width="16" height="16" viewBox="0 0 16 16" fill="none" xmlns="http://www.w3.org/2000/svg">
<path d="M13.5009 2H10.5009C10.3683 2 10.2411 2.05268 10.1474 2.14645C10.0536 2.24021 10.0009 2.36739 10.0009 2.5C10.0009 2.63261 10.0536 2.75979 10.1474 2.85355C10.2411 2.94732 10.3683 3 10.5009 3H12.2947L10.5009 4.79375L9.35716 3.64375C9.26001 3.56402 9.13668 3.52327 9.01115 3.52944C8.88563 3.5356 8.76688 3.58824 8.67801 3.67711C8.58915 3.76597 8.53651 3.88472 8.53035 4.01024C8.52418 4.13577 8.56493 4.2591 8.64466 4.35625L9.79466 5.5L8.80716 6.4875C7.90626 5.76713 6.76369 5.41911 5.61418 5.51494C4.46467 5.61077 3.3955 6.14317 2.62631 7.00276C1.85713 7.86236 1.44632 8.98388 1.4783 10.1369C1.51027 11.29 1.9826 12.387 2.79824 13.2027C3.61389 14.0183 4.71092 14.4906 5.86398 14.5226C7.01703 14.5546 8.13855 14.1438 8.99815 13.3746C9.85774 12.6054 10.3901 11.5362 10.486 10.3867C10.5818 9.23722 10.2338 8.09465 9.51341 7.19375L10.5009 6.20625L11.6447 7.35625C11.7402 7.44866 11.868 7.50032 12.0009 7.50032C12.1339 7.50032 12.2616 7.44866 12.3572 7.35625C12.451 7.26145 12.5037 7.13342 12.5037 7C12.5037 6.86658 12.451 6.73855 12.3572 6.64375L11.2072 5.5L13.0009 3.70625V5.5C13.0009 5.63261 13.0536 5.75979 13.1474 5.85355C13.2411 5.94732 13.3683 6 13.5009 6C13.6335 6 13.7607 5.94732 13.8545 5.85355C13.9482 5.75979 14.0009 5.63261 14.0009 5.5V2.5C14.0009 2.36739 13.9482 2.24021 13.8545 2.14645C13.7607 2.05268 13.6335 2 13.5009 2ZM8.47591 12.475C7.81871 13.1299 6.92872 13.4977 6.00091 13.4977C5.07309 13.4977 4.18311 13.1299 3.52591 12.475C2.8695 11.8186 2.50073 10.9283 2.50073 10C2.50073 9.07169 2.8695 8.18141 3.52591 7.525C4.18232 6.86859 5.0726 6.49982 6.00091 6.49982C6.92921 6.49982 7.8195 6.86859 8.47591 7.525C8.80095 7.85001 9.05879 8.23586 9.23471 8.66053C9.41062 9.08519 9.50116 9.54034 9.50116 10C9.50116 10.4597 9.41062 10.9148 9.23471 11.3395C9.05879 11.7641 8.80095 12.15 8.47591 12.475Z" fill="black"/>
</svg>
