<svg width="32" height="32" viewBox="0 0 32 32" fill="none" xmlns="http://www.w3.org/2000/svg">
<path d="M31.6888 12.8664H30.4V12.8H16V19.2H25.0424C23.7232 22.9256 20.1784 25.6 16 25.6C10.6984 25.6 6.4 21.3016 6.4 16C6.4 10.6984 10.6984 6.4 16 6.4C18.4472 6.4 20.6736 7.3232 22.3688 8.8312L26.8944 4.3056C24.0368 1.6424 20.2144 0 16 0C7.164 0 0 7.164 0 16C0 24.836 7.164 32 16 32C24.836 32 32 24.836 32 16C32 14.9272 31.8896 13.88 31.6888 12.8664Z" fill="#FFC107"/>
<path d="M1.84375 8.5528L7.10055 12.408C8.52295 8.8864 11.9678 6.4 15.999 6.4C18.4462 6.4 20.6726 7.3232 22.3678 8.8312L26.8934 4.3056C24.0358 1.6424 20.2134 0 15.999 0C9.85335 0 4.52375 3.4696 1.84375 8.5528Z" fill="#FF3D00"/>
<path d="M15.9999 31.9998C20.1327 31.9998 23.8879 30.4182 26.7271 27.8462L21.7751 23.6558C20.1147 24.9185 18.0858 25.6014 15.9999 25.5998C11.8383 25.5998 8.30466 22.9462 6.97346 19.243L1.75586 23.263C4.40386 28.4446 9.78146 31.9998 15.9999 31.9998Z" fill="#4CAF50"/>
<path d="M31.6888 12.8664H30.4V12.8H16V19.2H25.0424C24.4114 20.9731 23.2747 22.5225 21.7728 23.6568L21.7752 23.6552L26.7272 27.8456C26.3768 28.164 32 24 32 16C32 14.9272 31.8896 13.88 31.6888 12.8664Z" fill="#1976D2"/>
</svg>
