<svg width="200" height="200" viewBox="0 0 200 200" fill="none" xmlns="http://www.w3.org/2000/svg">
<g clip-path="url(#clip0_540_20119)">
<path d="M0 150C0 155.894 2.34126 161.546 6.50874 165.713C10.6762 169.881 16.3285 172.222 22.2222 172.222H177.778C183.671 172.222 189.324 169.881 193.491 165.713C197.659 161.546 200 155.894 200 150V122.222H0V150Z" fill="#138808"/>
<path d="M200 77.7778V50.0001C200 44.1064 197.659 38.454 193.491 34.2866C189.324 30.1191 183.671 27.7778 177.778 27.7778H22.2222C16.3285 27.7778 10.6762 30.1191 6.50874 34.2866C2.34126 38.454 0 44.1064 0 50.0001L0 77.7778H200Z" fill="#FF9933"/>
<path d="M0 76H200V124.15H0V76Z" fill="#F7F7F7"/>
<path d="M99.9996 122.222C112.273 122.222 122.222 112.273 122.222 100C122.222 87.7271 112.273 77.7778 99.9996 77.7778C87.7266 77.7778 77.7773 87.7271 77.7773 100C77.7773 112.273 87.7266 122.222 99.9996 122.222Z" fill="#000080"/>
<path d="M100 118.75C110.355 118.75 118.75 110.355 118.75 100C118.75 89.6447 110.355 81.25 100 81.25C89.6447 81.25 81.25 89.6447 81.25 100C81.25 110.355 89.6447 118.75 100 118.75Z" fill="#F7F7F7"/>
<path d="M100.556 93.0555L100 96.6666L99.4449 93.0555L100 82.2222L100.556 93.0555ZM95.4004 82.8277L97.6671 93.4333L99.1393 96.7777L98.7393 93.1499L95.4004 82.8277ZM91.1115 84.6055L96.0449 94.2611L98.3338 97.1111L97.0115 93.7055L91.1115 84.6055ZM87.4282 87.4277L94.6949 95.4833L97.6449 97.6444L95.4838 94.6944L87.4282 87.4277ZM84.606 91.1111L93.706 97.0111L97.1115 98.3333L94.2615 96.0444L84.606 91.1111ZM82.8282 95.4L93.1504 98.7388L96.7782 99.1388L93.4338 97.6666L82.8282 95.4ZM82.2227 99.9999L93.056 100.556L96.6671 99.9999L93.056 99.4444L82.2227 99.9999ZM82.8282 104.6L93.4338 102.333L96.7782 100.861L93.1504 101.261L82.8282 104.6ZM84.606 108.889L94.2615 103.956L97.1115 101.667L93.706 102.989L84.606 108.889ZM87.4282 112.572L95.4838 105.306L97.6449 102.355L94.6949 104.517L87.4282 112.572ZM91.1115 115.394L97.0115 106.294L98.3338 102.889L96.0449 105.739L91.1115 115.394ZM95.4004 117.172L98.7393 106.85L99.1393 103.222L97.6671 106.567L95.4004 117.172ZM100 117.778L100.556 106.944L100 103.333L99.4449 106.944L100 117.778ZM104.6 117.172L102.334 106.567L100.862 103.222L101.262 106.85L104.6 117.172ZM108.889 115.394L103.956 105.739L101.667 102.889L102.989 106.294L108.889 115.394ZM112.573 112.572L105.306 104.517L102.356 102.355L104.517 105.306L112.573 112.572ZM115.395 108.889L106.295 102.989L102.889 101.667L105.739 103.956L115.395 108.889ZM117.173 104.6L106.85 101.261L103.223 100.861L106.567 102.333L117.173 104.6ZM117.778 99.9999L106.945 99.4444L103.334 99.9999L106.945 100.556L117.778 99.9999ZM117.173 95.4L106.567 97.6666L103.223 99.1388L106.85 98.7388L117.173 95.4ZM115.395 91.1111L105.739 96.0444L102.889 98.3333L106.295 97.0111L115.395 91.1111ZM112.573 87.4277L104.517 94.6944L102.356 97.6444L105.306 95.4833L112.573 87.4277ZM108.889 84.6055L102.989 93.7055L101.667 97.1111L103.956 94.2611L108.889 84.6055ZM104.6 82.8277L101.262 93.1499L100.862 96.7777L102.334 93.4333L104.6 82.8277Z" fill="#6666B3"/>
<path d="M97.5564 82.5501C98.1701 82.5501 98.6675 82.0526 98.6675 81.439C98.6675 80.8253 98.1701 80.3279 97.5564 80.3279C96.9428 80.3279 96.4453 80.8253 96.4453 81.439C96.4453 82.0526 96.9428 82.5501 97.5564 82.5501Z" fill="#000080"/>
<path d="M92.8338 83.8167C93.4474 83.8167 93.9449 83.3192 93.9449 82.7056C93.9449 82.0919 93.4474 81.5945 92.8338 81.5945C92.2201 81.5945 91.7227 82.0919 91.7227 82.7056C91.7227 83.3192 92.2201 83.8167 92.8338 83.8167Z" fill="#000080"/>
<path d="M88.5994 86.2557C89.213 86.2557 89.7105 85.7582 89.7105 85.1446C89.7105 84.5309 89.213 84.0334 88.5994 84.0334C87.9857 84.0334 87.4883 84.5309 87.4883 85.1446C87.4883 85.7582 87.9857 86.2557 88.5994 86.2557Z" fill="#000080"/>
<path d="M85.1443 89.7112C85.758 89.7112 86.2554 89.2138 86.2554 88.6001C86.2554 87.9865 85.758 87.489 85.1443 87.489C84.5307 87.489 84.0332 87.9865 84.0332 88.6001C84.0332 89.2138 84.5307 89.7112 85.1443 89.7112Z" fill="#000080"/>
<path d="M82.7068 93.9446C83.3205 93.9446 83.8179 93.4472 83.8179 92.8335C83.8179 92.2199 83.3205 91.7224 82.7068 91.7224C82.0932 91.7224 81.5957 92.2199 81.5957 92.8335C81.5957 93.4472 82.0932 93.9446 82.7068 93.9446Z" fill="#000080"/>
<path d="M81.4392 98.6668C82.0529 98.6668 82.5504 98.1693 82.5504 97.5557C82.5504 96.942 82.0529 96.4446 81.4392 96.4446C80.8256 96.4446 80.3281 96.942 80.3281 97.5557C80.3281 98.1693 80.8256 98.6668 81.4392 98.6668Z" fill="#000080"/>
<path d="M81.4392 103.556C82.0529 103.556 82.5504 103.058 82.5504 102.445C82.5504 101.831 82.0529 101.333 81.4392 101.333C80.8256 101.333 80.3281 101.831 80.3281 102.445C80.3281 103.058 80.8256 103.556 81.4392 103.556Z" fill="#000080"/>
<path d="M82.7068 108.278C83.3205 108.278 83.8179 107.78 83.8179 107.167C83.8179 106.553 83.3205 106.056 82.7068 106.056C82.0932 106.056 81.5957 106.553 81.5957 107.167C81.5957 107.78 82.0932 108.278 82.7068 108.278Z" fill="#000080"/>
<path d="M85.1443 112.511C85.758 112.511 86.2554 112.014 86.2554 111.4C86.2554 110.787 85.758 110.289 85.1443 110.289C84.5307 110.289 84.0332 110.787 84.0332 111.4C84.0332 112.014 84.5307 112.511 85.1443 112.511Z" fill="#000080"/>
<path d="M88.5994 115.967C89.213 115.967 89.7105 115.469 89.7105 114.856C89.7105 114.242 89.213 113.745 88.5994 113.745C87.9857 113.745 87.4883 114.242 87.4883 114.856C87.4883 115.469 87.9857 115.967 88.5994 115.967Z" fill="#000080"/>
<path d="M92.8338 118.406C93.4474 118.406 93.9449 117.908 93.9449 117.294C93.9449 116.681 93.4474 116.183 92.8338 116.183C92.2201 116.183 91.7227 116.681 91.7227 117.294C91.7227 117.908 92.2201 118.406 92.8338 118.406Z" fill="#000080"/>
<path d="M97.5564 119.672C98.1701 119.672 98.6675 119.175 98.6675 118.561C98.6675 117.948 98.1701 117.45 97.5564 117.45C96.9428 117.45 96.4453 117.948 96.4453 118.561C96.4453 119.175 96.9428 119.672 97.5564 119.672Z" fill="#000080"/>
<path d="M102.445 119.672C103.059 119.672 103.556 119.175 103.556 118.561C103.556 117.948 103.059 117.45 102.445 117.45C101.831 117.45 101.334 117.948 101.334 118.561C101.334 119.175 101.831 119.672 102.445 119.672Z" fill="#000080"/>
<path d="M107.168 118.406C107.781 118.406 108.279 117.908 108.279 117.294C108.279 116.681 107.781 116.183 107.168 116.183C106.554 116.183 106.057 116.681 106.057 117.294C106.057 117.908 106.554 118.406 107.168 118.406Z" fill="#000080"/>
<path d="M111.4 115.967C112.014 115.967 112.511 115.469 112.511 114.856C112.511 114.242 112.014 113.745 111.4 113.745C110.787 113.745 110.289 114.242 110.289 114.856C110.289 115.469 110.787 115.967 111.4 115.967Z" fill="#000080"/>
<path d="M114.855 112.511C115.469 112.511 115.966 112.014 115.966 111.4C115.966 110.787 115.469 110.289 114.855 110.289C114.242 110.289 113.744 110.787 113.744 111.4C113.744 112.014 114.242 112.511 114.855 112.511Z" fill="#000080"/>
<path d="M117.295 108.278C117.908 108.278 118.406 107.78 118.406 107.167C118.406 106.553 117.908 106.056 117.295 106.056C116.681 106.056 116.184 106.553 116.184 107.167C116.184 107.78 116.681 108.278 117.295 108.278Z" fill="#000080"/>
<path d="M118.562 103.556C119.176 103.556 119.673 103.058 119.673 102.445C119.673 101.831 119.176 101.333 118.562 101.333C117.949 101.333 117.451 101.831 117.451 102.445C117.451 103.058 117.949 103.556 118.562 103.556Z" fill="#000080"/>
<path d="M118.562 98.6668C119.176 98.6668 119.673 98.1693 119.673 97.5557C119.673 96.942 119.176 96.4446 118.562 96.4446C117.949 96.4446 117.451 96.942 117.451 97.5557C117.451 98.1693 117.949 98.6668 118.562 98.6668Z" fill="#000080"/>
<path d="M117.295 93.9446C117.908 93.9446 118.406 93.4472 118.406 92.8335C118.406 92.2199 117.908 91.7224 117.295 91.7224C116.681 91.7224 116.184 92.2199 116.184 92.8335C116.184 93.4472 116.681 93.9446 117.295 93.9446Z" fill="#000080"/>
<path d="M114.855 89.7112C115.469 89.7112 115.966 89.2138 115.966 88.6001C115.966 87.9865 115.469 87.489 114.855 87.489C114.242 87.489 113.744 87.9865 113.744 88.6001C113.744 89.2138 114.242 89.7112 114.855 89.7112Z" fill="#000080"/>
<path d="M111.4 86.2557C112.014 86.2557 112.511 85.7582 112.511 85.1446C112.511 84.5309 112.014 84.0334 111.4 84.0334C110.787 84.0334 110.289 84.5309 110.289 85.1446C110.289 85.7582 110.787 86.2557 111.4 86.2557Z" fill="#000080"/>
<path d="M107.168 83.8167C107.781 83.8167 108.279 83.3192 108.279 82.7056C108.279 82.0919 107.781 81.5945 107.168 81.5945C106.554 81.5945 106.057 82.0919 106.057 82.7056C106.057 83.3192 106.554 83.8167 107.168 83.8167Z" fill="#000080"/>
<path d="M102.445 82.5501C103.059 82.5501 103.556 82.0526 103.556 81.439C103.556 80.8253 103.059 80.3279 102.445 80.3279C101.831 80.3279 101.334 80.8253 101.334 81.439C101.334 82.0526 101.831 82.5501 102.445 82.5501Z" fill="#000080"/>
<path d="M100 105C102.761 105 105 102.761 105 100C105 97.2386 102.761 95 100 95C97.2386 95 95 97.2386 95 100C95 102.761 97.2386 105 100 105Z" fill="#000080"/>
</g>
<defs>
<clipPath id="clip0_540_20119">
<rect width="200" height="200" fill="white"/>
</clipPath>
</defs>
</svg>
