<svg width="84" height="90" viewBox="0 0 84 90" fill="none" xmlns="http://www.w3.org/2000/svg">
<path d="M41.9772 0L1.93164 26.8636H82.0286L41.9772 0Z" fill="#7D82CA"/>
<path d="M82.0169 68.2717C56.2796 84.0194 29.5806 84.0194 1.91992 68.2717V26.8104H82.0169V68.2717Z" fill="#CFD0E4"/>
<path d="M42.3519 6.12602L11.8359 23.9478L41.9771 38.1351L72.8679 23.9478L42.3519 6.12602Z" fill="white"/>
<g style="mix-blend-mode:multiply" opacity="0.19">
<path d="M44.1958 22.2771C44.1958 22.5507 43.25 22.7708 42.0901 22.7708C40.9301 22.7708 39.9902 22.5507 39.9902 22.2771C39.9902 22.0034 40.9301 21.7893 42.0901 21.7893C43.25 21.7893 44.1958 22.0094 44.1958 22.2771Z" fill="#281304"/>
</g>
<path d="M10.0391 25.5537L42.8947 39.2436L73.925 24.6411" stroke="#7D82CA" stroke-width="3.65062" stroke-miterlimit="10" stroke-linecap="round"/>
<path d="M66.8773 22.7699L41.9767 7.99968L17.0762 22.7699" fill="#DFE0E1"/>
<path d="M4.37695 30.4435V67.1578C29.6761 81.1309 54.4279 81.809 78.5551 67.1578V30.4435" stroke="#7D82CA" stroke-width="1.78456" stroke-miterlimit="10"/>
<path opacity="0.34" d="M11.8359 55.6893V63.2558L23.6319 65.8315L11.8359 55.6893Z" fill="#2C3192"/>
<path d="M21.8 87.0626C21.2884 87.0626 20.7769 87.0626 20.2712 87.0626C19.8979 87.0896 19.5233 87.0331 19.1745 86.8973C18.8257 86.7615 18.5115 86.5497 18.2547 86.2774L13.014 81.0427C9.31999 77.3546 5.61406 73.6725 1.93786 69.9665C1.34301 69.3717 0.801696 68.646 0.248483 67.9738C-0.393959 67.1826 0.313903 65.7907 1.18239 65.4397C2.18769 65.0352 2.89557 65.1899 3.75216 66.0346L11.2652 73.494C12.6333 74.8503 14.0134 76.2006 15.3756 77.5747C15.9943 78.2123 16.8372 78.5836 17.7253 78.6098C19.3195 78.6811 20.9196 78.7525 22.5138 78.8834C24.6289 79.0707 26.6854 79.6773 28.5635 80.6679C29.1583 80.9832 29.8365 81.2093 30.4789 81.4769C30.7644 81.5959 31.044 81.5245 31.0738 81.2509C31.08 81.1345 31.0559 81.0184 31.0038 80.9141C30.9516 80.8098 30.8732 80.7209 30.7763 80.656C29.5866 80.1088 28.4326 79.5972 27.2489 79.1035C24.9278 78.2138 22.4593 77.7717 19.9738 77.8008C19.1589 77.8008 18.338 77.7234 17.529 77.6639C17.2505 77.6562 16.9767 77.5914 16.7243 77.4735C16.472 77.3556 16.2465 77.1872 16.062 76.9786C15.8774 76.77 15.7376 76.5258 15.6512 76.261C15.5649 75.9962 15.5338 75.7165 15.56 75.4392C15.6557 74.9077 15.9455 74.4308 16.3731 74.101C16.8007 73.7712 17.3356 73.6121 17.874 73.6546C21.1754 73.8271 24.4709 73.9818 27.7723 74.1484C29.9435 74.2614 32.1207 74.4101 34.3157 74.4874C35.3746 74.5231 36.1598 75.0823 36.9985 75.5879C40.062 77.4022 43.1136 79.2284 46.183 81.0368C46.2645 81.0676 46.3389 81.1145 46.402 81.1745C46.4651 81.2345 46.5155 81.3065 46.5505 81.3863C46.5854 81.4661 46.604 81.552 46.6052 81.6391C46.6065 81.7261 46.5904 81.8126 46.5578 81.8933C45.7822 84.5673 44.5462 87.0856 42.9054 89.335C42.8063 89.4698 42.6992 89.6007 42.5842 89.7276C42.5347 89.8041 42.4684 89.8683 42.3902 89.9151C42.312 89.9619 42.2241 89.9902 42.1333 89.9976C42.0425 90.0051 41.9511 89.9916 41.8663 89.9582C41.7816 89.9248 41.7056 89.8723 41.6443 89.8049C39.7712 88.3295 37.5318 87.3918 35.1663 87.0924C33.3032 86.9287 31.4328 86.8632 29.5628 86.8961C26.9752 86.8961 24.3876 86.9853 21.8 87.0329V87.0626Z" fill="white"/>
<path d="M44.5405 88.7876C44.9867 87.931 45.4685 87.0982 45.8611 86.2179C46.3429 85.1293 46.7891 84.0169 47.1757 82.8867C47.5386 81.8457 47.3304 81.4055 46.3667 80.8285L43.2378 78.9666C42.8452 78.7346 42.8452 78.6275 43.2378 78.4015C44.8558 77.4319 46.456 76.4206 48.1216 75.5283C48.7462 75.2297 49.428 75.0694 50.1203 75.0584C53.2076 74.88 56.3067 74.7729 59.4 74.6242C61.6069 74.5171 63.8138 74.3981 66.0207 74.2554C66.3024 74.2181 66.5887 74.2381 66.8625 74.3141C67.1363 74.3902 67.392 74.5207 67.6142 74.6979C67.8363 74.8751 68.0204 75.0952 68.1555 75.3453C68.2905 75.5953 68.3737 75.87 68.4001 76.1529C68.4147 76.4263 68.3733 76.6998 68.2784 76.9567C68.1835 77.2135 68.0372 77.4483 67.8484 77.6465C67.6596 77.8448 67.4323 78.0025 67.1804 78.1098C66.9285 78.2171 66.6573 78.2718 66.3835 78.2706C65.1938 78.342 64.0041 78.3896 62.8144 78.4491C60.0582 78.5456 57.3587 79.2591 54.9148 80.537C54.3985 80.7876 53.8682 81.008 53.3265 81.1973C53.035 81.3163 52.7674 81.465 52.8744 81.7921C52.9815 82.1193 53.2849 82.1312 53.5883 82.0003C54.6471 81.5423 55.706 81.1021 56.7529 80.6322C58.5799 79.8424 60.5395 79.4045 62.5289 79.3413L66.3538 79.145C67.1923 79.1162 67.9872 78.7645 68.5726 78.1635C72.5066 74.2573 76.4425 70.3571 80.3804 66.4628C80.5926 66.2179 80.8601 66.0271 81.1607 65.9062C81.4613 65.7853 81.7864 65.7376 82.109 65.7673C82.4317 65.7969 82.7426 65.903 83.0161 66.0767C83.2896 66.2504 83.5178 66.4867 83.6819 66.7662C83.8899 67.0998 83.987 67.4907 83.9592 67.8828C83.9314 68.275 83.7802 68.6483 83.5272 68.9493C81.9984 70.5435 80.4399 72.1198 78.8754 73.7081C74.6599 77.9276 70.4404 82.1451 66.217 86.3606C66.0504 86.5272 65.8898 86.6997 65.7292 86.8662C65.4735 87.1272 65.1651 87.3306 64.8245 87.4629C64.484 87.5953 64.1191 87.6534 63.7543 87.6336L51.5479 87.3957C49.2929 87.3533 47.057 87.8167 45.0045 88.7519L44.606 88.9006L44.5405 88.7876Z" fill="white"/>
</svg>
