<svg width="24" height="24" viewBox="0 0 24 24" fill="none" xmlns="http://www.w3.org/2000/svg">
<path fill-rule="evenodd" clip-rule="evenodd" d="M12 22.8C17.9646 22.8 22.8 17.9646 22.8 12C22.8 6.0354 17.9646 1.2 12 1.2C6.0354 1.2 1.2 6.0354 1.2 12C1.2 17.9646 6.0354 22.8 12 22.8ZM12 24C18.6276 24 24 18.6276 24 12C24 5.3724 18.6276 0 12 0C5.3724 0 0 5.3724 0 12C0 18.6276 5.3724 24 12 24Z" fill="white"/>
<path d="M4.80078 18.9778C4.80078 18.358 5.26398 17.8342 5.88078 17.7658C10.5098 17.2534 13.5128 17.2996 18.1316 17.7772C18.3622 17.8014 18.5808 17.8923 18.7607 18.0387C18.9405 18.1851 19.0739 18.3807 19.1444 18.6016C19.2149 18.8226 19.2195 19.0593 19.1577 19.2828C19.0959 19.5063 18.9704 19.707 18.7964 19.8604C13.3454 24.6118 10.2302 24.5464 5.18478 19.8652C4.93878 19.6372 4.80078 19.3132 4.80078 18.9784V18.9778Z" fill="white"/>
<path fill-rule="evenodd" clip-rule="evenodd" d="M18.0694 18.3739C13.4872 17.8999 10.5274 17.8555 5.9458 18.3625C5.79499 18.38 5.65595 18.4526 5.55532 18.5663C5.45469 18.68 5.39953 18.8268 5.4004 18.9787C5.4004 19.1503 5.4718 19.3129 5.5924 19.4257C8.0932 21.7453 9.988 22.7935 11.8402 22.8001C13.699 22.8067 15.6958 21.7669 18.4018 19.4089C18.4878 19.3324 18.5497 19.2325 18.5799 19.1215C18.6102 19.0105 18.6076 18.893 18.5724 18.7834C18.5372 18.6739 18.4709 18.5769 18.3816 18.5043C18.2923 18.4317 18.1839 18.3866 18.0694 18.3745V18.3739Z" fill="white"/>
<path fill-rule="evenodd" clip-rule="evenodd" d="M5.81322 17.1698C10.4908 16.652 13.5376 16.6988 18.1924 17.1806C18.5394 17.2168 18.8683 17.3534 19.1388 17.5737C19.4094 17.7939 19.6098 18.0883 19.7157 18.4207C19.8215 18.7532 19.8281 19.1092 19.7346 19.4454C19.6412 19.7815 19.4518 20.0831 19.1896 20.3132C16.4446 22.706 14.1586 24.0092 11.8354 24.0002C9.50562 23.9918 7.32042 22.6664 4.77582 20.3054C4.59363 20.1357 4.4484 19.9303 4.34919 19.7019C4.24998 19.4736 4.19893 19.2272 4.19922 18.9782C4.19835 18.5309 4.36254 18.0989 4.66036 17.7651C4.95818 17.4313 5.36867 17.2191 5.81322 17.1692V17.1698Z" fill="white"/>
<path d="M16.7992 9.60005C16.7992 10.8731 16.2935 12.094 15.3933 12.9942C14.4932 13.8943 13.2723 14.4 11.9992 14.4C10.7262 14.4 9.50528 13.8943 8.60511 12.9942C7.70493 12.094 7.19922 10.8731 7.19922 9.60005C7.19922 8.32701 7.70493 7.10611 8.60511 6.20594C9.50528 5.30576 10.7262 4.80005 11.9992 4.80005C13.2723 4.80005 14.4932 5.30576 15.3933 6.20594C16.2935 7.10611 16.7992 8.32701 16.7992 9.60005Z" fill="white"/>
<path fill-rule="evenodd" clip-rule="evenodd" d="M11.9992 13.2C12.954 13.2 13.8697 12.8208 14.5448 12.1456C15.2199 11.4705 15.5992 10.5548 15.5992 9.60005C15.5992 8.64527 15.2199 7.7296 14.5448 7.05446C13.8697 6.37933 12.954 6.00005 11.9992 6.00005C11.0444 6.00005 10.1288 6.37933 9.45363 7.05446C8.7785 7.7296 8.39922 8.64527 8.39922 9.60005C8.39922 10.5548 8.7785 11.4705 9.45363 12.1456C10.1288 12.8208 11.0444 13.2 11.9992 13.2ZM11.9992 14.4C13.2723 14.4 14.4932 13.8943 15.3933 12.9942C16.2935 12.094 16.7992 10.8731 16.7992 9.60005C16.7992 8.32701 16.2935 7.10611 15.3933 6.20594C14.4932 5.30576 13.2723 4.80005 11.9992 4.80005C10.7262 4.80005 9.50528 5.30576 8.60511 6.20594C7.70493 7.10611 7.19922 8.32701 7.19922 9.60005C7.19922 10.8731 7.70493 12.094 8.60511 12.9942C9.50528 13.8943 10.7262 14.4 11.9992 14.4Z" fill="white"/>
</svg>
