<svg width="21" height="18" viewBox="0 0 21 18" fill="none" xmlns="http://www.w3.org/2000/svg">
<path d="M18.1484 3H14.6484V2C14.6476 1.46981 14.4367 0.961564 14.0618 0.586663C13.6869 0.211762 13.1786 0.0007935 12.6484 0H8.64844C8.11825 0.0007935 7.61 0.211762 7.2351 0.586663C6.8602 0.961564 6.64923 1.46981 6.64844 2V3H3.14844C2.48556 3.00053 1.84998 3.26409 1.38126 3.73282C0.912529 4.20154 0.648967 4.83712 0.648438 5.5V15.5C0.648967 16.1629 0.912529 16.7985 1.38126 17.2672C1.84998 17.7359 2.48556 17.9995 3.14844 18H18.1484C18.8113 17.9995 19.4469 17.7359 19.9156 17.2672C20.3843 16.7985 20.6479 16.1629 20.6484 15.5V5.5C20.6479 4.83712 20.3843 4.20154 19.9156 3.73282C19.4469 3.26409 18.8113 3.00053 18.1484 3ZM7.64844 2C7.64844 1.73478 7.75379 1.48043 7.94133 1.29289C8.12887 1.10536 8.38322 1 8.64844 1H12.6484C12.9137 1 13.168 1.10536 13.3555 1.29289C13.5431 1.48043 13.6484 1.73478 13.6484 2V3H7.64844V2ZM19.6484 15.5C19.6484 15.8978 19.4904 16.2794 19.2091 16.5607C18.9278 16.842 18.5463 17 18.1484 17H3.14844C2.75061 17 2.36908 16.842 2.08778 16.5607C1.80647 16.2794 1.64844 15.8978 1.64844 15.5V9.027L7.49044 10.975C7.54146 10.9916 7.59478 11 7.64844 11H13.6484C13.7021 11 13.7554 10.9916 13.8064 10.975L19.6484 9.027V15.5ZM19.6484 8.006C19.595 8.00401 19.5417 8.01076 19.4904 8.026L13.5674 10H7.72944L1.80644 8.025C1.75521 8.00976 1.70184 8.00301 1.64844 8.005V5.5C1.64844 5.10218 1.80647 4.72064 2.08778 4.43934C2.36908 4.15804 2.75061 4 3.14844 4H18.1484C18.5463 4 18.9278 4.15804 19.2091 4.43934C19.4904 4.72064 19.6484 5.10218 19.6484 5.5V8.006Z" fill="white"/>
</svg>
