<svg width="51" height="51" viewBox="0 0 51 51" fill="none" xmlns="http://www.w3.org/2000/svg">
<circle cx="25.5" cy="25.5" r="22.9859" stroke="black" stroke-width="5.02817"/>
<path d="M16.2893 46.4642C15.871 47.4164 14.7558 47.8554 13.8382 47.366C11.5284 46.1341 9.42488 44.5421 7.60821 42.6464C5.3565 40.2967 3.58965 37.5266 2.40852 34.4941C1.22738 31.4617 0.655107 28.2262 0.724362 24.9726C0.793616 21.7189 1.50305 18.5108 2.81214 15.5313C4.12124 12.5519 6.00437 9.85942 8.35401 7.60771C10.7037 5.35601 13.4738 3.58916 16.5063 2.40802C19.5387 1.22689 22.7742 0.654618 26.0278 0.723874C28.6529 0.779749 31.2483 1.25233 33.7179 2.12035C34.6991 2.46521 35.1299 3.58354 34.7116 4.53571C34.2932 5.48788 33.1842 5.91194 32.1984 5.58046C30.1855 4.90363 28.0781 4.53463 25.9477 4.48928C23.1885 4.43055 20.4448 4.91585 17.8732 5.91748C15.3016 6.91911 12.9524 8.41744 10.9599 10.3269C8.96734 12.2364 7.3704 14.5197 6.26026 17.0463C5.15011 19.573 4.5485 22.2936 4.48977 25.0527C4.43104 27.8119 4.91634 30.5556 5.91797 33.1272C6.9196 35.6988 8.41793 38.048 10.3274 40.0405C11.8018 41.579 13.499 42.8816 15.359 43.9064C16.2699 44.4083 16.7077 45.512 16.2893 46.4642Z" fill="#084FC7"/>
<path d="M18.0402 20.0118H18.1524V21.1131H18.0402C17.3527 21.1131 16.7775 21.2253 16.3146 21.4498C15.8516 21.6696 15.4845 21.9665 15.2132 22.3407C14.942 22.7101 14.7456 23.1263 14.624 23.5893C14.5071 24.0523 14.4486 24.5222 14.4486 24.9992V26.5004C14.4486 26.954 14.5024 27.3562 14.61 27.7069C14.7175 28.053 14.8648 28.3453 15.0519 28.5838C15.239 28.8223 15.4494 29.0023 15.6832 29.1239C15.9217 29.2455 16.1696 29.3063 16.4268 29.3063C16.7261 29.3063 16.9927 29.2502 17.2265 29.1379C17.4603 29.021 17.6567 28.8597 17.8157 28.6539C17.9794 28.4435 18.1033 28.1956 18.1875 27.9104C18.2717 27.6251 18.3138 27.3118 18.3138 26.9704C18.3138 26.6664 18.2764 26.3741 18.2015 26.0935C18.1267 25.8083 18.0121 25.5557 17.8578 25.336C17.7035 25.1115 17.5094 24.9361 17.2756 24.8098C17.0464 24.6789 16.7729 24.6134 16.4549 24.6134C16.0948 24.6134 15.7581 24.7023 15.4447 24.88C15.1361 25.053 14.8812 25.2822 14.6801 25.5674C14.4837 25.848 14.3715 26.1543 14.3434 26.4864L13.656 26.4794C13.7214 25.9556 13.843 25.509 14.0207 25.1395C14.2031 24.7654 14.4276 24.4614 14.6942 24.2276C14.9654 23.9891 15.267 23.8161 15.5991 23.7085C15.9358 23.5963 16.2912 23.5402 16.6653 23.5402C17.175 23.5402 17.6146 23.636 17.9841 23.8278C18.3535 24.0195 18.6575 24.2767 18.896 24.5994C19.1345 24.9174 19.3099 25.2775 19.4221 25.6797C19.539 26.0772 19.5975 26.4864 19.5975 26.9073C19.5975 27.3889 19.5297 27.8402 19.394 28.2611C19.2584 28.682 19.055 29.0514 18.7838 29.3694C18.5172 29.6874 18.1875 29.9353 17.7947 30.113C17.4018 30.2907 16.9459 30.3796 16.4268 30.3796C15.875 30.3796 15.3933 30.2673 14.9818 30.0428C14.5702 29.8137 14.2288 29.5097 13.9576 29.1309C13.6864 28.7521 13.4829 28.3312 13.3473 27.8683C13.2117 27.4053 13.1439 26.9353 13.1439 26.4583V25.848C13.1439 25.1278 13.2164 24.4217 13.3614 23.7296C13.5063 23.0375 13.7565 22.4108 14.1119 21.8496C14.472 21.2884 14.9701 20.8418 15.6061 20.5098C16.2421 20.1778 17.0534 20.0118 18.0402 20.0118ZM22.7822 25.378L21.744 25.1115L22.2561 20.0258H27.4961V21.2253H23.3574L23.0487 24.0031C23.2358 23.8956 23.4719 23.795 23.7572 23.7015C24.0472 23.608 24.3792 23.5612 24.7533 23.5612C25.2256 23.5612 25.6489 23.6431 26.023 23.8067C26.3971 23.9657 26.7151 24.1949 26.977 24.4942C27.2435 24.7935 27.447 25.1536 27.5873 25.5745C27.7276 25.9953 27.7977 26.4653 27.7977 26.9844C27.7977 27.4754 27.7299 27.9267 27.5943 28.3383C27.4633 28.7498 27.2646 29.1099 26.998 29.4185C26.7315 29.7225 26.3948 29.9587 25.9879 30.127C25.5857 30.2954 25.1111 30.3796 24.5639 30.3796C24.1524 30.3796 23.7619 30.3234 23.3924 30.2112C23.0277 30.0943 22.7003 29.9189 22.4104 29.6851C22.1251 29.4466 21.8913 29.152 21.7089 28.8012C21.5312 28.4458 21.419 28.0296 21.3722 27.5526H22.6068C22.6629 27.9361 22.7751 28.2588 22.9435 28.5206C23.1119 28.7825 23.3316 28.9813 23.6029 29.1169C23.8788 29.2478 24.1991 29.3133 24.5639 29.3133C24.8726 29.3133 25.1461 29.2595 25.3846 29.152C25.6231 29.0444 25.8242 28.8901 25.9879 28.689C26.1516 28.4879 26.2755 28.2447 26.3597 27.9595C26.4485 27.6742 26.493 27.3539 26.493 26.9984C26.493 26.6758 26.4485 26.3765 26.3597 26.1006C26.2708 25.8246 26.1375 25.5838 25.9598 25.378C25.7868 25.1723 25.574 25.0133 25.3215 24.901C25.069 24.7841 24.779 24.7257 24.4517 24.7257C24.0168 24.7257 23.6871 24.7841 23.4626 24.901C23.2428 25.0179 23.016 25.177 22.7822 25.378ZM29.1095 22.5301V21.9899C29.1095 21.6018 29.1936 21.2487 29.362 20.9307C29.5303 20.6127 29.7712 20.3578 30.0845 20.1661C30.3978 19.9743 30.7696 19.8785 31.1999 19.8785C31.6394 19.8785 32.0136 19.9743 32.3222 20.1661C32.6355 20.3578 32.8764 20.6127 33.0447 20.9307C33.2131 21.2487 33.2973 21.6018 33.2973 21.9899V22.5301C33.2973 22.9088 33.2131 23.2572 33.0447 23.5753C32.8811 23.8933 32.6426 24.1481 32.3292 24.3399C32.0206 24.5316 31.6488 24.6275 31.2139 24.6275C30.779 24.6275 30.4025 24.5316 30.0845 24.3399C29.7712 24.1481 29.5303 23.8933 29.362 23.5753C29.1936 23.2572 29.1095 22.9088 29.1095 22.5301ZM30.0845 21.9899V22.5301C30.0845 22.7452 30.1243 22.9486 30.2038 23.1403C30.2879 23.3321 30.4142 23.4887 30.5826 23.6103C30.7509 23.7272 30.9614 23.7857 31.2139 23.7857C31.4664 23.7857 31.6745 23.7272 31.8382 23.6103C32.0019 23.4887 32.1235 23.3321 32.203 23.1403C32.2825 22.9486 32.3222 22.7452 32.3222 22.5301V21.9899C32.3222 21.7701 32.2801 21.5644 32.1959 21.3726C32.1164 21.1762 31.9925 21.0195 31.8242 20.9026C31.6605 20.781 31.4524 20.7202 31.1999 20.7202C30.952 20.7202 30.7439 20.781 30.5755 20.9026C30.4119 21.0195 30.2879 21.1762 30.2038 21.3726C30.1243 21.5644 30.0845 21.7701 30.0845 21.9899ZM34.0829 28.2821V27.735C34.0829 27.3515 34.1671 27.0008 34.3354 26.6828C34.5038 26.3648 34.7446 26.1099 35.058 25.9182C35.3713 25.7264 35.7431 25.6306 36.1733 25.6306C36.6129 25.6306 36.987 25.7264 37.2957 25.9182C37.609 26.1099 37.8498 26.3648 38.0182 26.6828C38.1865 27.0008 38.2707 27.3515 38.2707 27.735V28.2821C38.2707 28.6656 38.1865 29.0164 38.0182 29.3344C37.8545 29.6524 37.616 29.9072 37.3027 30.099C36.994 30.2907 36.6222 30.3866 36.1873 30.3866C35.7524 30.3866 35.3783 30.2907 35.065 30.099C34.7517 29.9072 34.5085 29.6524 34.3354 29.3344C34.1671 29.0164 34.0829 28.6656 34.0829 28.2821ZM35.058 27.735V28.2821C35.058 28.4973 35.0977 28.703 35.1772 28.8994C35.2614 29.0912 35.3877 29.2478 35.556 29.3694C35.7244 29.4863 35.9348 29.5448 36.1873 29.5448C36.4399 29.5448 36.648 29.4863 36.8116 29.3694C36.98 29.2478 37.1039 29.0912 37.1834 28.8994C37.2629 28.7077 37.3027 28.5019 37.3027 28.2821V27.735C37.3027 27.5152 37.2606 27.3094 37.1764 27.1177C37.0969 26.926 36.973 26.7716 36.8046 26.6547C36.641 26.5331 36.4305 26.4723 36.1733 26.4723C35.9255 26.4723 35.7173 26.5331 35.549 26.6547C35.3853 26.7716 35.2614 26.926 35.1772 27.1177C35.0977 27.3094 35.058 27.5152 35.058 27.735ZM36.496 21.4778L31.5085 29.4606L30.779 28.9976L35.7665 21.0149L36.496 21.4778Z" fill="#084FC7"/>
</svg>
