<svg width="24" height="20" viewBox="0 0 24 20" fill="none" xmlns="http://www.w3.org/2000/svg">
<path d="M7.2 9.59995C9.52125 9.59995 11.4 7.7212 11.4 5.39995C11.4 3.0787 9.52125 1.19995 7.2 1.19995C4.87875 1.19995 3 3.0787 3 5.39995C3 7.7212 4.87875 9.59995 7.2 9.59995ZM10.08 10.8H9.76875C8.98875 11.175 8.1225 11.4 7.2 11.4C6.2775 11.4 5.415 11.175 4.63125 10.8H4.32C1.935 10.8 0 12.735 0 15.12V16.2C0 17.1937 0.80625 18 1.8 18H12.6C13.5937 18 14.4 17.1937 14.4 16.2V15.12C14.4 12.735 12.465 10.8 10.08 10.8Z" fill="white"/>
<path d="M18.0001 9.5999C19.9876 9.5999 21.6001 7.9874 21.6001 5.9999C21.6001 4.0124 19.9876 2.3999 18.0001 2.3999C16.0126 2.3999 14.4001 4.0124 14.4001 5.9999C14.4001 7.9874 16.0126 9.5999 18.0001 9.5999ZM19.8001 10.7999H19.6576C19.1363 10.9799 18.5851 11.0999 18.0001 11.0999C17.4151 11.0999 16.8638 10.9799 16.3426 10.7999H16.2001C15.4351 10.7999 14.7301 11.0212 14.1113 11.3774C15.0263 12.3637 15.6001 13.6724 15.6001 15.1199V16.5599C15.6001 16.6424 15.5813 16.7212 15.5776 16.7999H22.2001C23.1938 16.7999 24.0001 15.9937 24.0001 14.9999C24.0001 12.6787 22.1213 10.7999 19.8001 10.7999Z" fill="white"/>
</svg>
