<svg width="16" height="18" viewBox="0 0 16 18" fill="none" xmlns="http://www.w3.org/2000/svg">
<path d="M2.57423 14.0625H15.3125V0.5625H2.53907C1.97397 0.564317 1.43254 0.789608 1.03295 1.1892C0.633358 1.58879 0.408067 2.13022 0.40625 2.69532V15.126H0.406637C0.406637 15.1313 0.40625 15.1365 0.40625 15.1419C0.40625 16.3864 1.38296 17.4376 2.53907 17.4376H15.3125V16.3125H2.53907C2.01162 16.3125 1.53125 15.7545 1.53125 15.1418C1.53125 14.5568 2.00885 14.0625 2.57423 14.0625ZM11.6562 1.69921V7.77477L9.95469 6.28098L8.28125 7.76602V1.69921H11.6562ZM7.15625 1.6875V9.28125H8.26863L9.95877 7.78152L11.667 9.28125H12.7812V1.6875H14.1875V12.9375H3.78406L3.78125 1.6875H7.15625ZM2.53907 1.6875H2.65625L2.65892 12.9375H2.57409C2.20828 12.9376 1.84883 13.0331 1.53125 13.2146V2.70411C1.53039 2.43575 1.63601 2.178 1.82495 1.98741C2.01389 1.79683 2.27071 1.68897 2.53907 1.6875Z" fill="black"/>
</svg>
