<svg width="19" height="24" viewBox="0 0 19 24" fill="none" xmlns="http://www.w3.org/2000/svg">
<path opacity="0.12" d="M9.7145 23.9997C13.9169 23.9997 17.3235 23.6121 17.3235 23.1339C17.3235 22.6557 13.9169 22.2681 9.7145 22.2681C5.51215 22.2681 2.10547 22.6557 2.10547 23.1339C2.10547 23.6121 5.51215 23.9997 9.7145 23.9997Z" fill="black"/>
<path d="M7.28203 8.99685V8.0807C7.28208 7.95909 7.25817 7.83867 7.21165 7.72631C7.16514 7.61395 7.09694 7.51186 7.01095 7.42587C6.92496 7.33988 6.82287 7.27168 6.71051 7.22517C6.59815 7.17865 6.47773 7.15474 6.35612 7.15479H1.81106C1.68943 7.15474 1.56899 7.17865 1.45661 7.22516C1.34423 7.27167 1.24211 7.33986 1.15609 7.42585C1.07007 7.51183 1.00184 7.61392 0.955282 7.72628C0.908727 7.83864 0.884766 7.95908 0.884766 8.0807V19.9967C0.884766 20.1183 0.908725 20.2387 0.955276 20.3511C1.00183 20.4635 1.07006 20.5656 1.15607 20.6516C1.24208 20.7377 1.3442 20.8059 1.45658 20.8524C1.56896 20.899 1.68941 20.9229 1.81106 20.9229H17.4851C17.7308 20.9229 17.9664 20.8254 18.1401 20.6516C18.3138 20.4779 18.4114 20.2423 18.4114 19.9967V10.8491C18.4114 10.7274 18.3875 10.607 18.3409 10.4946C18.2944 10.3823 18.2261 10.2802 18.1401 10.1942C18.0541 10.1082 17.952 10.04 17.8396 9.99351C17.7272 9.94701 17.6068 9.92309 17.4851 9.92314H8.2072C7.96173 9.92284 7.72641 9.82512 7.55294 9.65144C7.37947 9.47776 7.28203 9.24232 7.28203 8.99685Z" fill="#393D3D"/>
<rect x="1.0332" y="15.5498" width="17.7055" height="5.91384"/>
<rect x="7.35352" y="0.198242" width="11.1516" height="14.1806"/>
<path d="M17.8159 0.00044843L7.23198 0.0207682C7.16643 0.0208941 7.11338 0.0741385 7.11351 0.139693L7.13931 13.5761C7.13943 13.6417 7.19268 13.6947 7.25823 13.6946L17.8422 13.6743C17.9078 13.6742 17.9608 13.6209 17.9607 13.5554L17.9349 0.118918C17.9347 0.053363 17.8815 0.000322574 17.8159 0.00044843Z" fill="#F2F2F2"/>
<path opacity="0.23" d="M16.5505 4.59871L9.4707 4.6123L9.47111 4.82453L16.5509 4.81094L16.5505 4.59871Z" fill="black"/>
<path opacity="0.23" d="M16.5529 5.55825L8.23438 5.57422L8.23471 5.74888L16.5533 5.73291L16.5529 5.55825Z" fill="black"/>
<path opacity="0.23" d="M16.5549 6.60659L8.23633 6.62256L8.23666 6.79722L16.5552 6.78125L16.5549 6.60659Z" fill="black"/>
<path opacity="0.23" d="M16.5569 7.75258L8.23828 7.76855L8.23862 7.94322L16.5572 7.92725L16.5569 7.75258Z" fill="black"/>
<path d="M13.478 9.95772L8.24219 9.96777L8.24252 10.1424L13.4783 10.1324L13.478 9.95772Z" fill="#E6E6E7"/>
<path opacity="0.23" d="M13.4761 8.91329L8.24023 8.92334L8.24057 9.098L13.4764 9.08795L13.4761 8.91329Z" fill="black"/>
<path d="M16.5627 10.8737L8.24414 10.8896L8.24448 11.0643L16.563 11.0483L16.5627 10.8737Z" fill="#E6E6E7"/>
<path d="M16.5647 11.9225L8.24609 11.9385L8.24643 12.1131L16.565 12.0972L16.5647 11.9225Z" fill="#E6E6E7"/>
<path d="M16.5666 13.068L8.24805 13.084L8.24838 13.2586L16.567 13.2427L16.5666 13.068Z" fill="#E6E6E7"/>
<path d="M16.7911 1.07965L8.17578 1.09619L8.18098 3.80256L16.7963 3.78602L16.7911 1.07965Z" fill="#8C77A3"/>
<path d="M16.4788 8.0966L13.8926 8.10156L13.8974 10.625L16.4836 10.62L16.4788 8.0966Z" fill="#9EBAC6"/>
<path d="M6.39764 8.84207V7.92592C6.39764 7.80429 6.37368 7.68386 6.32713 7.5715C6.28057 7.45913 6.21234 7.35705 6.12632 7.27106C6.0403 7.18508 5.93818 7.11688 5.8258 7.07037C5.71342 7.02386 5.59298 6.99995 5.47135 7H0.926291C0.804667 6.99995 0.684224 7.02386 0.571843 7.07037C0.459463 7.11688 0.357346 7.18508 0.271327 7.27106C0.185308 7.35705 0.117072 7.45913 0.0705168 7.5715C0.0239617 7.68386 -1.00082e-08 7.80429 0 7.92592V19.8419C0 20.0875 0.0975911 20.3231 0.271304 20.4969C0.445018 20.6706 0.680624 20.7682 0.926291 20.7682H16.6019C16.8475 20.7681 17.083 20.6704 17.2566 20.4967C17.4302 20.323 17.5278 20.0875 17.5278 19.8419V10.6943C17.5278 10.5727 17.5038 10.4523 17.4573 10.3399C17.4108 10.2276 17.3426 10.1255 17.2566 10.0396C17.1706 9.95357 17.0685 9.88537 16.9562 9.83884C16.8439 9.79231 16.7235 9.76836 16.6019 9.76836H7.32394C7.07827 9.76836 6.84266 9.67077 6.66895 9.49705C6.49524 9.32334 6.39764 9.08773 6.39764 8.84207Z" fill="#656768"/>
</svg>
