<svg width="18" height="16" viewBox="0 0 18 16" fill="none" xmlns="http://www.w3.org/2000/svg">
<g clip-path="url(#clip0_941_8146)">
<path d="M15.398 3.55258C15.4609 3.55258 15.5211 3.52763 15.5655 3.48322C15.6099 3.4388 15.6349 3.37856 15.6349 3.31574V2.52706C15.6346 2.32136 15.5528 2.12415 15.4074 1.97869C15.2619 1.83324 15.0647 1.75141 14.859 1.75116H13.5862L13.2958 0.894269C13.2761 0.835995 13.2345 0.787687 13.1797 0.759573C13.125 0.731458 13.0615 0.725743 13.0026 0.743637L6.1091 2.83922C6.05205 2.86003 6.00514 2.90193 5.97805 2.95629C5.95095 3.01065 5.94573 3.07332 5.96346 3.13142C5.98118 3.18951 6.0205 3.23859 6.07333 3.26856C6.12615 3.29854 6.18846 3.30711 6.24742 3.29253L12.9212 1.26327L13.5573 3.14143C13.5775 3.20091 13.6204 3.24995 13.6768 3.27776C13.7331 3.30556 13.7981 3.30985 13.8576 3.28969C13.9171 3.26953 13.9662 3.22656 13.994 3.17024C14.0218 3.11392 14.0261 3.04886 14.0059 2.98937L13.7468 2.22437H14.8595C15.0262 2.22437 15.1617 2.35985 15.1617 2.52658V3.31574C15.1612 3.44648 15.2673 3.55258 15.398 3.55258Z" fill="black"/>
<path d="M17.2895 7.10587C17.2267 7.10587 17.1664 7.13082 17.122 7.17524C17.0776 7.21965 17.0526 7.27989 17.0526 7.34271C17.0526 7.40552 17.0776 7.46577 17.122 7.51018C17.1664 7.5546 17.2267 7.57955 17.2895 7.57955C17.4557 7.57955 17.5263 7.65013 17.5263 7.81639V10.6585C17.5263 10.8248 17.4557 10.8953 17.2895 10.8953H13.5C13.3337 10.8953 13.2632 10.8248 13.2632 10.6585V8.29008C13.2632 8.12381 13.3337 8.05324 13.5 8.05324H16.3421C16.4049 8.05324 16.4652 8.02828 16.5096 7.98387C16.554 7.93945 16.5789 7.87921 16.5789 7.81639V4.97429C16.5789 4.54276 16.2999 4.26376 15.8684 4.26376H1.42105C0.837 4.26376 0.473684 3.90045 0.473684 3.31639C0.473684 2.73234 0.837 2.36902 1.42105 2.36902H3.82547L2.39211 2.84176C2.3615 2.85059 2.33298 2.8655 2.30827 2.8856C2.28356 2.90571 2.26316 2.93059 2.24828 2.95876C2.23341 2.98693 2.22437 3.01782 2.22172 3.04956C2.21906 3.08131 2.22283 3.11326 2.23281 3.14351C2.24279 3.17377 2.25876 3.2017 2.27979 3.22563C2.30081 3.24957 2.32645 3.26901 2.35516 3.28281C2.38388 3.29661 2.41508 3.30447 2.4469 3.30592C2.47872 3.30738 2.51051 3.3024 2.54037 3.29129L11.1231 0.461972C11.1526 0.452206 11.1799 0.436715 11.2035 0.416385C11.2271 0.396055 11.2464 0.371283 11.2604 0.343485C11.2744 0.315686 11.2827 0.285404 11.285 0.254368C11.2873 0.223333 11.2835 0.192151 11.2737 0.162603C11.2639 0.133056 11.2484 0.105722 11.2281 0.0821606C11.2078 0.0585997 11.183 0.0392739 11.1552 0.0252864C11.1274 0.011299 11.0971 0.00292393 11.0661 0.000639417C11.035 -0.0016451 11.0039 0.00220568 10.9743 0.0119719L5.24274 1.90197C5.23184 1.90008 5.22189 1.89534 5.21053 1.89534H1.42105C0.571263 1.89534 0 2.4666 0 3.31639V13.7374C0 14.5872 0.571263 15.1585 1.42105 15.1585H15.8684C16.2999 15.1585 16.5789 14.8795 16.5789 14.448V12.0796C16.5789 12.0167 16.554 11.9565 16.5096 11.9121C16.4652 11.8677 16.4049 11.8427 16.3421 11.8427C16.2793 11.8427 16.219 11.8677 16.1746 11.9121C16.1302 11.9565 16.1053 12.0167 16.1053 12.0796V14.448C16.1053 14.6142 16.0347 14.6848 15.8684 14.6848H1.42105C0.837 14.6848 0.473684 14.3215 0.473684 13.7374V4.41155C0.716684 4.61666 1.03832 4.73745 1.42105 4.73745H15.8684C16.0347 4.73745 16.1053 4.80802 16.1053 4.97429V7.57955H13.5C13.0685 7.57955 12.7895 7.85855 12.7895 8.29008V10.6585C12.7895 11.09 13.0685 11.369 13.5 11.369H17.2895C17.721 11.369 18 11.09 18 10.6585V7.81639C18 7.38487 17.721 7.10587 17.2895 7.10587Z" fill="black"/>
<path d="M15.1573 9.94737C15.4189 9.94737 15.631 9.73529 15.631 9.47368C15.631 9.21208 15.4189 9 15.1573 9C14.8957 9 14.6836 9.21208 14.6836 9.47368C14.6836 9.73529 14.8957 9.94737 15.1573 9.94737Z" fill="black"/>
</g>
<defs>
<clipPath id="clip0_941_8146">
<rect width="18" height="15.1579" fill="white"/>
</clipPath>
</defs>
</svg>
