<svg width="18" height="18" viewBox="0 0 18 18" fill="none" xmlns="http://www.w3.org/2000/svg">
<path d="M8.30742 2.30625C8.34961 2.30625 8.40234 2.32734 8.44805 2.39062C8.24414 2.09883 8.67656 2.22539 8.70117 1.94766C8.94727 1.76484 8.85938 1.64531 8.92969 1.63828L9.00703 1.575C8.85586 1.63125 8.80312 1.6418 8.76094 1.6418H8.69063C8.63789 1.6418 8.55 1.65234 8.34258 1.71562C7.86797 1.75078 7.52695 2.26406 7.36523 2.27813C7.2 2.36602 7.20703 2.38359 7.2457 2.38359C7.25625 2.38359 7.27031 2.38008 7.28437 2.38008C7.29844 2.38008 7.30898 2.37656 7.31953 2.37656C7.3582 2.37656 7.34766 2.39414 7.12266 2.49961C7.17539 2.51367 6.72891 2.71055 6.72539 3.01992C6.71133 3.13945 6.76055 3.22031 6.84141 3.22031C6.91172 3.22031 6.99961 3.16758 7.09453 3.03398C7.41094 2.66836 8.07891 2.6332 8.36719 2.41172C8.18789 2.39766 8.22305 2.30625 8.30742 2.30625ZM6.70078 2.4293C6.66914 2.4293 6.71133 2.39062 6.75703 2.35195C6.80625 2.31328 6.8625 2.27461 6.8625 2.27461L6.85898 2.27813C7.04883 2.2043 6.93281 2.18672 7.03477 2.1375H7.02773C7.00664 2.1375 7.04531 2.10938 7.08047 2.07773C7.11562 2.04961 7.14727 2.01797 7.11562 2.01797C7.09805 2.01797 7.05234 2.02852 6.975 2.06016C6.99961 2.025 7.09453 2.00039 7.22813 1.92656C7.03477 1.98984 6.88359 2.02852 6.86602 2.02852C6.85195 2.02852 6.93281 2.00039 7.17539 1.92656C7.18594 1.92656 7.19648 1.93008 7.20352 1.93008C7.22812 1.93008 7.23867 1.92305 7.23516 1.91602C7.23164 1.90898 7.21758 1.90547 7.19297 1.90547C6.84492 1.93359 6.58477 2.15156 6.66211 2.17969C6.70781 2.16563 6.73945 2.15859 6.76055 2.15859C6.80625 2.15859 6.78516 2.19727 6.69375 2.25352C6.73594 2.35195 5.99062 2.60508 5.90625 2.69648C5.94844 2.67188 5.97656 2.66484 5.99062 2.66484C6.04688 2.66484 5.97305 2.77383 5.89922 2.82656C5.94492 2.86875 5.98008 2.88281 6.0082 2.88281C6.08203 2.88281 6.11367 2.78086 6.17695 2.74922C6.19102 2.77734 6.20508 2.79141 6.22266 2.79141C6.28242 2.79141 6.35625 2.64375 6.41602 2.56641C6.43359 2.58398 6.45469 2.59805 6.48281 2.59805C6.53906 2.59805 6.62344 2.55234 6.75703 2.42227C6.72891 2.42578 6.70781 2.4293 6.70078 2.4293ZM5.89219 3.07617C5.76562 3.15352 5.69883 3.18516 5.6707 3.18516C5.61797 3.18516 5.68828 3.08672 5.75156 2.98477C5.81484 2.88633 5.87109 2.78789 5.79023 2.78789C5.75156 2.78789 5.68125 2.80898 5.56875 2.86523C5.26289 3.06914 4.74609 3.63164 4.51758 3.63164H4.49648C4.86562 3.36094 4.75664 2.83008 5.27344 2.69297C5.7832 2.40117 6.13125 2.49258 6.58477 2.15859C6.45117 2.22539 6.2543 2.29922 6.20859 2.29922C6.18047 2.29922 6.22266 2.26406 6.40547 2.17617C6.38789 2.17969 6.37383 2.1832 6.36328 2.1832C6.24023 2.1832 7.17188 1.84922 7.21758 1.84219C6.83437 1.89492 6.21562 2.21484 6.13125 2.21484C6.1207 2.21484 6.1207 2.21133 6.1207 2.2043C6.13477 2.19375 6.13477 2.18672 6.1207 2.18672C6.075 2.18672 5.88516 2.25 5.6918 2.31328C5.50195 2.37656 5.30859 2.44336 5.26641 2.44336C5.25234 2.44336 5.25234 2.43633 5.27344 2.42227C3.61406 3.36445 2.22891 4.95352 1.79648 6.83789C1.97578 7.24922 1.85273 8.0332 2.14805 8.26172C2.48555 8.54648 1.85977 9.37266 2.025 9.88242C2.19375 10.8035 2.92148 11.4328 2.99883 12.375C3.13242 13.0219 3.62109 13.8129 3.825 14.2242C3.97969 14.3789 4.40508 14.8254 4.47891 14.8254C4.50703 14.8254 4.48945 14.7586 4.37695 14.5793C4.30664 14.3789 3.89883 13.8551 4.0957 13.8551C4.10625 13.8551 4.1168 13.8551 4.13086 13.8586C3.88828 13.6125 4.66875 13.6793 4.12383 13.3453C4.06055 13.268 4.04648 13.2434 4.06055 13.2434C4.07812 13.2434 4.12734 13.2715 4.18359 13.2996C4.24336 13.3277 4.31367 13.3559 4.36992 13.3559C4.45781 13.3559 4.51758 13.2961 4.48242 13.0781C4.49648 13.0852 4.51055 13.0852 4.52109 13.0852C4.6125 13.0852 4.58086 12.9059 4.58789 12.7266C4.59492 12.5473 4.64062 12.368 4.88672 12.368C4.91484 12.368 4.94648 12.3715 4.97813 12.375C5.54766 12.0656 5.05195 11.2113 5.70586 10.8984C5.68125 10.1883 4.72852 10.1531 4.36992 9.86484C4.31016 9.9 4.25391 9.91055 4.19766 9.91055C4.13438 9.91055 4.07812 9.89648 4.02891 9.87891C3.97969 9.86484 3.93398 9.84727 3.90234 9.84727C3.89531 9.84727 3.88828 9.84727 3.88125 9.85078C4.49297 9.68906 4.04648 8.83828 3.54023 8.83828H3.50508C3.46641 8.46914 3.27656 8.60977 3.25547 8.30391C3.22383 8.32148 3.19219 8.32852 3.16055 8.32852C3.07617 8.32852 2.99883 8.26875 2.93203 8.2125C2.86523 8.15273 2.80898 8.09648 2.75977 8.09648C2.72109 8.09648 2.68594 8.13516 2.6543 8.24766C2.68945 8.07539 2.67891 8.01914 2.64375 8.01914C2.60859 8.01914 2.54531 8.07891 2.475 8.13867C2.4082 8.19844 2.33086 8.2582 2.27109 8.2582H2.25352C1.84219 7.96641 2.25703 7.44961 2.03906 7.05234C2.17969 6.90117 2.23594 6.64453 2.17266 6.64453C2.14102 6.64453 2.07773 6.70781 1.9793 6.88008C1.83867 6.52148 2.21133 5.70938 2.52773 5.66367C2.53828 5.66367 2.54531 5.66016 2.55586 5.66016C2.61211 5.66016 2.66836 5.68828 2.71758 5.74805C2.7457 5.91328 2.67539 6.26133 2.70352 6.26133C2.71758 6.26133 2.7457 6.19102 2.81602 6.0082C2.90742 5.58984 3.54727 5.2875 3.61406 5.03086C3.61758 5.03438 3.61758 5.03437 3.62109 5.03437C3.69492 5.03437 4.16953 4.61602 4.37695 4.57031C4.45781 4.48945 4.51406 4.46133 4.55625 4.46133C4.60195 4.46133 4.62656 4.49648 4.64414 4.52813C4.66172 4.56328 4.67578 4.59492 4.69336 4.59492C4.70742 4.59492 4.725 4.57383 4.75664 4.51406C4.64766 4.29961 4.92891 4.0957 4.85156 4.0957C4.82344 4.0957 4.73906 4.12383 4.5668 4.19414C4.53867 4.2082 4.52461 4.21172 4.51758 4.21172C4.49648 4.21172 4.58086 4.15547 4.70391 4.09922C4.82695 4.04297 4.98164 3.98672 5.11172 3.98672C5.175 3.98672 5.23125 4.00078 5.27344 4.03594C5.81836 3.90586 5.51953 3.72656 5.54766 3.72656H5.55469C5.70937 3.63516 5.66367 3.29063 5.89219 3.07617ZM3.45586 4.51406C3.44883 4.51406 3.48047 4.46836 3.58594 4.33828C3.80391 4.17656 3.97969 4.06758 3.7793 3.96211C3.86719 3.92344 3.95156 3.87773 4.03242 3.82852C4.02891 4.00078 3.88477 4.41914 3.80742 4.41914C3.78984 4.41914 3.77227 4.39453 3.76523 4.3418C3.81094 4.26094 3.81445 4.2293 3.79688 4.2293C3.76875 4.2293 3.68789 4.29961 3.61055 4.37344C3.5332 4.44023 3.46289 4.51406 3.45586 4.51406ZM3.65625 4.60898C3.56133 4.60898 3.57891 4.54922 3.8707 4.48945C3.99727 4.47187 3.89883 4.47891 4.05 4.44375C3.90234 4.56328 3.73711 4.60898 3.65625 4.60898ZM9.12305 4.25391C9.16523 4.24687 9.19687 4.24688 9.22148 4.24688C9.32344 4.24688 9.27773 4.28906 9.21797 4.33125C9.1582 4.37344 9.08438 4.41563 9.12656 4.41563C9.15117 4.41563 9.21797 4.40156 9.35508 4.36289C10.0477 4.31367 9.08437 3.72656 9.23906 3.52969L9.19688 3.51562C8.91211 3.87773 9.38672 3.88477 9.12305 4.25391ZM8.83477 4.26797C8.88398 4.26797 8.94727 4.21172 9.01406 4.05352C9.10547 3.94453 9.0668 3.93047 8.96836 3.87773C8.69766 3.94805 8.72227 4.26797 8.83477 4.26797ZM11.2605 5.38242C11.25 5.38242 11.243 5.38594 11.2359 5.38945C11.2641 5.39648 11.2922 5.40352 11.3203 5.40352C11.2922 5.38945 11.2746 5.38242 11.2605 5.38242ZM15.982 6.25781C16.0418 6.38789 16.0734 6.44062 16.077 6.44062C16.1016 6.44062 15.634 5.30156 15.4406 5.09766C14.4316 3.43828 12.7723 2.16914 10.8809 1.69453H10.8773C10.8281 1.69453 10.8844 1.71914 10.9512 1.74375C11.018 1.76836 11.0988 1.79297 11.0988 1.79297C11.0988 1.79297 11.0461 1.77539 10.8844 1.72969C10.7051 1.67695 10.5223 1.63828 10.3359 1.62422C10.3043 1.63477 11.1059 1.95117 11.6438 2.11641C11.4645 2.06016 11.2781 2.01094 11.2324 2.01094C11.2008 2.01094 11.2324 2.03203 11.3625 2.08828C11.2043 2.04258 11.1375 2.02148 11.1305 2.02148C11.1199 2.02148 11.3414 2.09531 11.5488 2.16914C11.7598 2.24297 11.9602 2.3168 11.9039 2.3168C11.8898 2.3168 11.8512 2.30977 11.7914 2.29922C11.9707 2.39766 12.034 2.43633 12.0234 2.43633C12.0059 2.43633 11.7844 2.33086 11.5559 2.22539C11.3309 2.11992 11.1023 2.01445 11.0707 2.01445C11.0531 2.01445 11.0988 2.04961 11.2535 2.14102C11.4645 2.23242 11.6754 2.32383 11.6156 2.32383C11.5875 2.32383 11.5066 2.30625 11.3484 2.26055C11.7 2.43984 11.0988 2.36953 11.3027 2.61211C11.1902 2.50664 11.1445 2.47148 11.134 2.47148C11.1234 2.47148 11.1516 2.51367 11.1797 2.55586C11.2078 2.59805 11.2289 2.64023 11.2043 2.64023H11.1973C11.4434 2.90742 11.025 2.66836 11.3238 2.90742C11.0988 2.80547 10.7156 2.63672 10.8879 2.63672C10.9301 2.63672 11.0109 2.64727 11.1375 2.67539C10.909 2.4082 10.2621 2.39766 10.248 2.36602C10.0863 2.37656 10.0828 2.49961 10.1109 2.72461C10.1074 3.07969 9.75937 3.08672 9.80508 3.29062C9.80508 3.28711 9.80859 3.28711 9.80859 3.28711C9.81563 3.28711 9.81914 3.35742 9.84023 3.43125C9.86484 3.50156 9.90703 3.57539 9.99844 3.57539C10.0477 3.57539 10.1109 3.5543 10.1883 3.50156C10.2973 3.69844 10.3957 3.76875 10.473 3.76875C10.5891 3.76875 10.6594 3.61055 10.6523 3.46641C10.5258 3.39609 10.3605 2.8125 10.5434 2.8125C10.5715 2.8125 10.6066 2.82656 10.6523 2.8582C10.3676 3.55781 11.7773 3.09023 10.9793 3.41016C11.1586 3.6457 10.8668 3.63516 10.9512 3.91992C10.8141 3.95859 10.6629 3.99375 10.5293 3.99375C10.3324 3.99375 10.1813 3.90938 10.1988 3.61406C9.95273 3.74414 10.4449 4.18359 9.95625 4.18359H9.92812C9.69258 4.61602 8.81016 4.46836 9.50273 4.92539C9.54141 5.12578 9.41484 5.16094 9.25313 5.16094C9.21094 5.16094 9.16523 5.15742 9.11953 5.15391C9.07383 5.15039 9.02812 5.15039 8.98594 5.15039C8.80313 5.15039 8.67305 5.19609 8.78555 5.48086C8.70469 5.77617 8.89453 5.90625 9.12656 5.90625C9.40781 5.90625 9.75234 5.72344 9.77695 5.42109C9.92813 5.19258 10.1215 5.09766 10.3219 5.09766C10.6383 5.09766 10.9723 5.33672 11.1902 5.63203C11.2078 5.66016 11.2219 5.6707 11.2289 5.6707C11.2465 5.6707 11.2289 5.60039 11.2219 5.53008C11.2148 5.47383 11.2148 5.41758 11.2359 5.4C10.923 5.31211 10.684 4.93242 10.7895 4.93242C10.8246 4.93242 10.8984 4.97461 11.018 5.08711H11.0355C11.2324 5.08711 11.3871 5.2418 11.5066 5.39648C11.6297 5.55117 11.7211 5.70586 11.802 5.70586C11.8336 5.70586 11.8652 5.67773 11.8934 5.61445C11.8793 5.59336 11.8441 5.53359 11.8266 5.47383C11.8055 5.4 11.8055 5.32617 11.9004 5.32617C11.9391 5.32617 11.9918 5.34023 12.0656 5.36836C12.3047 5.30508 11.9145 4.68281 12.2309 4.68281C12.2625 4.68281 12.3012 4.68984 12.3504 4.70391C12.3469 4.81289 12.3961 4.85156 12.4418 4.85156C12.5332 4.85156 12.6246 4.72148 12.4031 4.68281C12.4875 4.60195 12.5367 4.57031 12.5719 4.57031C12.6949 4.57031 12.5965 4.97813 13.0219 4.97813C13.166 5.31914 11.7703 5.00273 12.2168 5.65664C12.3188 5.73047 12.4453 5.74453 12.5684 5.74453C12.607 5.74453 12.6422 5.74453 12.6773 5.74102C12.7125 5.74102 12.7477 5.7375 12.7793 5.7375C12.9973 5.7375 13.152 5.79023 13.057 6.24023C12.941 6.32461 12.8109 6.35273 12.6773 6.35273C12.5578 6.35273 12.4383 6.33164 12.3223 6.31055C12.2063 6.28945 12.0938 6.26836 11.9918 6.26836C11.8336 6.26836 11.707 6.32109 11.6297 6.50391C11.2184 6.33516 10.677 6.32812 10.7297 5.81836C10.0125 5.92031 9.26367 5.86758 8.73633 6.30703C8.70469 6.95039 7.60078 7.15781 7.86797 7.88906C7.54805 8.56406 8.25469 9.50977 8.97539 9.50977C9 9.50977 9.02812 9.50977 9.05273 9.50625C9.44648 9.50273 9.84375 9.32695 10.1918 9.32695C10.3711 9.32695 10.5328 9.37266 10.6734 9.51328C10.7051 9.50977 10.7332 9.50625 10.7578 9.50625C11.2957 9.50625 10.5855 10.3605 11.2289 10.5047C11.8125 11.1094 10.8703 11.7316 11.3309 12.3117C11.3801 12.7652 11.6051 13.1449 11.6051 13.5879C11.6648 13.5949 11.7211 13.5984 11.7809 13.5984C12.5227 13.5984 12.9867 12.9516 13.4227 12.4629C13.2891 11.7316 14.4598 11.5875 14.059 10.7684C13.8727 9.87187 14.9414 9.34102 14.8816 8.44453C14.8922 8.31797 14.857 8.2793 14.8043 8.2793C14.7516 8.2793 14.6742 8.31797 14.6004 8.35313C14.523 8.3918 14.4387 8.42695 14.3719 8.42695C14.284 8.42695 14.2172 8.36719 14.2102 8.17031C13.6934 7.68867 13.4578 7.03477 12.9762 6.50391C13.602 6.80625 13.957 7.48828 14.2453 8.10703C14.2699 8.11406 14.2945 8.11758 14.3227 8.11758C14.8324 8.11758 15.5426 6.89766 14.7691 6.60234C14.727 6.71836 14.6707 6.76055 14.6039 6.76055C14.4879 6.76055 14.3543 6.61992 14.2594 6.48281C14.1645 6.34219 14.1152 6.20156 14.168 6.20156C14.2031 6.20156 14.2805 6.25781 14.4141 6.40547C14.5652 6.50039 14.7129 6.525 14.8676 6.525C15.0188 6.525 15.1734 6.50039 15.3352 6.48633C15.5391 6.56719 15.627 6.82734 15.6902 6.82734C15.7008 6.82734 15.7148 6.8168 15.7254 6.79219C15.8871 7.17891 16.0734 7.86797 16.2422 8.0543C16.1543 7.46367 16.1332 6.83789 15.982 6.25781ZM14.0203 5.4457C13.623 5.34375 13.493 4.85156 13.1801 4.5668C13.1766 4.48945 13.2926 4.50352 13.2645 4.37344C13.6863 4.50352 13.5492 4.63359 13.5105 4.6582C13.6652 4.91484 14.0977 5.09062 14.0203 5.4457ZM8.56055 2.77031C8.17734 2.88281 8.12461 2.75977 8.19141 2.99531C8.21953 3.01641 8.27227 3.02344 8.325 3.02344C8.51133 3.02695 8.76445 2.91797 8.56055 2.77031ZM14.1891 12.4559C14.6918 12.0305 14.7551 11.5242 14.7797 11.0109C14.5547 11.4504 13.8867 11.9355 14.1891 12.4559ZM11.9004 5.60039C11.8969 5.60391 11.8969 5.60391 11.8969 5.60742C11.9004 5.61445 11.9039 5.61445 11.9039 5.61445C11.9039 5.61445 11.9039 5.61094 11.9004 5.60039ZM9 0C4.02891 0 0 4.02891 0 9C0 13.9711 4.02891 18 9 18C13.9711 18 18 13.9711 18 9C18 4.02891 13.9711 0 9 0ZM9 17.3074C4.41211 17.3074 0.692578 13.5879 0.692578 9C0.692578 4.41211 4.41211 0.692578 9 0.692578C13.5879 0.692578 17.3074 4.41211 17.3074 9C17.3074 13.5879 13.5879 17.3074 9 17.3074Z" fill="black"/>
</svg>
