<svg width="51" height="51" viewBox="0 0 51 51" fill="none" xmlns="http://www.w3.org/2000/svg">
<circle cx="25.5" cy="25.5" r="22.9859" stroke="black" stroke-width="5.02817"/>
<path d="M16.5706 46.7459C16.1522 47.6981 15.0371 48.1372 14.1194 47.6477C11.8097 46.4158 9.70613 44.8238 7.88946 42.9281C5.63775 40.5785 3.8709 37.8083 2.68977 34.7759C1.50863 31.7434 0.936357 28.508 1.00561 25.2543C1.07487 22.0007 1.7843 18.7925 3.09339 15.8131C4.40249 12.8336 6.28562 10.1412 8.63526 7.88945C10.9849 5.63775 13.755 3.87089 16.7875 2.68976C19.82 1.50863 23.0554 0.936357 26.3091 1.00561C28.9341 1.06149 31.5295 1.53407 33.9991 2.40209C34.9803 2.74695 35.4112 3.86528 34.9928 4.81745V4.81745C34.5745 5.76962 33.4654 6.19367 32.4796 5.8622C30.4667 5.18537 28.3593 4.81637 26.2289 4.77102C23.4698 4.71229 20.726 5.19759 18.1544 6.19922C15.5828 7.20084 13.2337 8.69918 11.2411 10.6087C9.24859 12.5182 7.65165 14.8014 6.54151 17.3281C5.43136 19.8547 4.82975 22.5753 4.77102 25.3345C4.71229 28.0936 5.19759 30.8373 6.19922 33.409C7.20085 35.9806 8.69918 38.3297 10.6087 40.3222C12.083 41.8607 13.7802 43.1634 15.6402 44.1882C16.5511 44.6901 16.9889 45.7938 16.5706 46.7459V46.7459Z" fill="#084FC7"/>
<path d="M17.7175 19.998V30.2395H15.8586V22.1655L13.3964 22.9792V21.4781L17.5071 19.998H17.7175ZM27.9169 24.2559V25.9745C27.9169 26.7602 27.8374 27.4313 27.6784 27.9878C27.5194 28.5443 27.2903 29.0002 26.991 29.3556C26.6917 29.7064 26.334 29.9659 25.9177 30.1343C25.5015 30.298 25.0386 30.3798 24.5288 30.3798C24.122 30.3798 23.7432 30.3284 23.3924 30.2255C23.0417 30.1179 22.726 29.9542 22.4454 29.7344C22.1695 29.51 21.931 29.2247 21.7299 28.8786C21.5335 28.5326 21.3815 28.1187 21.274 27.637C21.1711 27.1554 21.1197 26.6012 21.1197 25.9745V24.2559C21.1197 23.4703 21.1992 22.8015 21.3582 22.2497C21.5218 21.6979 21.7533 21.2466 22.0526 20.8959C22.3519 20.5451 22.7097 20.2903 23.1259 20.1313C23.5421 19.9676 24.0051 19.8857 24.5148 19.8857C24.9263 19.8857 25.3051 19.9372 25.6512 20.0401C26.0019 20.1429 26.3152 20.3043 26.5912 20.5241C26.8718 20.7392 27.1103 21.0198 27.3067 21.3659C27.5031 21.7072 27.6527 22.1188 27.7556 22.6004C27.8632 23.0774 27.9169 23.6293 27.9169 24.2559ZM26.0651 26.2271V23.9964C26.0651 23.6036 26.0417 23.2622 25.9949 22.9722C25.9528 22.6776 25.8897 22.4274 25.8055 22.2216C25.7213 22.0159 25.6161 21.8499 25.4898 21.7236C25.3636 21.5927 25.2186 21.4968 25.0549 21.436C24.8913 21.3752 24.7112 21.3448 24.5148 21.3448C24.2716 21.3448 24.0542 21.3939 23.8624 21.4921C23.6707 21.5856 23.5094 21.7353 23.3784 21.9411C23.2475 22.1468 23.1469 22.4204 23.0768 22.7618C23.0113 23.0985 22.9786 23.51 22.9786 23.9964V26.2271C22.9786 26.6199 22.9996 26.9636 23.0417 27.2582C23.0885 27.5529 23.1539 27.8054 23.2381 28.0158C23.327 28.2263 23.4322 28.3993 23.5538 28.5349C23.68 28.6659 23.825 28.7641 23.9887 28.8295C24.1524 28.8903 24.3324 28.9207 24.5288 28.9207C24.7767 28.9207 24.9941 28.8716 25.1812 28.7734C25.3729 28.6752 25.5343 28.5209 25.6652 28.3104C25.7962 28.0953 25.8944 27.8171 25.9598 27.4757C26.03 27.1296 26.0651 26.7134 26.0651 26.2271ZM29.3129 22.5303V21.9902C29.3129 21.602 29.3971 21.2489 29.5654 20.9309C29.7338 20.6129 29.9793 20.3581 30.302 20.1663C30.6293 19.9746 31.0268 19.8787 31.4945 19.8787C31.9715 19.8787 32.3713 19.9746 32.694 20.1663C33.0213 20.3581 33.2669 20.6129 33.4305 20.9309C33.5989 21.2489 33.6831 21.602 33.6831 21.9902V22.5303C33.6831 22.9091 33.5989 23.2575 33.4305 23.5755C33.2669 23.8935 33.0237 24.1484 32.701 24.3401C32.3783 24.5318 31.9808 24.6277 31.5085 24.6277C31.0362 24.6277 30.6363 24.5318 30.309 24.3401C29.9816 24.1484 29.7338 23.8935 29.5654 23.5755C29.3971 23.2575 29.3129 22.9091 29.3129 22.5303ZM30.5685 21.9902V22.5303C30.5685 22.708 30.6013 22.8764 30.6667 23.0354C30.7369 23.1897 30.8421 23.3159 30.9824 23.4142C31.1227 23.5124 31.2981 23.5615 31.5085 23.5615C31.7189 23.5615 31.8896 23.5124 32.0206 23.4142C32.1562 23.3159 32.2567 23.1897 32.3222 23.0354C32.3924 22.8764 32.4274 22.708 32.4274 22.5303V21.9902C32.4274 21.8078 32.3924 21.6371 32.3222 21.4781C32.2567 21.3191 32.1539 21.1905 32.0136 21.0923C31.8779 20.9941 31.7049 20.945 31.4945 20.945C31.2887 20.945 31.1157 20.9941 30.9754 21.0923C30.8398 21.1905 30.7369 21.3191 30.6667 21.4781C30.6013 21.6371 30.5685 21.8078 30.5685 21.9902ZM34.2162 28.2754V27.7352C34.2162 27.3518 34.3004 27.001 34.4687 26.683C34.6418 26.365 34.8919 26.1102 35.2193 25.9184C35.5467 25.7267 35.9418 25.6308 36.4048 25.6308C36.8865 25.6308 37.2886 25.7267 37.6113 25.9184C37.934 26.1102 38.1772 26.365 38.3409 26.683C38.5092 27.001 38.5934 27.3518 38.5934 27.7352V28.2754C38.5934 28.6588 38.5092 29.0096 38.3409 29.3276C38.1772 29.6456 37.934 29.9005 37.6113 30.0922C37.2933 30.2839 36.8982 30.3798 36.4258 30.3798C35.9535 30.3798 35.5513 30.2839 35.2193 30.0922C34.8919 29.9005 34.6418 29.6456 34.4687 29.3276C34.3004 29.0096 34.2162 28.6588 34.2162 28.2754ZM35.4788 27.7352V28.2754C35.4788 28.4578 35.5163 28.6284 35.5911 28.7874C35.6659 28.9418 35.7735 29.068 35.9138 29.1662C36.0587 29.2645 36.2271 29.3136 36.4188 29.3136C36.6526 29.3136 36.8374 29.2645 36.973 29.1662C37.1086 29.068 37.2045 28.9418 37.2606 28.7874C37.3167 28.6284 37.3448 28.4578 37.3448 28.2754V27.7352C37.3448 27.5529 37.3097 27.3845 37.2395 27.2302C37.1694 27.0712 37.0642 26.9426 36.9239 26.8444C36.7883 26.7462 36.6152 26.6971 36.4048 26.6971C36.199 26.6971 36.026 26.7462 35.8857 26.8444C35.7501 26.9426 35.6472 27.0712 35.5771 27.2302C35.5116 27.3845 35.4788 27.5529 35.4788 27.7352ZM36.8678 21.4851L31.8803 29.4679L30.9613 28.9558L35.9488 20.973L36.8678 21.4851Z" fill="#084FC7"/>
</svg>
