<svg width="25" height="16" viewBox="0 0 25 16" fill="none" xmlns="http://www.w3.org/2000/svg">
<path fill-rule="evenodd" clip-rule="evenodd" d="M7.017 0.000422649C7.67202 -0.0117389 8.32611 0.0554159 8.965 0.200423C9.50292 0.317864 10.0136 0.536403 10.47 0.844423C10.8915 1.15071 11.225 1.56249 11.437 2.03842C11.6807 2.62366 11.7982 3.25369 11.782 3.88742C11.8097 4.58327 11.632 5.27188 11.271 5.86742C10.8913 6.4299 10.3664 6.87912 9.752 7.16742C10.5857 7.3922 11.3119 7.90706 11.8 8.61942C12.2685 9.37422 12.504 10.2504 12.477 11.1384C12.4925 11.8464 12.3461 12.5486 12.049 13.1914C11.7744 13.7522 11.3723 14.2409 10.875 14.6184C10.363 14.9918 9.78675 15.268 9.175 15.4334C8.5406 15.6089 7.88523 15.6971 7.227 15.6954H0V0.000422649H7.017ZM6.6 6.34842C7.11466 6.36964 7.62128 6.21557 8.037 5.91142C8.23609 5.73418 8.39097 5.51283 8.48925 5.26505C8.58752 5.01727 8.62648 4.74994 8.603 4.48442C8.61632 4.17431 8.55458 3.86556 8.423 3.58442C8.31139 3.36058 8.13784 3.1735 7.923 3.04542C7.70539 2.90444 7.46091 2.81012 7.205 2.76842C6.92733 2.71463 6.64478 2.69017 6.362 2.69542H3.274V6.36242H6.6V6.34842ZM6.78 13.0304C7.09124 13.0346 7.40185 13.0011 7.705 12.9304C7.98204 12.8692 8.24478 12.7555 8.479 12.5954C8.70846 12.4354 8.89384 12.2201 9.018 11.9694C9.16196 11.6498 9.2281 11.3006 9.211 10.9504C9.24221 10.6313 9.19995 10.3093 9.08745 10.0091C8.97496 9.7089 8.79521 9.43843 8.562 9.21842C8.0677 8.85435 7.46194 8.674 6.849 8.70842H3.274V13.0304H6.78Z" fill="white"/>
<path fill-rule="evenodd" clip-rule="evenodd" d="M17.14 12.9724C17.397 13.2106 17.6997 13.3941 18.0297 13.5116C18.3598 13.6292 18.7103 13.6785 19.06 13.6564C19.6144 13.6704 20.1579 13.5018 20.607 13.1764C20.9723 12.9389 21.249 12.5873 21.394 12.1764H24.005C23.7268 13.3463 23.0474 14.3816 22.085 15.1024C21.1617 15.7153 20.0706 16.0256 18.963 15.9904C18.1725 16.0008 17.388 15.8522 16.656 15.5534C15.9939 15.2773 15.4001 14.8599 14.916 14.3304C14.4338 13.7756 14.0633 13.1328 13.825 12.4374C13.5575 11.6601 13.4266 10.8424 13.438 10.0204C13.4331 9.21224 13.5685 8.40935 13.838 7.64742C14.2001 6.57554 14.8925 5.64591 15.8157 4.99196C16.739 4.33801 17.8457 3.99334 18.977 4.00742C19.8123 3.98997 20.6382 4.18544 21.377 4.57542C22.0448 4.94162 22.6209 5.45448 23.062 6.07542C23.5132 6.72698 23.8366 7.45826 24.015 8.23042C24.2107 9.05959 24.2805 9.91349 24.222 10.7634H16.445C16.382 11.562 16.6311 12.3538 17.14 12.9724ZM20.552 7.00342C20.3344 6.78574 20.0726 6.61723 19.7844 6.50925C19.4961 6.40127 19.1881 6.35631 18.881 6.37742C18.4736 6.36188 18.0691 6.45215 17.707 6.63942C17.4199 6.79747 17.1665 7.01013 16.961 7.26542C16.7789 7.50478 16.6432 7.77613 16.561 8.06542C16.4869 8.3067 16.4406 8.55565 16.423 8.80742H21.24C21.198 8.15107 20.9589 7.52267 20.554 7.00442L20.552 7.00342Z" fill="white"/>
<path d="M15.802 1.04842H21.838V2.59142H15.802V1.04842Z" fill="white"/>
</svg>
