<svg width="24" height="24" viewBox="0 0 24 24" fill="none" xmlns="http://www.w3.org/2000/svg">
<path d="M12.0003 0.363281C8.84011 0.363281 8.44352 0.3771 7.20235 0.433585C5.9636 0.490312 5.11805 0.686433 4.37819 0.97419C3.61288 1.2714 2.96369 1.66898 2.31692 2.31601C1.66967 2.9628 1.2721 3.61201 0.973929 4.3771C0.685453 5.11722 0.489096 5.96304 0.43334 7.20134C0.377826 8.44255 0.363281 8.8394 0.363281 11.9996C0.363281 15.1599 0.377342 15.5553 0.433582 16.7965C0.49055 18.0353 0.686666 18.8809 0.974172 19.6207C1.27162 20.3861 1.66918 21.0353 2.31619 21.6821C2.96272 22.3293 3.61191 22.7279 4.37674 23.0251C5.11708 23.3129 5.96287 23.509 7.20138 23.5657C8.44255 23.6222 8.8389 23.636 11.9988 23.636C15.1592 23.636 15.5546 23.6222 16.7958 23.5657C18.0345 23.509 18.881 23.3129 19.6214 23.0251C20.3864 22.7279 21.0347 22.3293 21.6812 21.6821C22.3284 21.0353 22.726 20.3861 23.0242 19.621C23.3102 18.8809 23.5066 18.035 23.5648 16.7967C23.6205 15.5555 23.6351 15.1599 23.6351 11.9996C23.6351 8.8394 23.6205 8.4428 23.5648 7.20158C23.5066 5.9628 23.3102 5.11722 23.0242 4.37734C22.726 3.61201 22.3284 2.9628 21.6812 2.31601C21.0339 1.66874 20.3867 1.27116 19.6206 0.97419C18.8788 0.686433 18.0328 0.490312 16.7941 0.433585C15.5529 0.3771 15.1577 0.363281 11.9966 0.363281H12.0003ZM10.9564 2.46025C11.2662 2.45977 11.6119 2.46025 12.0003 2.46025C15.1071 2.46025 15.4753 2.4714 16.7022 2.52716C17.8367 2.57904 18.4524 2.76861 18.8626 2.92789C19.4056 3.1388 19.7928 3.39092 20.1998 3.79819C20.607 4.20546 20.8591 4.59334 21.0705 5.13637C21.2298 5.54607 21.4196 6.16183 21.4712 7.29637C21.527 8.52304 21.5391 8.89152 21.5391 11.997C21.5391 15.1024 21.527 15.4709 21.4712 16.6976C21.4194 17.8321 21.2298 18.4479 21.0705 18.8576C20.8596 19.4006 20.607 19.7873 20.1998 20.1943C19.7925 20.6016 19.4059 20.8537 18.8626 21.0646C18.4529 21.2246 17.8367 21.4137 16.7022 21.4656C15.4756 21.5213 15.1071 21.5335 12.0003 21.5335C8.8932 21.5335 8.52497 21.5213 7.29834 21.4656C6.16383 21.4132 5.54809 21.2236 5.13768 21.0644C4.59467 20.8535 4.2068 20.6013 3.79954 20.1941C3.39228 19.7868 3.14017 19.3999 2.92878 18.8566C2.76951 18.4469 2.5797 17.8312 2.52806 16.6966C2.47231 15.4699 2.46116 15.1015 2.46116 11.9941C2.46116 8.88667 2.47231 8.52013 2.52806 7.29346C2.57994 6.15892 2.76951 5.54316 2.92878 5.13298C3.13968 4.58995 3.39228 4.20207 3.79954 3.7948C4.2068 3.38752 4.59467 3.1354 5.13768 2.92401C5.54785 2.76401 6.16383 2.57492 7.29834 2.5228C8.37177 2.47431 8.78775 2.45977 10.9564 2.45734V2.46025ZM18.2115 4.39237C17.4406 4.39237 16.8151 5.0171 16.8151 5.78825C16.8151 6.55916 17.4406 7.18461 18.2115 7.18461C18.9824 7.18461 19.6078 6.55916 19.6078 5.78825C19.6078 5.01734 18.9824 4.39189 18.2115 4.39189V4.39237ZM12.0003 6.02389C8.70024 6.02389 6.02469 8.69952 6.02469 11.9996C6.02469 15.2998 8.70024 17.9742 12.0003 17.9742C15.3003 17.9742 17.9749 15.2998 17.9749 11.9996C17.9749 8.69952 15.3 6.02389 12 6.02389H12.0003ZM12.0003 8.12086C14.1423 8.12086 15.8789 9.85734 15.8789 11.9996C15.8789 14.1417 14.1423 15.8784 12.0003 15.8784C9.85802 15.8784 8.12159 14.1417 8.12159 11.9996C8.12159 9.85734 9.85802 8.12086 12.0003 8.12086V8.12086Z" fill="white"/>
</svg>
