<svg width="24" height="24" viewBox="0 0 24 24" fill="none" xmlns="http://www.w3.org/2000/svg">
<path fill-rule="evenodd" clip-rule="evenodd" d="M2.27539 0.666992C1.38683 0.666992 0.666504 1.38731 0.666504 2.27588V21.7247C0.666504 22.6133 1.38683 23.3336 2.27539 23.3336H21.7243C22.6128 23.3336 23.3332 22.6133 23.3332 21.7247V2.27588C23.3332 1.38732 22.6128 0.666992 21.7243 0.666992H2.27539ZM5.75413 7.70614C6.8401 7.70614 7.72046 6.82578 7.72046 5.73981C7.72046 4.65383 6.8401 3.77348 5.75413 3.77348C4.66816 3.77348 3.7878 4.65383 3.7878 5.73981C3.7878 6.82578 4.66816 7.70614 5.75413 7.70614ZM9.52128 9.15931H12.7801V10.6522C12.7801 10.6522 13.6644 8.88353 16.0706 8.88353C18.217 8.88353 19.995 9.94089 19.995 13.1638V19.96H16.6179V13.9873C16.6179 12.0861 15.6029 11.877 14.8295 11.877C13.2243 11.877 12.9495 13.2616 12.9495 14.2353V19.96H9.52128V9.15931ZM7.46823 9.15932H4.04003V19.96H7.46823V9.15932Z" fill="white"/>
</svg>
