<svg width="63" height="57" viewBox="0 0 63 57" fill="none" xmlns="http://www.w3.org/2000/svg">
<path d="M6.87521 46.7073V18.3922L29.0572 1.21649C29.6575 0.752015 30.395 0.5 31.154 0.5C31.9129 0.5 32.6503 0.751955 33.2506 1.21632C33.2507 1.21638 33.2507 1.21644 33.2508 1.21649L55.4231 18.3921V46.7073H6.87521Z" fill="url(#paint0_linear_854_7833)" stroke="url(#paint1_linear_854_7833)"/>
<path d="M50.1391 2.74805H12.0558V44.6296H50.1391V2.74805Z" fill="#FAFAFA"/>
<path d="M47.8979 5.26953H14.3989V6.54661H47.8979V5.26953Z" fill="#0F346A"/>
<path d="M47.8265 13.9424H14.3274V15.2195H47.8265V13.9424Z" fill="#0F346A"/>
<path d="M40.8703 7.43604H14.4313V8.67536H40.8703V7.43604Z" fill="#0F346A"/>
<path d="M40.7989 16.1094H14.3599V17.3487H40.7989V16.1094Z" fill="#0F346A"/>
<path d="M30.0262 9.60498H14.4313V10.8443H30.0262V9.60498Z" fill="#0F346A"/>
<path d="M29.9547 18.2773H14.3599V19.5167H29.9547V18.2773Z" fill="#0F346A"/>
<path d="M48.8389 22.9541H31.1481V24.2312H48.8389V22.9541Z" fill="#10366C"/>
<path d="M48.8371 25.4697H34.4496V26.7468H48.8371V25.4697Z" fill="#10356B"/>
<path d="M6.87543 46.3247V19.0365L30.1594 32.6797L6.87543 46.3247Z" fill="url(#paint2_linear_854_7833)" stroke="url(#paint3_linear_854_7833)"/>
<path d="M55.421 46.3247L32.137 32.6797L55.421 19.0365V46.3247Z" fill="url(#paint4_linear_854_7833)" stroke="url(#paint5_linear_854_7833)"/>
<path d="M54.4624 46.7071H7.83656L29.0571 30.2575C29.0572 30.2574 29.0574 30.2573 29.0575 30.2571C29.6573 29.7941 30.3936 29.543 31.1513 29.543C31.9091 29.543 32.6455 29.7942 33.2453 30.2573C33.2454 30.2573 33.2455 30.2574 33.2456 30.2575L54.4624 46.7071Z" fill="url(#paint6_linear_854_7833)" stroke="url(#paint7_linear_854_7833)"/>
<g filter="url(#filter0_d_854_7833)">
<path d="M50.5406 48.0698C50.5406 48.0698 49.0843 51.951 48.3628 52.28C47.6413 52.6089 45.0121 52.5894 45.0121 52.5894L40.7317 49.1703C40.7317 49.1703 40.8689 47.2904 42.7457 47.7839C44.6225 48.2773 46.5082 49.8713 46.5082 49.8713C46.5082 49.8713 48.9206 45.5632 50.5406 48.0698Z" fill="white"/>
<path d="M40.7317 49.1698C40.7317 49.1698 40.838 47.709 42.1482 47.7012C41.3824 47.7012 40.8557 49.3069 41.0062 49.0759C41.1567 48.8448 45.1714 51.8644 44.9899 52.1385C44.6668 52.6359 47.5484 52.2991 48.1637 52.0289C48.562 51.8565 49.3411 50.5915 49.8457 49.7064C49.3676 50.8108 48.7391 52.0994 48.3363 52.2795C47.6148 52.6085 44.9855 52.5889 44.9855 52.5889L40.7317 49.1698Z" fill="#89969F"/>
<path d="M53.6798 45.6371C53.6798 45.6371 52.1616 50.5992 51.2896 51.0731C50.4176 51.547 47.142 51.7546 47.142 51.7546L41.5869 47.8851C41.5869 47.8851 41.6179 45.5353 43.986 45.9778C46.3541 46.4204 48.8241 48.2415 48.8241 48.2415C48.8241 48.2415 51.4799 42.6645 53.6798 45.6371Z" fill="white"/>
<path d="M41.9417 47.7131C41.9417 47.7131 41.9416 45.892 43.5927 45.7549C42.6366 45.8097 42.1585 47.2431 42.2648 47.5721C42.371 47.9011 46.8417 50.674 47.457 51.0186C48.0722 51.3632 50.6528 50.9912 51.4009 50.5995C51.8834 50.3489 52.7554 48.704 53.3175 47.5604C52.8085 48.9742 52.118 50.6309 51.6355 50.8972C50.7502 51.3711 47.4879 51.5787 47.4879 51.5787L41.9417 47.7131Z" fill="#89969F"/>
<path d="M58.2347 41.8851C58.2347 41.8851 56.8094 47.7448 55.8179 48.3792C54.8264 49.0137 50.9887 49.671 50.9887 49.671L44.1588 45.6057C44.1588 45.6057 44.0215 42.8368 46.8412 43.1501C49.6608 43.4634 52.7062 45.3864 52.7062 45.3864C52.7062 45.3864 55.4195 38.5796 58.2347 41.8851Z" fill="white"/>
<path d="M43.8319 45.6021C43.8319 45.6021 43.7212 43.4519 45.629 43.1543C44.5047 43.3031 44.0488 45.0342 44.2081 45.4102C44.3675 45.7862 49.8297 48.6569 50.5822 49.0133C51.3346 49.3697 54.3446 48.809 55.1945 48.2881C55.7434 47.9513 57.0425 45.7503 57.6179 44.3482C56.7415 46.8021 56.2156 48.2881 55.4866 48.6132C54.4951 49.2516 50.6574 49.6713 50.6574 49.6713L43.8319 45.6021Z" fill="#89969F"/>
<path d="M59.3502 36.9584C59.3502 36.9584 58.5889 43.3619 57.6328 44.1647C56.6767 44.9676 52.7637 46.0681 52.7637 46.0681L45.1902 42.8292C45.1902 42.8292 44.7165 39.978 47.6822 39.8958C50.6479 39.8135 54.0341 41.3762 54.0341 41.3762C54.0341 41.3762 56.0349 33.931 59.3502 36.9584Z" fill="white"/>
<path d="M45.1902 42.8324C45.1902 42.8324 44.8228 40.6157 46.7615 40.0361C45.6195 40.3494 45.3495 42.2097 45.562 42.5778C45.7745 42.946 51.7855 45.1431 52.6044 45.4016C53.4233 45.6601 56.4686 44.5361 57.292 43.8703C57.8187 43.4434 58.5181 41.2188 58.9519 39.6875C58.6376 41.5361 58.164 43.7214 57.6239 44.1679C56.6723 44.9708 52.7549 46.0713 52.7549 46.0713L45.1902 42.8324Z" fill="#89969F"/>
<path d="M55.9839 32.2274C56.0055 32.221 56.0324 32.2132 56.0641 32.2044C56.1568 32.1786 56.2906 32.1443 56.4538 32.1106C56.7809 32.043 57.2231 31.9784 57.6876 31.9879C58.1529 31.9975 58.6332 32.0814 59.0424 32.3046C59.4483 32.5261 59.79 32.8876 59.9786 33.4665C60.3525 34.6144 60.8097 35.557 61.1818 36.3239C61.2067 36.3753 61.2313 36.426 61.2554 36.4759C61.448 36.8739 61.6114 37.2189 61.7237 37.5207C61.8363 37.8238 61.8927 38.0713 61.8808 38.2761C61.8763 38.354 61.8324 38.4496 61.7346 38.566C61.638 38.681 61.4985 38.8047 61.3245 38.9378C61.0552 39.1439 60.7165 39.3629 60.3503 39.5997C60.2421 39.6696 60.1315 39.7411 60.0196 39.8143C59.5326 40.1328 59.0245 40.4806 58.6045 40.8595C58.1964 41.2277 57.8607 41.6345 57.7137 42.0836C57.7126 42.0844 57.7114 42.0852 57.7103 42.0861C57.6908 42.1007 57.6608 42.1217 57.6209 42.1453C57.5409 42.1926 57.4218 42.2501 57.2678 42.2886C56.9627 42.3647 56.5108 42.3685 55.9416 42.0503C55.3808 41.7367 54.7662 40.9065 54.4953 39.9611C54.2256 39.02 54.3062 38.0028 55.0785 37.2918C55.4883 36.9144 55.7091 36.6459 55.8082 36.3878C55.9094 36.124 55.8774 35.886 55.8294 35.5989C55.8253 35.5742 55.821 35.5491 55.8167 35.5234C55.7698 35.2478 55.7118 34.9065 55.71 34.4163C55.708 33.8917 55.7705 33.1937 55.9839 32.2274Z" fill="white" stroke="#89969F" stroke-width="0.233716"/>
<path d="M55.0067 37.1863C55.83 36.4343 56.37 35.8508 56.5825 35.0361C56.7905 36.2581 54.4888 37.8756 54.8739 39.3834C55.5556 42.0427 57.242 41.5844 57.242 41.5844C57.8529 40.339 59.6146 39.2972 60.9115 38.6628C61.154 38.5168 61.3584 38.3267 61.5111 38.1051C61.6638 37.8836 61.7612 37.6357 61.7968 37.3782C61.9218 37.6603 61.9878 37.9602 61.9916 38.2633C61.9385 39.1837 58.3354 40.4017 57.8086 42.1327C57.8086 42.1327 57.0694 42.7985 55.8787 42.1327C54.688 41.467 53.3645 38.7019 55.0067 37.1863Z" fill="#89969F"/>
<path d="M53.1713 45.03C53.6911 44.4037 53.9912 43.656 54.0345 42.8799C54.0345 42.8799 54.1806 44.5796 53.1713 45.03Z" fill="#89969F"/>
<path d="M52.8218 44.7991L53.3265 42.8135C53.3265 42.8135 53.508 44.0863 52.8218 44.7991Z" fill="#89969F"/>
<path d="M51.1976 48.6805L52.4857 46.8633C52.4857 46.8633 51.9014 48.2184 51.1976 48.6805Z" fill="#89969F"/>
<path d="M50.8825 48.3277L51.7103 46.6123C51.7103 46.6123 51.458 47.7912 50.8825 48.3277Z" fill="#89969F"/>
<path d="M47.9874 50.6657L49.3597 49.667C49.0056 50.0977 48.5333 50.4414 47.9874 50.6657Z" fill="#89969F"/>
<path d="M47.6326 50.1652L48.7968 49.335C48.5272 49.7211 48.1164 50.0141 47.6326 50.1652Z" fill="#89969F"/>
<path d="M45.6456 52.0212L46.6416 51.3867C46.4137 51.7033 46.0572 51.9304 45.6456 52.0212Z" fill="#89969F"/>
<path d="M45.5132 51.8021L46.2879 51.3008C46.1189 51.3124 45.9569 51.3654 45.82 51.454C45.6832 51.5425 45.5769 51.6631 45.5132 51.8021Z" fill="#89969F"/>
<path d="M47.6341 40.377C47.6341 40.377 46.5452 40.7882 46.3062 42.4331C46.3062 42.4331 48.3468 43.9723 48.816 42.4331C48.9539 42.0217 48.9082 41.5791 48.6883 41.1965C48.4685 40.814 48.0911 40.5207 47.6341 40.377Z" fill="#89969F"/>
<path d="M45.9015 43.5068C45.9015 43.5068 45.0162 43.6282 44.6488 45.3241C44.6488 45.3241 46.2512 46.6126 46.8177 45.5708C47.3843 44.529 45.9015 43.5068 45.9015 43.5068Z" fill="#89969F"/>
<path d="M44.1716 46.146C44.1716 46.146 43.2863 46.0089 42.6711 47.4659C42.6711 47.4659 44.03 49.0324 44.7559 47.7674C45.3313 46.7727 44.1716 46.146 44.1716 46.146Z" fill="#89969F"/>
<path d="M42.1672 48.1744C42.1672 48.1744 41.5962 48.0217 41.3129 49.1026C41.3129 49.1026 42.1672 50.164 42.6719 49.3337C43.1145 48.6052 42.1672 48.1744 42.1672 48.1744Z" fill="#89969F"/>
<path d="M57.2434 40.6874C56.9999 39.8262 56.4966 39.0397 55.7871 38.412C55.7871 38.412 56.8627 37.3114 57.7082 38.412C58.5536 39.5125 57.2434 40.6874 57.2434 40.6874Z" fill="#89969F"/>
</g>
<g filter="url(#filter1_d_854_7833)">
<path d="M12.4176 48.8589C12.4176 48.8589 13.866 53.0668 14.5836 53.4231C15.3012 53.7794 17.9162 53.754 17.9162 53.754L22.1512 50.0509C22.1512 50.0509 22.0192 48.019 20.1526 48.5493C18.286 49.0795 16.4106 50.8144 16.4106 50.8144C16.4106 50.8144 14.0069 46.1442 12.4176 48.8589Z" fill="white"/>
<path d="M22.129 50.0467C22.129 50.0467 22.0233 48.4688 20.7246 48.4561C21.4862 48.4561 21.9353 49.6565 21.8604 49.9492C21.7856 50.2419 18.365 52.9185 17.8983 53.262C17.4317 53.6056 15.3538 53.436 14.7374 53.1475C14.3456 52.9609 13.5708 51.5865 13.0689 50.6321C13.5444 51.8241 14.1695 53.2196 14.5701 53.419C15.2877 53.7753 17.9027 53.7499 17.9027 53.7499L22.129 50.0467Z" fill="#89969F"/>
<path d="M8.92154 46.0517C8.92154 46.0517 10.4316 51.4218 11.2988 51.9351C12.1661 52.4484 15.4238 52.6732 15.4238 52.6732L20.9488 48.4865C20.9488 48.4865 20.918 45.9414 18.5627 46.4207C16.2074 46.9 13.7377 48.8725 13.7377 48.8725C13.7377 48.8725 11.0963 42.8363 8.92154 46.0517Z" fill="white"/>
<path d="M20.9482 48.4871C20.9482 48.4871 20.9482 46.5104 19.3061 46.3662C20.257 46.4214 20.7325 47.9739 20.6268 48.3302C20.5212 48.6865 16.0748 51.6897 15.4629 52.0672C14.851 52.4448 12.28 52.0333 11.5404 51.6134C11.0605 51.3419 10.1933 49.5603 9.62976 48.3175C10.1404 49.853 10.8272 51.6473 11.3071 51.9315C12.1875 52.4448 15.4321 52.6696 15.4321 52.6696L20.9482 48.4871Z" fill="#89969F"/>
<path d="M5.05673 42.1661C5.05673 42.1661 6.46989 48.6391 7.46042 49.3263C8.45095 50.0135 12.2634 50.5989 12.2634 50.5989L19.0518 46.2001C19.0518 46.2001 19.1927 43.2011 16.384 43.5362C13.5753 43.8713 10.5509 45.9583 10.5509 45.9583C10.5509 45.9583 7.85663 38.5945 5.05673 42.1661Z" fill="white"/>
<path d="M19.0514 46.1922C19.0514 46.1922 19.1615 43.8634 17.2641 43.541C18.3823 43.7022 18.8357 45.5729 18.6772 45.9801C18.5187 46.3873 13.0862 49.5008 12.3378 49.8825C11.5894 50.2643 8.59582 49.539 7.75057 48.9706C7.20468 48.6058 6.3022 46.4255 5.72989 44.9111C6.22736 46.7648 6.90972 48.9409 7.46002 49.3269C8.44615 50.014 12.263 50.5994 12.263 50.5994L19.0514 46.1922Z" fill="#89969F"/>
<path d="M3.63367 36.834C3.63367 36.834 4.39087 43.7694 5.34178 44.6347C6.29268 45.5001 10.1844 46.6963 10.1844 46.6963L17.6992 43.1883C17.6992 43.1883 18.1702 40.1002 15.2207 40.0112C12.2711 39.9221 8.90329 41.6188 8.90329 41.6188C8.90329 41.6188 6.93103 33.5551 3.63367 36.834Z" fill="white"/>
<path d="M17.6992 43.1891C17.6992 43.1891 18.0646 40.7924 16.132 40.1604C17.2722 40.504 17.5407 42.5188 17.3294 42.9133C17.1181 43.3078 11.1397 45.6917 10.3252 45.9759C9.51081 46.2601 6.48199 45.0343 5.66315 44.3132C5.13927 43.8508 4.4437 41.4457 4.01227 39.7871C4.32484 41.785 4.79589 44.152 5.33297 44.6355C6.27948 45.5051 10.1756 46.6971 10.1756 46.6971L17.6992 43.1891Z" fill="#89969F"/>
<path d="M5.2698 42.3767C5.26806 42.3753 5.26641 42.374 5.26484 42.3726C5.12028 41.8876 4.78749 41.4479 4.3801 41.0491C3.96252 40.6404 3.45723 40.2657 2.9728 39.9224C2.86598 39.8467 2.76038 39.7726 2.65694 39.7C2.28782 39.4412 1.94624 39.2016 1.67531 38.9753C1.5024 38.8309 1.36351 38.6961 1.26704 38.5699C1.16992 38.4428 1.12332 38.3341 1.11845 38.2407C1.10638 38.0091 1.16315 37.7337 1.27457 37.4026C1.38569 37.0723 1.54752 36.6967 1.73815 36.2659C1.76791 36.1987 1.79833 36.1301 1.82934 36.0603C2.19442 35.2382 2.63913 34.2367 3.00659 33.025C3.38955 31.7622 4.22593 31.2074 4.96862 30.9644C5.3418 30.8423 5.6918 30.799 5.94878 30.7864C6.07708 30.7801 6.18168 30.7814 6.25372 30.7843C6.26259 30.7847 6.27096 30.7851 6.27882 30.7855C6.61299 32.425 6.68286 33.4906 6.73476 34.2821C6.74987 34.5125 6.76345 34.7197 6.7816 34.9111C6.82246 35.3421 6.88703 35.6975 7.04941 36.0507C7.21164 36.4036 7.46759 36.7459 7.87913 37.1585C8.65049 37.932 8.73145 39.0421 8.46188 40.0675C8.32754 40.5786 8.10732 41.0622 7.84893 41.4612C7.5896 41.8617 7.29655 42.1698 7.02063 42.3379C6.45566 42.6819 6.00882 42.677 5.70824 42.5953C5.55602 42.554 5.43804 42.492 5.35865 42.4408C5.31901 42.4153 5.2892 42.3926 5.2698 42.3767Z" fill="white" stroke="#89969F" stroke-width="0.233716"/>
<path d="M7.95354 37.0755C7.1347 36.2611 6.59761 35.629 6.3863 34.751C6.17939 36.0702 8.46861 37.8221 8.08561 39.4594C7.40765 42.3354 5.73035 41.8391 5.73035 41.8391C5.12282 40.4944 3.37069 39.3661 2.0808 38.6747C1.83976 38.5174 1.63646 38.3123 1.48459 38.0731C1.33272 37.8338 1.23579 37.566 1.20033 37.2876C1.07529 37.593 1.00963 37.9179 1.00662 38.2462C1.05945 39.2388 4.64297 40.558 5.16685 42.4372C5.16685 42.4372 5.90204 43.1583 7.08627 42.4372C8.27051 41.7161 9.58681 38.7044 7.95354 37.0755Z" fill="#89969F"/>
<path d="M9.77635 45.5719C9.26173 44.8927 8.96482 44.0831 8.92229 43.2432C8.92229 43.2432 8.77701 45.0884 9.77635 45.5719Z" fill="#89969F"/>
<path d="M10.1273 45.3176L9.62102 43.167C9.62102 43.167 9.44493 44.5329 10.1273 45.3176Z" fill="#89969F"/>
<path d="M11.7442 49.5219L10.4631 47.5537C10.4631 47.5537 11.0442 49.0214 11.7442 49.5219Z" fill="#89969F"/>
<path d="M12.0561 49.1444L11.2328 47.2822C11.2328 47.2822 11.4794 48.559 12.0561 49.1444Z" fill="#89969F"/>
<path d="M14.9354 51.6725L13.5706 50.5908C13.9212 51.0587 14.3913 51.4313 14.9354 51.6725Z" fill="#89969F"/>
<path d="M15.2871 51.133L14.1293 50.2295C14.3981 50.6482 14.8062 50.9667 15.2871 51.133Z" fill="#89969F"/>
<path d="M17.2597 53.1572L16.2692 52.4658C16.496 52.8094 16.8502 53.0567 17.2597 53.1572Z" fill="#89969F"/>
<path d="M17.3955 52.9023L16.6207 52.3594C16.7894 52.3716 16.9513 52.4289 17.0881 52.5248C17.2249 52.6207 17.3314 52.7514 17.3955 52.9023Z" fill="#89969F"/>
<path d="M15.2872 40.5293C15.2872 40.5293 16.3702 40.9789 16.6079 42.7563C16.6079 42.7563 14.5828 44.4233 14.1162 42.7563C13.9788 42.3112 14.0236 41.8323 14.2414 41.4181C14.4592 41.0038 14.8335 40.6858 15.2872 40.5293Z" fill="#89969F"/>
<path d="M17.009 43.918C17.009 43.918 17.8894 44.0537 18.2548 45.8862C18.2548 45.8862 16.6612 47.2818 16.0977 46.1534C15.5342 45.0251 17.009 43.918 17.009 43.918Z" fill="#89969F"/>
<path d="M18.7292 46.7818C18.7292 46.7818 19.6097 46.6375 20.2216 48.2155C20.2216 48.2155 18.8701 49.9122 18.1481 48.5379C17.5758 47.4605 18.7292 46.7818 18.7292 46.7818Z" fill="#89969F"/>
<path d="M20.7252 48.9748C20.7252 48.9748 21.2931 48.8094 21.5749 49.9801C21.5749 49.9801 20.7252 51.1339 20.2233 50.2304C19.7831 49.4414 20.7252 48.9748 20.7252 48.9748Z" fill="#89969F"/>
<path d="M5.73016 40.8683C5.97334 39.9359 6.47382 39.0843 7.17854 38.4038C7.17854 38.4038 6.10876 37.2118 5.26791 38.4038C4.42706 39.5957 5.73016 40.8683 5.73016 40.8683Z" fill="#89969F"/>
</g>
<defs>
<filter id="filter0_d_854_7833" x="40.2643" y="31.4027" width="22.2024" height="21.6546" filterUnits="userSpaceOnUse" color-interpolation-filters="sRGB">
<feFlood flood-opacity="0" result="BackgroundImageFix"/>
<feColorMatrix in="SourceAlpha" type="matrix" values="0 0 0 0 0 0 0 0 0 0 0 0 0 0 0 0 0 0 127 0" result="hardAlpha"/>
<feOffset/>
<feGaussianBlur stdDeviation="0.233716"/>
<feComposite in2="hardAlpha" operator="out"/>
<feColorMatrix type="matrix" values="0 0 0 0 0 0 0 0 0 0 0 0 0 0 0 0 0 0 0.3 0"/>
<feBlend mode="normal" in2="BackgroundImageFix" result="effect1_dropShadow_854_7833"/>
<feBlend mode="normal" in="SourceGraphic" in2="effect1_dropShadow_854_7833" result="shape"/>
</filter>
<filter id="filter1_d_854_7833" x="0.532567" y="30.1976" width="22.0861" height="24.0247" filterUnits="userSpaceOnUse" color-interpolation-filters="sRGB">
<feFlood flood-opacity="0" result="BackgroundImageFix"/>
<feColorMatrix in="SourceAlpha" type="matrix" values="0 0 0 0 0 0 0 0 0 0 0 0 0 0 0 0 0 0 127 0" result="hardAlpha"/>
<feOffset/>
<feGaussianBlur stdDeviation="0.233716"/>
<feComposite in2="hardAlpha" operator="out"/>
<feColorMatrix type="matrix" values="0 0 0 0 0 0 0 0 0 0 0 0 0 0 0 0 0 0 0.3 0"/>
<feBlend mode="normal" in2="BackgroundImageFix" result="effect1_dropShadow_854_7833"/>
<feBlend mode="normal" in="SourceGraphic" in2="effect1_dropShadow_854_7833" result="shape"/>
</filter>
<linearGradient id="paint0_linear_854_7833" x1="31.1492" y1="0" x2="31.1492" y2="47.2073" gradientUnits="userSpaceOnUse">
<stop stop-color="#0D2C58"/>
<stop offset="1" stop-color="#144286"/>
</linearGradient>
<linearGradient id="paint1_linear_854_7833" x1="31.1492" y1="0" x2="31.1492" y2="47.2073" gradientUnits="userSpaceOnUse">
<stop stop-color="#BED1EC"/>
<stop offset="1" stop-color="#367BDF"/>
</linearGradient>
<linearGradient id="paint2_linear_854_7833" x1="18.7619" y1="18.1641" x2="18.7619" y2="47.1972" gradientUnits="userSpaceOnUse">
<stop stop-color="#0D2C58"/>
<stop offset="1" stop-color="#144286"/>
</linearGradient>
<linearGradient id="paint3_linear_854_7833" x1="18.7619" y1="18.1641" x2="18.7619" y2="47.1972" gradientUnits="userSpaceOnUse">
<stop stop-color="#BED1EC"/>
<stop offset="1" stop-color="#367BDF"/>
</linearGradient>
<linearGradient id="paint4_linear_854_7833" x1="43.5346" y1="18.1641" x2="43.5346" y2="47.1972" gradientUnits="userSpaceOnUse">
<stop stop-color="#0D2C58"/>
<stop offset="1" stop-color="#144286"/>
</linearGradient>
<linearGradient id="paint5_linear_854_7833" x1="43.5346" y1="18.1641" x2="43.5346" y2="47.1972" gradientUnits="userSpaceOnUse">
<stop stop-color="#BED1EC"/>
<stop offset="1" stop-color="#367BDF"/>
</linearGradient>
<linearGradient id="paint6_linear_854_7833" x1="31.1494" y1="29.043" x2="31.1494" y2="47.2071" gradientUnits="userSpaceOnUse">
<stop stop-color="#15468A"/>
<stop offset="1" stop-color="#2059AC"/>
</linearGradient>
<linearGradient id="paint7_linear_854_7833" x1="31.1494" y1="29.043" x2="31.1494" y2="47.2071" gradientUnits="userSpaceOnUse">
<stop stop-color="#BED1EC"/>
<stop offset="1" stop-color="#367BDF"/>
</linearGradient>
</defs>
</svg>
