<svg width="25" height="22" viewBox="0 0 25 22" fill="none" xmlns="http://www.w3.org/2000/svg">
<path fill-rule="evenodd" clip-rule="evenodd" d="M22.3625 5.78517C22.3715 6.01835 22.3745 6.25144 22.3745 6.48462C22.3745 13.5542 17.4014 21.7157 8.30731 21.7157C5.51376 21.7157 2.91616 20.8253 0.727539 19.3096C1.11442 19.352 1.50733 19.3839 1.90626 19.3839C4.2225 19.3839 6.35585 18.5252 8.04805 17.0837C5.88456 17.0519 4.05771 15.4939 3.42765 13.374C3.73012 13.4376 4.04161 13.4695 4.36015 13.4695C4.80933 13.4695 5.24544 13.406 5.66347 13.2788C3.39949 12.7912 1.69423 10.6291 1.69423 8.0323C1.69423 8.00051 1.69423 7.98984 1.69423 7.96865C2.36147 8.36081 3.12516 8.60447 3.9361 8.63627C2.60765 7.67175 1.73441 6.02893 1.73441 4.17408C1.73441 3.19897 1.97759 2.2768 2.40566 1.48187C4.84349 4.7252 8.4882 6.85565 12.5971 7.07823C12.5127 6.68606 12.4695 6.2728 12.4695 5.85943C12.4695 2.90229 14.6832 0.506836 17.4145 0.506836C18.8364 0.506836 20.1206 1.15347 21.022 2.19219C22.1504 1.95901 23.2076 1.51387 24.1642 0.899127C23.7934 2.14982 23.0106 3.19891 21.9877 3.85606C22.9885 3.72887 23.9432 3.44291 24.8285 3.01895C24.1642 4.08946 23.3282 5.03263 22.3625 5.78517Z" fill="white"/>
</svg>
