<svg width="26" height="22" viewBox="0 0 26 22" fill="none" xmlns="http://www.w3.org/2000/svg">
<path d="M3.91331 2.98038L0.571777 6.00926L1.72798 7.46509C2.24287 7.14502 3.27265 6.31006 3.73188 6.31006C4.76167 6.31006 5.68741 9.10027 6.57075 12.1687C7.36396 14.9241 8.18501 21.7708 11.9702 21.7708C16.3259 21.7708 25.4826 10.0117 25.4826 4.77816C25.4826 2.88444 25.1069 0.15918 21.3356 0.15918C17.2944 0.15918 15.3062 4.05924 14.8173 6.00926C15.169 5.77476 16.1265 5.61843 16.6541 5.61843C18.8037 5.61843 18.3446 7.84647 18.0515 8.74536C17.7583 9.64425 15.5048 14.0211 14.2897 14.0211C12.8045 14.0211 11.9252 7.57254 11.4953 4.77816C11.0654 1.98378 9.95153 0.45957 8.25145 0.45957C6.89139 0.45957 4.79266 2.14011 3.91331 2.98038Z" fill="white"/>
</svg>
