<svg width="28" height="20" viewBox="0 0 28 20" fill="none" xmlns="http://www.w3.org/2000/svg">
<path fill-rule="evenodd" clip-rule="evenodd" d="M24.5641 0.828251C25.7206 1.13962 26.6325 2.05148 26.9439 3.20798C27.5221 5.32082 27.4999 9.72442 27.4999 9.72442C27.4999 9.72442 27.4999 14.1058 26.9439 16.2186C26.6325 17.3751 25.7206 18.287 24.5641 18.5984C22.4513 19.1544 13.9999 19.1544 13.9999 19.1544C13.9999 19.1544 5.57082 19.1544 3.43574 18.5761C2.27923 18.2647 1.36738 17.3529 1.05601 16.1964C0.5 14.1058 0.5 9.70218 0.5 9.70218C0.5 9.70218 0.5 5.32082 1.05601 3.20798C1.36738 2.05148 2.30148 1.11738 3.43574 0.806011C5.54858 0.25 13.9999 0.25 13.9999 0.25C13.9999 0.25 22.4513 0.25 24.5641 0.828251ZM18.3368 9.54776L11.3088 13.5955V5.5L18.3368 9.54776Z" fill="white"/>
</svg>
